M48
METRIC,LZ,000.000
;FILE_FORMAT=3:3
;TYPE=PLATED
;Layer: PTH_Through
;EasyEDA v6.4.31, 2022-01-25 22:29:22
;e61b6c59d15345b4ac09c8306d02ccd6,8f8899c8ce1b4866aa33813601b7f331,10
;Gerber Generator version 0.2
;Holesize 1 = 0.306 mm
T01C0.306
;Holesize 2 = 0.701 mm
T02C0.701
;Holesize 3 = 0.712 mm
T03C0.712
;Holesize 4 = 0.900 mm
T04C0.900
;Holesize 5 = 0.915 mm
T05C0.915
;Holesize 6 = 1.000 mm
T06C1.000
;Holesize 7 = 1.101 mm
T07C1.101
;Holesize 8 = 1.200 mm
T08C1.200
;Holesize 9 = 1.600 mm
T09C1.600
%
G05
G90
T01
X052305Y043386
X029777Y051011
T02
X035930Y026670
X034428Y026670
X036057Y033147
X034555Y033147
X062219Y057658
X060717Y057658
X044704Y031242
X045974Y031242
X047244Y031242
T03
X020701Y018415
X025781Y018415
X031115Y018288
X036195Y018288
X020828Y010922
X025908Y010922
T04
X043688Y006477
X053848Y006477
X043307Y011684
X053467Y011684
X043434Y017145
X053594Y017145
X043434Y023114
X053594Y023114
T05
X011684Y003048
X011686Y005586
X049657Y042291
X047117Y042291
X044577Y042291
X042037Y042291
X039497Y042291
X036957Y042291
X034417Y042291
X031877Y042291
X029337Y042291
X026797Y042291
X024257Y042291
X021717Y042291
X019177Y042291
X016637Y042291
X014097Y042291
X014097Y057531
X016637Y057531
X019177Y057531
X021717Y057531
X024257Y057531
X026797Y057531
X029337Y057531
X031877Y057531
X034417Y057531
X036957Y057531
X039497Y057531
X042037Y057531
X044577Y057531
X047117Y057531
X049657Y057531
T06
X071628Y056896G85X071628Y056896
X074168Y049276G85X074168Y049276
X074168Y051816G85X074168Y051816
X074168Y054356G85X074168Y054356
X074168Y056896G85X074168Y056896
X071628Y054356G85X071628Y054356
X071628Y051816G85X071628Y051816
X071628Y049276G85X071628Y049276
T07
X058674Y035814
X061214Y035814
X030531Y006441
X030531Y001941
X037033Y006441
X037033Y001941
T08
X028697Y030099
X028707Y032639
X028697Y027559
T09
X011938Y031877
X011938Y026797
M30
