solid OpenSCAD_Model
  facet normal 0.987688 0.156435 0
    outer loop
      vertex 4 0 20
      vertex 3.80423 1.23607 2.5
      vertex 3.80423 1.23607 20
    endloop
  endfacet
  facet normal 0.987688 0.156435 0
    outer loop
      vertex 3.80423 1.23607 2.5
      vertex 4 0 20
      vertex 4 0 2.5
    endloop
  endfacet
  facet normal -0.987688 0.156435 0
    outer loop
      vertex -4 0 2.5
      vertex -3.80423 1.23607 20
      vertex -3.80423 1.23607 2.5
    endloop
  endfacet
  facet normal -0.987688 0.156435 0
    outer loop
      vertex -3.80423 1.23607 20
      vertex -4 0 2.5
      vertex -4 0 20
    endloop
  endfacet
  facet normal 0.156435 0.987688 -0
    outer loop
      vertex 1.23607 3.80423 16.1975
      vertex 0 4 20
      vertex 1.23607 3.80423 20
    endloop
  endfacet
  facet normal 0.156435 0.987688 0
    outer loop
      vertex 0 4 20
      vertex 1.23607 3.80423 16.1975
      vertex 0 4 16.1665
    endloop
  endfacet
  facet normal -0.156435 -0.987688 0
    outer loop
      vertex -1.23607 -3.80423 16.1975
      vertex 0 -4 20
      vertex -1.23607 -3.80423 20
    endloop
  endfacet
  facet normal -0.156435 -0.987688 -0
    outer loop
      vertex 0 -4 20
      vertex -1.23607 -3.80423 16.1975
      vertex 0 -4 16.1665
    endloop
  endfacet
  facet normal 0 0 -1
    outer loop
      vertex -4.75528 -1.54508 0
      vertex -3.7 -3.28401 0
      vertex -4.04508 -2.93893 0
    endloop
  endfacet
  facet normal 0 0 -1
    outer loop
      vertex -5 0 0
      vertex -3.7 -3.28401 0
      vertex -4.75528 -1.54508 0
    endloop
  endfacet
  facet normal 0 0 -1
    outer loop
      vertex -3.7 -3.28401 0
      vertex -5 0 0
      vertex -3.7 3.28401 0
    endloop
  endfacet
  facet normal 0 0 -1
    outer loop
      vertex -3.7 3.28401 0
      vertex -4.75528 1.54508 0
      vertex -4.04508 2.93893 0
    endloop
  endfacet
  facet normal 0 0 -1
    outer loop
      vertex -3.7 3.28401 0
      vertex -5 0 0
      vertex -4.75528 1.54508 0
    endloop
  endfacet
  facet normal 0 0 -1
    outer loop
      vertex 3.7 -19.2 0
      vertex 0.734731 -18.1887 0
      vertex 3.7 -3.28401 0
    endloop
  endfacet
  facet normal 0 0 -1
    outer loop
      vertex 3.7 3.28401 0
      vertex 1.18882 18.8137 0
      vertex 1.25 19.2 0
    endloop
  endfacet
  facet normal 0 0 -1
    outer loop
      vertex 0.386271 -18.0112 0
      vertex 3.7 -3.28401 0
      vertex 0.734731 -18.1887 0
    endloop
  endfacet
  facet normal 0 0 -1
    outer loop
      vertex 3.7 3.28401 0
      vertex 1.01127 18.4653 0
      vertex 1.18882 18.8137 0
    endloop
  endfacet
  facet normal 0 0 -1
    outer loop
      vertex 3.7 -3.28401 0
      vertex -3.7 -3.28401 0
      vertex 3.7 3.28401 0
    endloop
  endfacet
  facet normal 0 0 -1
    outer loop
      vertex -3.7 3.28401 0
      vertex 3.7 3.28401 0
      vertex -3.7 -3.28401 0
    endloop
  endfacet
  facet normal 0 0 -1
    outer loop
      vertex 0 -17.95 0
      vertex 3.7 -3.28401 0
      vertex 0.386271 -18.0112 0
    endloop
  endfacet
  facet normal 0 -0 -1
    outer loop
      vertex 0 17.95 0
      vertex 3.7 3.28401 0
      vertex -3.7 3.28401 0
    endloop
  endfacet
  facet normal -0 0 -1
    outer loop
      vertex 3.7 -3.28401 0
      vertex 0 -17.95 0
      vertex -3.7 -3.28401 0
    endloop
  endfacet
  facet normal 0 0 -1
    outer loop
      vertex 3.7 3.28401 0
      vertex 0.734731 18.1887 0
      vertex 1.01127 18.4653 0
    endloop
  endfacet
  facet normal 0 0 -1
    outer loop
      vertex -3.7 -3.28401 0
      vertex 0 -17.95 0
      vertex -0.386271 -18.0112 0
    endloop
  endfacet
  facet normal 0 0 -1
    outer loop
      vertex 3.7 3.28401 0
      vertex 0.386271 18.0112 0
      vertex 0.734731 18.1887 0
    endloop
  endfacet
  facet normal 0 0 -1
    outer loop
      vertex -3.7 -3.28401 0
      vertex -0.386271 -18.0112 0
      vertex -0.734731 -18.1887 0
    endloop
  endfacet
  facet normal 0 0 -1
    outer loop
      vertex 3.7 3.28401 0
      vertex 0 17.95 0
      vertex 0.386271 18.0112 0
    endloop
  endfacet
  facet normal 0 0 -1
    outer loop
      vertex -3.7 -19.2 0
      vertex -0.734731 -18.1887 0
      vertex -1.01127 -18.4653 0
    endloop
  endfacet
  facet normal -0 0 -1
    outer loop
      vertex 0 17.95 0
      vertex -3.7 3.28401 0
      vertex -0.386271 18.0112 0
    endloop
  endfacet
  facet normal 0 0 -1
    outer loop
      vertex -3.7 -19.2 0
      vertex -1.01127 -18.4653 0
      vertex -1.18882 -18.8137 0
    endloop
  endfacet
  facet normal -0 0 -1
    outer loop
      vertex -0.386271 18.0112 0
      vertex -3.7 3.28401 0
      vertex -0.734731 18.1887 0
    endloop
  endfacet
  facet normal 0 0 -1
    outer loop
      vertex -3.7 -19.2 0
      vertex -1.18882 -18.8137 0
      vertex -1.25 -19.2 0
    endloop
  endfacet
  facet normal 0 0 -1
    outer loop
      vertex -3.7 19.2 0
      vertex -0.734731 18.1887 0
      vertex -3.7 3.28401 0
    endloop
  endfacet
  facet normal 0 0 -1
    outer loop
      vertex 1.18882 -18.8137 0
      vertex 3.7 -19.2 0
      vertex 1.25 -19.2 0
    endloop
  endfacet
  facet normal 0 0 -1
    outer loop
      vertex 1.01127 -18.4653 0
      vertex 3.7 -19.2 0
      vertex 1.18882 -18.8137 0
    endloop
  endfacet
  facet normal 0 0 -1
    outer loop
      vertex 1.25 -19.2 0
      vertex 3.7 -19.2 0
      vertex 3.51891 -20.3434 0
    endloop
  endfacet
  facet normal 0 0 -1
    outer loop
      vertex 0.734731 -18.1887 0
      vertex 3.7 -19.2 0
      vertex 1.01127 -18.4653 0
    endloop
  endfacet
  facet normal 0 0 -1
    outer loop
      vertex 1.18882 -19.5863 0
      vertex 3.51891 -20.3434 0
      vertex 2.99336 -21.3748 0
    endloop
  endfacet
  facet normal 0 0 -1
    outer loop
      vertex 3.7 3.28401 0
      vertex 1.25 19.2 0
      vertex 3.7 19.2 0
    endloop
  endfacet
  facet normal 0 0 -1
    outer loop
      vertex 1.01127 -19.9347 0
      vertex 2.99336 -21.3748 0
      vertex 2.1748 -22.1934 0
    endloop
  endfacet
  facet normal 0 0 -1
    outer loop
      vertex 3.7 19.2 0
      vertex 1.25 19.2 0
      vertex 3.51891 20.3434 0
    endloop
  endfacet
  facet normal 0 0 -1
    outer loop
      vertex 1.18882 19.5863 0
      vertex 3.51891 20.3434 0
      vertex 1.25 19.2 0
    endloop
  endfacet
  facet normal 0 0 -1
    outer loop
      vertex 3.51891 -20.3434 0
      vertex 1.18882 -19.5863 0
      vertex 1.25 -19.2 0
    endloop
  endfacet
  facet normal 0 0 -1
    outer loop
      vertex 0.734731 -20.2113 0
      vertex 2.1748 -22.1934 0
      vertex 1.14336 -22.7189 0
    endloop
  endfacet
  facet normal 0 0 -1
    outer loop
      vertex 2.99336 -21.3748 0
      vertex 1.01127 -19.9347 0
      vertex 1.18882 -19.5863 0
    endloop
  endfacet
  facet normal 0 0 -1
    outer loop
      vertex 2.1748 -22.1934 0
      vertex 0.734731 -20.2113 0
      vertex 1.01127 -19.9347 0
    endloop
  endfacet
  facet normal 0 0 -1
    outer loop
      vertex 1.14336 -22.7189 0
      vertex 0.386271 -20.3888 0
      vertex 0.734731 -20.2113 0
    endloop
  endfacet
  facet normal 0 0 -1
    outer loop
      vertex 0 -22.9 0
      vertex 0.386271 -20.3888 0
      vertex 1.14336 -22.7189 0
    endloop
  endfacet
  facet normal 0 0 -1
    outer loop
      vertex 0 -22.9 0
      vertex 0 -20.45 0
      vertex 0.386271 -20.3888 0
    endloop
  endfacet
  facet normal 0 0 -1
    outer loop
      vertex 0 -22.9 0
      vertex -0.386271 -20.3888 0
      vertex 0 -20.45 0
    endloop
  endfacet
  facet normal 0 0 -1
    outer loop
      vertex -1.14336 -22.7189 0
      vertex -0.386271 -20.3888 0
      vertex 0 -22.9 0
    endloop
  endfacet
  facet normal -0 0 -1
    outer loop
      vertex -0.386271 -20.3888 0
      vertex -1.14336 -22.7189 0
      vertex -0.734731 -20.2113 0
    endloop
  endfacet
  facet normal 0 0 -1
    outer loop
      vertex -2.1748 -22.1934 0
      vertex -0.734731 -20.2113 0
      vertex -1.14336 -22.7189 0
    endloop
  endfacet
  facet normal -0 0 -1
    outer loop
      vertex -0.734731 -20.2113 0
      vertex -2.1748 -22.1934 0
      vertex -1.01127 -19.9347 0
    endloop
  endfacet
  facet normal 0 0 -1
    outer loop
      vertex -2.99336 -21.3748 0
      vertex -1.01127 -19.9347 0
      vertex -2.1748 -22.1934 0
    endloop
  endfacet
  facet normal 0 0 -1
    outer loop
      vertex -3.51891 -20.3434 0
      vertex -1.18882 -19.5863 0
      vertex -2.99336 -21.3748 0
    endloop
  endfacet
  facet normal -0 0 -1
    outer loop
      vertex -1.01127 -19.9347 0
      vertex -2.99336 -21.3748 0
      vertex -1.18882 -19.5863 0
    endloop
  endfacet
  facet normal 0 0 -1
    outer loop
      vertex 3.7 -3.28401 0
      vertex 5 0 0
      vertex 4.75528 -1.54508 0
    endloop
  endfacet
  facet normal 0 0 -1
    outer loop
      vertex 3.7 -3.28401 0
      vertex 4.75528 -1.54508 0
      vertex 4.04508 -2.93893 0
    endloop
  endfacet
  facet normal 0 0 -1
    outer loop
      vertex 3.7 3.28401 0
      vertex 5 0 0
      vertex 3.7 -3.28401 0
    endloop
  endfacet
  facet normal 0 0 -1
    outer loop
      vertex 5 0 0
      vertex 3.7 3.28401 0
      vertex 4.75528 1.54508 0
    endloop
  endfacet
  facet normal 0 0 -1
    outer loop
      vertex 4.75528 1.54508 0
      vertex 3.7 3.28401 0
      vertex 4.04508 2.93893 0
    endloop
  endfacet
  facet normal -0 0 -1
    outer loop
      vertex 3.51891 20.3434 0
      vertex 1.18882 19.5863 0
      vertex 2.99336 21.3748 0
    endloop
  endfacet
  facet normal 0 0 -1
    outer loop
      vertex 1.01127 19.9347 0
      vertex 2.99336 21.3748 0
      vertex 1.18882 19.5863 0
    endloop
  endfacet
  facet normal -0 0 -1
    outer loop
      vertex 2.99336 21.3748 0
      vertex 1.01127 19.9347 0
      vertex 2.1748 22.1934 0
    endloop
  endfacet
  facet normal 0 0 -1
    outer loop
      vertex 0.734731 20.2113 0
      vertex 2.1748 22.1934 0
      vertex 1.01127 19.9347 0
    endloop
  endfacet
  facet normal -0 0 -1
    outer loop
      vertex 2.1748 22.1934 0
      vertex 0.734731 20.2113 0
      vertex 1.14336 22.7189 0
    endloop
  endfacet
  facet normal 0 0 -1
    outer loop
      vertex 0.386271 20.3888 0
      vertex 1.14336 22.7189 0
      vertex 0.734731 20.2113 0
    endloop
  endfacet
  facet normal 0 0 -1
    outer loop
      vertex 0 20.45 0
      vertex 1.14336 22.7189 0
      vertex 0.386271 20.3888 0
    endloop
  endfacet
  facet normal 0 0 -1
    outer loop
      vertex 0 20.45 0
      vertex 0 22.9 0
      vertex 1.14336 22.7189 0
    endloop
  endfacet
  facet normal 0 0 -1
    outer loop
      vertex -0.386271 20.3888 0
      vertex 0 22.9 0
      vertex 0 20.45 0
    endloop
  endfacet
  facet normal 0 0 -1
    outer loop
      vertex -1.14336 22.7189 0
      vertex -0.386271 20.3888 0
      vertex -0.734731 20.2113 0
    endloop
  endfacet
  facet normal 0 0 -1
    outer loop
      vertex -2.1748 22.1934 0
      vertex -0.734731 20.2113 0
      vertex -1.01127 19.9347 0
    endloop
  endfacet
  facet normal 0 0 -1
    outer loop
      vertex -0.386271 20.3888 0
      vertex -1.14336 22.7189 0
      vertex 0 22.9 0
    endloop
  endfacet
  facet normal 0 0 -1
    outer loop
      vertex -2.99336 21.3748 0
      vertex -1.01127 19.9347 0
      vertex -1.18882 19.5863 0
    endloop
  endfacet
  facet normal 0 0 -1
    outer loop
      vertex -3.51891 20.3434 0
      vertex -1.18882 19.5863 0
      vertex -1.25 19.2 0
    endloop
  endfacet
  facet normal 0 0 -1
    outer loop
      vertex -0.734731 20.2113 0
      vertex -2.1748 22.1934 0
      vertex -1.14336 22.7189 0
    endloop
  endfacet
  facet normal 0 0 -1
    outer loop
      vertex -0.734731 18.1887 0
      vertex -3.7 19.2 0
      vertex -1.01127 18.4653 0
    endloop
  endfacet
  facet normal -0 0 -1
    outer loop
      vertex -1.18882 -19.5863 0
      vertex -3.51891 -20.3434 0
      vertex -1.25 -19.2 0
    endloop
  endfacet
  facet normal 0 0 -1
    outer loop
      vertex -1.01127 18.4653 0
      vertex -3.7 19.2 0
      vertex -1.18882 18.8137 0
    endloop
  endfacet
  facet normal -0 0 -1
    outer loop
      vertex -1.25 -19.2 0
      vertex -3.51891 -20.3434 0
      vertex -3.7 -19.2 0
    endloop
  endfacet
  facet normal 0 0 -1
    outer loop
      vertex -1.18882 18.8137 0
      vertex -3.7 19.2 0
      vertex -1.25 19.2 0
    endloop
  endfacet
  facet normal -0 0 -1
    outer loop
      vertex -0.734731 -18.1887 0
      vertex -3.7 -19.2 0
      vertex -3.7 -3.28401 0
    endloop
  endfacet
  facet normal 0 -0 -1
    outer loop
      vertex -3.51891 20.3434 0
      vertex -1.25 19.2 0
      vertex -3.7 19.2 0
    endloop
  endfacet
  facet normal 0 0 -1
    outer loop
      vertex -1.01127 19.9347 0
      vertex -2.99336 21.3748 0
      vertex -2.1748 22.1934 0
    endloop
  endfacet
  facet normal 0 0 -1
    outer loop
      vertex -1.18882 19.5863 0
      vertex -3.51891 20.3434 0
      vertex -2.99336 21.3748 0
    endloop
  endfacet
  facet normal 0.707107 0.707107 0
    outer loop
      vertex 3.23607 2.35114 20
      vertex 2.35114 3.23607 2.5
      vertex 2.35114 3.23607 20
    endloop
  endfacet
  facet normal 0.707107 0.707107 0
    outer loop
      vertex 2.35114 3.23607 2.5
      vertex 3.23607 2.35114 20
      vertex 3.23607 2.35114 2.5
    endloop
  endfacet
  facet normal 0.891007 0.45399 0
    outer loop
      vertex 3.80423 1.23607 20
      vertex 3.23607 2.35114 2.5
      vertex 3.23607 2.35114 20
    endloop
  endfacet
  facet normal 0.891007 0.45399 0
    outer loop
      vertex 3.23607 2.35114 2.5
      vertex 3.80423 1.23607 20
      vertex 3.80423 1.23607 2.5
    endloop
  endfacet
  facet normal 0.45399 0.891007 -1.55513e-08
    outer loop
      vertex 2.35114 3.23607 20
      vertex 1.5 3.66975 16.2188
      vertex 1.23607 3.80423 20
    endloop
  endfacet
  facet normal 0.45399 0.891007 3.50459e-08
    outer loop
      vertex 2.35114 3.23607 20
      vertex 1.5 3.66975 13.1303
      vertex 1.5 3.66975 16.2188
    endloop
  endfacet
  facet normal 0.453991 0.891007 -0
    outer loop
      vertex 2.35114 3.23607 2.5
      vertex 1.5 3.66975 13.1303
      vertex 2.35114 3.23607 20
    endloop
  endfacet
  facet normal 0.453991 0.891006 5.47183e-09
    outer loop
      vertex 1.5 3.66975 13.1303
      vertex 2.35114 3.23607 2.5
      vertex 1.5 3.66975 2.5
    endloop
  endfacet
  facet normal 0.453991 0.891006 0
    outer loop
      vertex 1.23607 3.80423 20
      vertex 1.5 3.66975 16.2188
      vertex 1.23607 3.80423 16.1975
    endloop
  endfacet
  facet normal -0.45399 0.891007 -1.34107e-08
    outer loop
      vertex -1.23607 3.80423 20
      vertex -1.5 3.66975 16.2188
      vertex -2.35114 3.23607 20
    endloop
  endfacet
  facet normal -0.453991 0.891006 0
    outer loop
      vertex -1.5 3.66975 16.2188
      vertex -1.23607 3.80423 20
      vertex -1.23607 3.80423 16.1975
    endloop
  endfacet
  facet normal -0.45399 0.891007 0
    outer loop
      vertex -2.35114 3.23607 2.5
      vertex -1.5 3.66975 16.2188
      vertex -1.5 3.66975 2.5
    endloop
  endfacet
  facet normal -0.45399 0.891007 0
    outer loop
      vertex -1.5 3.66975 16.2188
      vertex -2.35114 3.23607 2.5
      vertex -2.35114 3.23607 20
    endloop
  endfacet
  facet normal -0.707107 0.707107 0
    outer loop
      vertex -3.23607 2.35114 2.5
      vertex -2.35114 3.23607 20
      vertex -2.35114 3.23607 2.5
    endloop
  endfacet
  facet normal -0.707107 0.707107 0
    outer loop
      vertex -2.35114 3.23607 20
      vertex -3.23607 2.35114 2.5
      vertex -3.23607 2.35114 20
    endloop
  endfacet
  facet normal -0.156435 0.987688 0
    outer loop
      vertex 0 4 20
      vertex -1.23607 3.80423 16.1975
      vertex -1.23607 3.80423 20
    endloop
  endfacet
  facet normal -0.156435 0.987688 0
    outer loop
      vertex -1.23607 3.80423 16.1975
      vertex 0 4 20
      vertex 0 4 16.1665
    endloop
  endfacet
  facet normal 0.891007 -0.45399 0
    outer loop
      vertex 3.23607 -2.35114 20
      vertex 3.80423 -1.23607 2.5
      vertex 3.80423 -1.23607 20
    endloop
  endfacet
  facet normal 0.891007 -0.45399 0
    outer loop
      vertex 3.80423 -1.23607 2.5
      vertex 3.23607 -2.35114 20
      vertex 3.23607 -2.35114 2.5
    endloop
  endfacet
  facet normal -0.707107 -0.707107 0
    outer loop
      vertex -2.35114 -3.23607 2.5
      vertex -3.23607 -2.35114 20
      vertex -3.23607 -2.35114 2.5
    endloop
  endfacet
  facet normal -0.707107 -0.707107 0
    outer loop
      vertex -3.23607 -2.35114 20
      vertex -2.35114 -3.23607 2.5
      vertex -2.35114 -3.23607 20
    endloop
  endfacet
  facet normal -0.987688 -0.156435 0
    outer loop
      vertex -3.80423 -1.23607 2.5
      vertex -4 0 20
      vertex -4 0 2.5
    endloop
  endfacet
  facet normal -0.987688 -0.156435 0
    outer loop
      vertex -4 0 20
      vertex -3.80423 -1.23607 2.5
      vertex -3.80423 -1.23607 20
    endloop
  endfacet
  facet normal -0.891007 0.45399 0
    outer loop
      vertex -3.80423 1.23607 2.5
      vertex -3.23607 2.35114 20
      vertex -3.23607 2.35114 2.5
    endloop
  endfacet
  facet normal -0.891007 0.45399 0
    outer loop
      vertex -3.23607 2.35114 20
      vertex -3.80423 1.23607 2.5
      vertex -3.80423 1.23607 20
    endloop
  endfacet
  facet normal 0 0 1
    outer loop
      vertex 2.1 0 20
      vertex 4 0 20
      vertex 3.80423 1.23607 20
    endloop
  endfacet
  facet normal 0 0 1
    outer loop
      vertex 1.99722 0.648935 20
      vertex 3.80423 1.23607 20
      vertex 3.23607 2.35114 20
    endloop
  endfacet
  facet normal 0 0 1
    outer loop
      vertex 4 0 20
      vertex 2.1 0 20
      vertex 3.80423 -1.23607 20
    endloop
  endfacet
  facet normal 0 0 1
    outer loop
      vertex 1.69894 1.23435 20
      vertex 3.23607 2.35114 20
      vertex 2.35114 3.23607 20
    endloop
  endfacet
  facet normal -0 0 1
    outer loop
      vertex 1.99722 -0.648935 20
      vertex 3.80423 -1.23607 20
      vertex 2.1 0 20
    endloop
  endfacet
  facet normal 0 0 1
    outer loop
      vertex 3.80423 -1.23607 20
      vertex 1.99722 -0.648935 20
      vertex 3.23607 -2.35114 20
    endloop
  endfacet
  facet normal 0 0 1
    outer loop
      vertex 3.80423 1.23607 20
      vertex 1.99722 0.648935 20
      vertex 2.1 0 20
    endloop
  endfacet
  facet normal 0 0 1
    outer loop
      vertex 3.23607 2.35114 20
      vertex 1.69894 1.23435 20
      vertex 1.99722 0.648935 20
    endloop
  endfacet
  facet normal 0 0 1
    outer loop
      vertex 1.23435 1.69894 20
      vertex 2.35114 3.23607 20
      vertex 1.23607 3.80423 20
    endloop
  endfacet
  facet normal 0 0 1
    outer loop
      vertex 2.35114 3.23607 20
      vertex 1.23435 1.69894 20
      vertex 1.69894 1.23435 20
    endloop
  endfacet
  facet normal 0 0 1
    outer loop
      vertex 1.23607 3.80423 20
      vertex 0.648935 1.99722 20
      vertex 1.23435 1.69894 20
    endloop
  endfacet
  facet normal 0 0 1
    outer loop
      vertex 0 4 20
      vertex 0.648935 1.99722 20
      vertex 1.23607 3.80423 20
    endloop
  endfacet
  facet normal 0 0 1
    outer loop
      vertex 0 4 20
      vertex 0 2.1 20
      vertex 0.648935 1.99722 20
    endloop
  endfacet
  facet normal 0 0 1
    outer loop
      vertex 0 4 20
      vertex -0.648935 1.99722 20
      vertex 0 2.1 20
    endloop
  endfacet
  facet normal -0 0 1
    outer loop
      vertex -1.23607 3.80423 20
      vertex -0.648935 1.99722 20
      vertex 0 4 20
    endloop
  endfacet
  facet normal 0 0 1
    outer loop
      vertex -0.648935 1.99722 20
      vertex -1.23607 3.80423 20
      vertex -1.23435 1.69894 20
    endloop
  endfacet
  facet normal -0 0 1
    outer loop
      vertex -2.35114 3.23607 20
      vertex -1.23435 1.69894 20
      vertex -1.23607 3.80423 20
    endloop
  endfacet
  facet normal 0 0 1
    outer loop
      vertex -1.23435 1.69894 20
      vertex -2.35114 3.23607 20
      vertex -1.69894 1.23435 20
    endloop
  endfacet
  facet normal 0 0 1
    outer loop
      vertex -1.69894 1.23435 20
      vertex -3.23607 2.35114 20
      vertex -1.99722 0.648935 20
    endloop
  endfacet
  facet normal -0 0 1
    outer loop
      vertex -3.23607 2.35114 20
      vertex -1.69894 1.23435 20
      vertex -2.35114 3.23607 20
    endloop
  endfacet
  facet normal -0 0 1
    outer loop
      vertex 1.69894 -1.23435 20
      vertex 3.23607 -2.35114 20
      vertex 1.99722 -0.648935 20
    endloop
  endfacet
  facet normal 0 0 1
    outer loop
      vertex 3.23607 -2.35114 20
      vertex 1.69894 -1.23435 20
      vertex 2.35114 -3.23607 20
    endloop
  endfacet
  facet normal -0 0 1
    outer loop
      vertex 1.23435 -1.69894 20
      vertex 2.35114 -3.23607 20
      vertex 1.69894 -1.23435 20
    endloop
  endfacet
  facet normal 0 0 1
    outer loop
      vertex 2.35114 -3.23607 20
      vertex 1.23435 -1.69894 20
      vertex 1.23607 -3.80423 20
    endloop
  endfacet
  facet normal -0 0 1
    outer loop
      vertex 0.648935 -1.99722 20
      vertex 1.23607 -3.80423 20
      vertex 1.23435 -1.69894 20
    endloop
  endfacet
  facet normal -0 0 1
    outer loop
      vertex 0 -2.1 20
      vertex 1.23607 -3.80423 20
      vertex 0.648935 -1.99722 20
    endloop
  endfacet
  facet normal 0 0 1
    outer loop
      vertex 0 -2.1 20
      vertex 0 -4 20
      vertex 1.23607 -3.80423 20
    endloop
  endfacet
  facet normal 0 0 1
    outer loop
      vertex -0.648935 -1.99722 20
      vertex 0 -4 20
      vertex 0 -2.1 20
    endloop
  endfacet
  facet normal 0 0 1
    outer loop
      vertex -1.23607 -3.80423 20
      vertex -0.648935 -1.99722 20
      vertex -1.23435 -1.69894 20
    endloop
  endfacet
  facet normal 0 0 1
    outer loop
      vertex -0.648935 -1.99722 20
      vertex -1.23607 -3.80423 20
      vertex 0 -4 20
    endloop
  endfacet
  facet normal 0 0 1
    outer loop
      vertex -2.35114 -3.23607 20
      vertex -1.23435 -1.69894 20
      vertex -1.69894 -1.23435 20
    endloop
  endfacet
  facet normal 0 0 1
    outer loop
      vertex -3.23607 -2.35114 20
      vertex -1.69894 -1.23435 20
      vertex -1.99722 -0.648935 20
    endloop
  endfacet
  facet normal 0 0 1
    outer loop
      vertex -1.23435 -1.69894 20
      vertex -2.35114 -3.23607 20
      vertex -1.23607 -3.80423 20
    endloop
  endfacet
  facet normal 0 0 1
    outer loop
      vertex -3.80423 -1.23607 20
      vertex -1.99722 -0.648935 20
      vertex -2.1 0 20
    endloop
  endfacet
  facet normal -0 0 1
    outer loop
      vertex -3.80423 1.23607 20
      vertex -1.99722 0.648935 20
      vertex -3.23607 2.35114 20
    endloop
  endfacet
  facet normal 0 0 1
    outer loop
      vertex -1.99722 0.648935 20
      vertex -3.80423 1.23607 20
      vertex -2.1 0 20
    endloop
  endfacet
  facet normal 0 0 1
    outer loop
      vertex -1.69894 -1.23435 20
      vertex -3.23607 -2.35114 20
      vertex -2.35114 -3.23607 20
    endloop
  endfacet
  facet normal 0 0 1
    outer loop
      vertex -4 0 20
      vertex -2.1 0 20
      vertex -3.80423 1.23607 20
    endloop
  endfacet
  facet normal 0 0 1
    outer loop
      vertex -1.99722 -0.648935 20
      vertex -3.80423 -1.23607 20
      vertex -3.23607 -2.35114 20
    endloop
  endfacet
  facet normal 0 0 1
    outer loop
      vertex -2.1 0 20
      vertex -4 0 20
      vertex -3.80423 -1.23607 20
    endloop
  endfacet
  facet normal 0.987688 -0.156435 0
    outer loop
      vertex 3.80423 -1.23607 20
      vertex 4 0 2.5
      vertex 4 0 20
    endloop
  endfacet
  facet normal 0.987688 -0.156435 0
    outer loop
      vertex 4 0 2.5
      vertex 3.80423 -1.23607 20
      vertex 3.80423 -1.23607 2.5
    endloop
  endfacet
  facet normal 0.156435 -0.987688 0
    outer loop
      vertex 0 -4 20
      vertex 1.23607 -3.80423 16.1975
      vertex 1.23607 -3.80423 20
    endloop
  endfacet
  facet normal 0.156435 -0.987688 0
    outer loop
      vertex 1.23607 -3.80423 16.1975
      vertex 0 -4 20
      vertex 0 -4 16.1665
    endloop
  endfacet
  facet normal 0.707107 -0.707107 0
    outer loop
      vertex 2.35114 -3.23607 20
      vertex 3.23607 -2.35114 2.5
      vertex 3.23607 -2.35114 20
    endloop
  endfacet
  facet normal 0.707107 -0.707107 0
    outer loop
      vertex 3.23607 -2.35114 2.5
      vertex 2.35114 -3.23607 20
      vertex 2.35114 -3.23607 2.5
    endloop
  endfacet
  facet normal -0.45399 -0.891007 -1.34107e-08
    outer loop
      vertex -2.35114 -3.23607 20
      vertex -1.5 -3.66975 16.2188
      vertex -1.23607 -3.80423 20
    endloop
  endfacet
  facet normal -0.45399 -0.891007 0
    outer loop
      vertex -2.35114 -3.23607 2.5
      vertex -1.5 -3.66975 16.2188
      vertex -2.35114 -3.23607 20
    endloop
  endfacet
  facet normal -0.45399 -0.891007 -0
    outer loop
      vertex -1.5 -3.66975 16.2188
      vertex -2.35114 -3.23607 2.5
      vertex -1.5 -3.66975 2.5
    endloop
  endfacet
  facet normal -0.453991 -0.891006 -0
    outer loop
      vertex -1.23607 -3.80423 20
      vertex -1.5 -3.66975 16.2188
      vertex -1.23607 -3.80423 16.1975
    endloop
  endfacet
  facet normal -0.891007 -0.45399 0
    outer loop
      vertex -3.23607 -2.35114 2.5
      vertex -3.80423 -1.23607 20
      vertex -3.80423 -1.23607 2.5
    endloop
  endfacet
  facet normal -0.891007 -0.45399 0
    outer loop
      vertex -3.80423 -1.23607 20
      vertex -3.23607 -2.35114 2.5
      vertex -3.23607 -2.35114 20
    endloop
  endfacet
  facet normal 0.45399 -0.891007 -1.55513e-08
    outer loop
      vertex 1.23607 -3.80423 20
      vertex 1.5 -3.66975 16.2188
      vertex 2.35114 -3.23607 20
    endloop
  endfacet
  facet normal 0.453991 -0.891006 0
    outer loop
      vertex 1.5 -3.66975 16.2188
      vertex 1.23607 -3.80423 20
      vertex 1.23607 -3.80423 16.1975
    endloop
  endfacet
  facet normal 0.45399 -0.891007 3.50459e-08
    outer loop
      vertex 1.5 -3.66975 13.1303
      vertex 2.35114 -3.23607 20
      vertex 1.5 -3.66975 16.2188
    endloop
  endfacet
  facet normal 0.453991 -0.891006 5.47183e-09
    outer loop
      vertex 2.35114 -3.23607 2.5
      vertex 1.5 -3.66975 13.1303
      vertex 1.5 -3.66975 2.5
    endloop
  endfacet
  facet normal 0.453991 -0.891007 0
    outer loop
      vertex 1.5 -3.66975 13.1303
      vertex 2.35114 -3.23607 2.5
      vertex 2.35114 -3.23607 20
    endloop
  endfacet
  facet normal -0.987688 -0.156435 0
    outer loop
      vertex 2.1 0 2.5
      vertex 1.99722 0.648935 20
      vertex 1.99722 0.648935 2.5
    endloop
  endfacet
  facet normal -0.987688 -0.156435 0
    outer loop
      vertex 1.99722 0.648935 20
      vertex 2.1 0 2.5
      vertex 2.1 0 20
    endloop
  endfacet
  facet normal 0.987688 -0.156435 0
    outer loop
      vertex -2.1 0 20
      vertex -1.99722 0.648935 2.5
      vertex -1.99722 0.648935 20
    endloop
  endfacet
  facet normal 0.987688 -0.156435 0
    outer loop
      vertex -1.99722 0.648935 2.5
      vertex -2.1 0 20
      vertex -2.1 0 2.5
    endloop
  endfacet
  facet normal -0.156435 -0.987688 0
    outer loop
      vertex 0 2.1 2.5
      vertex 0.648935 1.99722 20
      vertex 0 2.1 20
    endloop
  endfacet
  facet normal -0.156435 -0.987688 -0
    outer loop
      vertex 0.648935 1.99722 20
      vertex 0 2.1 2.5
      vertex 0.648935 1.99722 2.5
    endloop
  endfacet
  facet normal -0.707107 -0.707107 0
    outer loop
      vertex 1.69894 1.23435 2.5
      vertex 1.23435 1.69894 20
      vertex 1.23435 1.69894 2.5
    endloop
  endfacet
  facet normal -0.707107 -0.707107 0
    outer loop
      vertex 1.23435 1.69894 20
      vertex 1.69894 1.23435 2.5
      vertex 1.69894 1.23435 20
    endloop
  endfacet
  facet normal -0.891007 -0.45399 0
    outer loop
      vertex 1.99722 0.648935 2.5
      vertex 1.69894 1.23435 20
      vertex 1.69894 1.23435 2.5
    endloop
  endfacet
  facet normal -0.891007 -0.45399 0
    outer loop
      vertex 1.69894 1.23435 20
      vertex 1.99722 0.648935 2.5
      vertex 1.99722 0.648935 20
    endloop
  endfacet
  facet normal -0.45399 -0.891007 0
    outer loop
      vertex 0.648935 1.99722 2.5
      vertex 1.23435 1.69894 20
      vertex 0.648935 1.99722 20
    endloop
  endfacet
  facet normal -0.45399 -0.891007 -0
    outer loop
      vertex 1.23435 1.69894 20
      vertex 0.648935 1.99722 2.5
      vertex 1.23435 1.69894 2.5
    endloop
  endfacet
  facet normal 0.45399 -0.891007 0
    outer loop
      vertex -1.23435 1.69894 2.5
      vertex -0.648935 1.99722 20
      vertex -1.23435 1.69894 20
    endloop
  endfacet
  facet normal 0.45399 -0.891007 0
    outer loop
      vertex -0.648935 1.99722 20
      vertex -1.23435 1.69894 2.5
      vertex -0.648935 1.99722 2.5
    endloop
  endfacet
  facet normal 0.707107 -0.707107 0
    outer loop
      vertex -1.69894 1.23435 20
      vertex -1.23435 1.69894 2.5
      vertex -1.23435 1.69894 20
    endloop
  endfacet
  facet normal 0.707107 -0.707107 0
    outer loop
      vertex -1.23435 1.69894 2.5
      vertex -1.69894 1.23435 20
      vertex -1.69894 1.23435 2.5
    endloop
  endfacet
  facet normal 0.156435 -0.987688 0
    outer loop
      vertex -0.648935 1.99722 2.5
      vertex 0 2.1 20
      vertex -0.648935 1.99722 20
    endloop
  endfacet
  facet normal 0.156435 -0.987688 0
    outer loop
      vertex 0 2.1 20
      vertex -0.648935 1.99722 2.5
      vertex 0 2.1 2.5
    endloop
  endfacet
  facet normal -0.891007 0.45399 0
    outer loop
      vertex 1.69894 -1.23435 2.5
      vertex 1.99722 -0.648935 20
      vertex 1.99722 -0.648935 2.5
    endloop
  endfacet
  facet normal -0.891007 0.45399 0
    outer loop
      vertex 1.99722 -0.648935 20
      vertex 1.69894 -1.23435 2.5
      vertex 1.69894 -1.23435 20
    endloop
  endfacet
  facet normal 0.707107 0.707107 0
    outer loop
      vertex -1.23435 -1.69894 20
      vertex -1.69894 -1.23435 2.5
      vertex -1.69894 -1.23435 20
    endloop
  endfacet
  facet normal 0.707107 0.707107 0
    outer loop
      vertex -1.69894 -1.23435 2.5
      vertex -1.23435 -1.69894 20
      vertex -1.23435 -1.69894 2.5
    endloop
  endfacet
  facet normal 0.987688 0.156435 0
    outer loop
      vertex -1.99722 -0.648935 20
      vertex -2.1 0 2.5
      vertex -2.1 0 20
    endloop
  endfacet
  facet normal 0.987688 0.156435 0
    outer loop
      vertex -2.1 0 2.5
      vertex -1.99722 -0.648935 20
      vertex -1.99722 -0.648935 2.5
    endloop
  endfacet
  facet normal 0.891007 -0.45399 0
    outer loop
      vertex -1.99722 0.648935 20
      vertex -1.69894 1.23435 2.5
      vertex -1.69894 1.23435 20
    endloop
  endfacet
  facet normal 0.891007 -0.45399 0
    outer loop
      vertex -1.69894 1.23435 2.5
      vertex -1.99722 0.648935 20
      vertex -1.99722 0.648935 2.5
    endloop
  endfacet
  facet normal -0.987688 0.156435 0
    outer loop
      vertex 1.99722 -0.648935 2.5
      vertex 2.1 0 20
      vertex 2.1 0 2.5
    endloop
  endfacet
  facet normal -0.987688 0.156435 0
    outer loop
      vertex 2.1 0 20
      vertex 1.99722 -0.648935 2.5
      vertex 1.99722 -0.648935 20
    endloop
  endfacet
  facet normal -0.156435 0.987688 0
    outer loop
      vertex 0.648935 -1.99722 2.5
      vertex 0 -2.1 20
      vertex 0.648935 -1.99722 20
    endloop
  endfacet
  facet normal -0.156435 0.987688 0
    outer loop
      vertex 0 -2.1 20
      vertex 0.648935 -1.99722 2.5
      vertex 0 -2.1 2.5
    endloop
  endfacet
  facet normal -0.707107 0.707107 0
    outer loop
      vertex 1.23435 -1.69894 2.5
      vertex 1.69894 -1.23435 20
      vertex 1.69894 -1.23435 2.5
    endloop
  endfacet
  facet normal -0.707107 0.707107 0
    outer loop
      vertex 1.69894 -1.23435 20
      vertex 1.23435 -1.69894 2.5
      vertex 1.23435 -1.69894 20
    endloop
  endfacet
  facet normal 0.45399 0.891007 -0
    outer loop
      vertex -0.648935 -1.99722 2.5
      vertex -1.23435 -1.69894 20
      vertex -0.648935 -1.99722 20
    endloop
  endfacet
  facet normal 0.45399 0.891007 0
    outer loop
      vertex -1.23435 -1.69894 20
      vertex -0.648935 -1.99722 2.5
      vertex -1.23435 -1.69894 2.5
    endloop
  endfacet
  facet normal 0.891007 0.45399 0
    outer loop
      vertex -1.69894 -1.23435 20
      vertex -1.99722 -0.648935 2.5
      vertex -1.99722 -0.648935 20
    endloop
  endfacet
  facet normal 0.891007 0.45399 0
    outer loop
      vertex -1.99722 -0.648935 2.5
      vertex -1.69894 -1.23435 20
      vertex -1.69894 -1.23435 2.5
    endloop
  endfacet
  facet normal -0.45399 0.891007 0
    outer loop
      vertex 1.23435 -1.69894 2.5
      vertex 0.648935 -1.99722 20
      vertex 1.23435 -1.69894 20
    endloop
  endfacet
  facet normal -0.45399 0.891007 0
    outer loop
      vertex 0.648935 -1.99722 20
      vertex 1.23435 -1.69894 2.5
      vertex 0.648935 -1.99722 2.5
    endloop
  endfacet
  facet normal 0.156435 0.987688 -0
    outer loop
      vertex 0 -2.1 2.5
      vertex -0.648935 -1.99722 20
      vertex 0 -2.1 20
    endloop
  endfacet
  facet normal 0.156435 0.987688 0
    outer loop
      vertex -0.648935 -1.99722 20
      vertex 0 -2.1 2.5
      vertex -0.648935 -1.99722 2.5
    endloop
  endfacet
  facet normal -1 0 0
    outer loop
      vertex -3.7 -19.2 0
      vertex -3.7 -3.28401 2.5
      vertex -3.7 -3.28401 0
    endloop
  endfacet
  facet normal -1 -0 0
    outer loop
      vertex -3.7 -3.28401 2.5
      vertex -3.7 -19.2 0
      vertex -3.7 -19.2 2.5
    endloop
  endfacet
  facet normal -1 0 0
    outer loop
      vertex -3.7 3.28401 0
      vertex -3.7 19.2 2.5
      vertex -3.7 19.2 0
    endloop
  endfacet
  facet normal -1 -0 0
    outer loop
      vertex -3.7 19.2 2.5
      vertex -3.7 3.28401 0
      vertex -3.7 3.28401 2.5
    endloop
  endfacet
  facet normal 0 0 1
    outer loop
      vertex 1.25 19.2 2.5
      vertex 3.7 19.2 2.5
      vertex 3.51891 20.3434 2.5
    endloop
  endfacet
  facet normal 0 0 1
    outer loop
      vertex 4 0 2.5
      vertex 5 0 2.5
      vertex 4.75528 1.54508 2.5
    endloop
  endfacet
  facet normal 0 0 1
    outer loop
      vertex 3.80423 1.23607 2.5
      vertex 4.75528 1.54508 2.5
      vertex 4.04508 2.93893 2.5
    endloop
  endfacet
  facet normal 0 0 1
    outer loop
      vertex 5 0 2.5
      vertex 4 0 2.5
      vertex 4.75528 -1.54508 2.5
    endloop
  endfacet
  facet normal -0 0 1
    outer loop
      vertex 3.80423 -1.23607 2.5
      vertex 4.75528 -1.54508 2.5
      vertex 4 0 2.5
    endloop
  endfacet
  facet normal 0 0 1
    outer loop
      vertex 4.75528 1.54508 2.5
      vertex 3.80423 1.23607 2.5
      vertex 4 0 2.5
    endloop
  endfacet
  facet normal 0 0 1
    outer loop
      vertex 3.23607 2.35114 2.5
      vertex 4.04508 2.93893 2.5
      vertex 3.7 3.28401 2.5
    endloop
  endfacet
  facet normal 0 0 1
    outer loop
      vertex 4.04508 2.93893 2.5
      vertex 3.23607 2.35114 2.5
      vertex 3.80423 1.23607 2.5
    endloop
  endfacet
  facet normal 0 0 1
    outer loop
      vertex 3.7 19.2 2.5
      vertex 1.5 14.3 2.5
      vertex 3.7 3.28401 2.5
    endloop
  endfacet
  facet normal 0 0 1
    outer loop
      vertex 1.18882 19.5863 2.5
      vertex 3.51891 20.3434 2.5
      vertex 2.99336 21.3748 2.5
    endloop
  endfacet
  facet normal -0 0 1
    outer loop
      vertex 1.5 3.66975 2.5
      vertex 3.7 3.28401 2.5
      vertex 1.5 14.3 2.5
    endloop
  endfacet
  facet normal 0 0 1
    outer loop
      vertex 1.01127 19.9347 2.5
      vertex 2.99336 21.3748 2.5
      vertex 2.1748 22.1934 2.5
    endloop
  endfacet
  facet normal 0 0 1
    outer loop
      vertex 3.7 19.2 2.5
      vertex 1.5 15.5262 2.5
      vertex 1.5 14.9836 2.5
    endloop
  endfacet
  facet normal 0 0 1
    outer loop
      vertex 3.7 19.2 2.5
      vertex 1.5 14.9836 2.5
      vertex 1.5 14.3 2.5
    endloop
  endfacet
  facet normal 0 0 1
    outer loop
      vertex 3.7 3.28401 2.5
      vertex 2.35114 3.23607 2.5
      vertex 3.23607 2.35114 2.5
    endloop
  endfacet
  facet normal 0 0 1
    outer loop
      vertex 3.7 3.28401 2.5
      vertex 1.5 3.66975 2.5
      vertex 2.35114 3.23607 2.5
    endloop
  endfacet
  facet normal 0 0 1
    outer loop
      vertex 4.75528 -1.54508 2.5
      vertex 3.80423 -1.23607 2.5
      vertex 4.04508 -2.93893 2.5
    endloop
  endfacet
  facet normal -0 0 1
    outer loop
      vertex 3.23607 -2.35114 2.5
      vertex 4.04508 -2.93893 2.5
      vertex 3.80423 -1.23607 2.5
    endloop
  endfacet
  facet normal -0 0 1
    outer loop
      vertex 1.5 -14.3 2.5
      vertex 3.7 -19.2 2.5
      vertex 3.7 -3.28401 2.5
    endloop
  endfacet
  facet normal 0 0 1
    outer loop
      vertex 4.04508 -2.93893 2.5
      vertex 3.23607 -2.35114 2.5
      vertex 3.7 -3.28401 2.5
    endloop
  endfacet
  facet normal -0 0 1
    outer loop
      vertex 2.35114 -3.23607 2.5
      vertex 3.7 -3.28401 2.5
      vertex 3.23607 -2.35114 2.5
    endloop
  endfacet
  facet normal -0 0 1
    outer loop
      vertex 1.5 -14.9836 2.5
      vertex 3.7 -19.2 2.5
      vertex 1.5 -14.3 2.5
    endloop
  endfacet
  facet normal 0 0 1
    outer loop
      vertex 1.5 -3.66975 2.5
      vertex 3.7 -3.28401 2.5
      vertex 2.35114 -3.23607 2.5
    endloop
  endfacet
  facet normal -0 0 1
    outer loop
      vertex 1.5 -15.5262 2.5
      vertex 3.7 -19.2 2.5
      vertex 1.5 -14.9836 2.5
    endloop
  endfacet
  facet normal 0 0 1
    outer loop
      vertex 3.7 -3.28401 2.5
      vertex 1.5 -3.66975 2.5
      vertex 1.5 -14.3 2.5
    endloop
  endfacet
  facet normal -0 0 1
    outer loop
      vertex 1.5 -15.9877 2.5
      vertex 3.7 -19.2 2.5
      vertex 1.5 -15.5262 2.5
    endloop
  endfacet
  facet normal -0 0 1
    outer loop
      vertex 1.5 -16.404 2.5
      vertex 3.7 -19.2 2.5
      vertex 1.5 -15.9877 2.5
    endloop
  endfacet
  facet normal -0 0 1
    outer loop
      vertex 1.01127 -18.4653 2.5
      vertex 3.7 -19.2 2.5
      vertex 1.5 -16.404 2.5
    endloop
  endfacet
  facet normal 0 -0 1
    outer loop
      vertex 1.25 -19.2 2.5
      vertex 3.7 -19.2 2.5
      vertex 1.18882 -18.8137 2.5
    endloop
  endfacet
  facet normal 0 0 1
    outer loop
      vertex 3.7 -19.2 2.5
      vertex 1.25 -19.2 2.5
      vertex 3.51891 -20.3434 2.5
    endloop
  endfacet
  facet normal 0 0 1
    outer loop
      vertex 3.51891 -20.3434 2.5
      vertex 1.18882 -19.5863 2.5
      vertex 2.99336 -21.3748 2.5
    endloop
  endfacet
  facet normal -0 0 1
    outer loop
      vertex 1.01127 -19.9347 2.5
      vertex 2.99336 -21.3748 2.5
      vertex 1.18882 -19.5863 2.5
    endloop
  endfacet
  facet normal 0 0 1
    outer loop
      vertex 2.99336 -21.3748 2.5
      vertex 1.01127 -19.9347 2.5
      vertex 2.1748 -22.1934 2.5
    endloop
  endfacet
  facet normal -0 0 1
    outer loop
      vertex 0.734731 -20.2113 2.5
      vertex 2.1748 -22.1934 2.5
      vertex 1.01127 -19.9347 2.5
    endloop
  endfacet
  facet normal 0 0 1
    outer loop
      vertex 2.1748 -22.1934 2.5
      vertex 0.734731 -20.2113 2.5
      vertex 1.14336 -22.7189 2.5
    endloop
  endfacet
  facet normal -0 0 1
    outer loop
      vertex 0.386271 -20.3888 2.5
      vertex 1.14336 -22.7189 2.5
      vertex 0.734731 -20.2113 2.5
    endloop
  endfacet
  facet normal -0 0 1
    outer loop
      vertex 0 -20.45 2.5
      vertex 1.14336 -22.7189 2.5
      vertex 0.386271 -20.3888 2.5
    endloop
  endfacet
  facet normal 0 0 1
    outer loop
      vertex 0 -20.45 2.5
      vertex 0 -22.9 2.5
      vertex 1.14336 -22.7189 2.5
    endloop
  endfacet
  facet normal 0 0 1
    outer loop
      vertex -0.386271 -20.3888 2.5
      vertex 0 -22.9 2.5
      vertex 0 -20.45 2.5
    endloop
  endfacet
  facet normal 0 0 1
    outer loop
      vertex -1.14336 -22.7189 2.5
      vertex -0.386271 -20.3888 2.5
      vertex -0.734731 -20.2113 2.5
    endloop
  endfacet
  facet normal 0 0 1
    outer loop
      vertex -2.1748 -22.1934 2.5
      vertex -0.734731 -20.2113 2.5
      vertex -1.01127 -19.9347 2.5
    endloop
  endfacet
  facet normal 0 0 1
    outer loop
      vertex -0.386271 -20.3888 2.5
      vertex -1.14336 -22.7189 2.5
      vertex 0 -22.9 2.5
    endloop
  endfacet
  facet normal 0 0 1
    outer loop
      vertex -2.99336 -21.3748 2.5
      vertex -1.01127 -19.9347 2.5
      vertex -1.18882 -19.5863 2.5
    endloop
  endfacet
  facet normal 0 0 1
    outer loop
      vertex -3.51891 -20.3434 2.5
      vertex -1.18882 -19.5863 2.5
      vertex -1.25 -19.2 2.5
    endloop
  endfacet
  facet normal 0 0 1
    outer loop
      vertex -1.18882 -18.8137 2.5
      vertex -3.7 -19.2 2.5
      vertex -1.25 -19.2 2.5
    endloop
  endfacet
  facet normal 0 0 1
    outer loop
      vertex -0.734731 -20.2113 2.5
      vertex -2.1748 -22.1934 2.5
      vertex -1.14336 -22.7189 2.5
    endloop
  endfacet
  facet normal 0 0 1
    outer loop
      vertex -3.7 -3.28401 2.5
      vertex -1.5 -16.404 2.5
      vertex -1.5 -3.66975 2.5
    endloop
  endfacet
  facet normal -0 0 1
    outer loop
      vertex -3.7 -3.28401 2.5
      vertex -1.5 -3.66975 2.5
      vertex -2.35114 -3.23607 2.5
    endloop
  endfacet
  facet normal 0 0 1
    outer loop
      vertex -1.25 -19.2 2.5
      vertex -3.7 -19.2 2.5
      vertex -3.51891 -20.3434 2.5
    endloop
  endfacet
  facet normal 0 0 1
    outer loop
      vertex -3.7 -3.28401 2.5
      vertex -2.35114 -3.23607 2.5
      vertex -3.23607 -2.35114 2.5
    endloop
  endfacet
  facet normal 0 0 1
    outer loop
      vertex -1.01127 -19.9347 2.5
      vertex -2.99336 -21.3748 2.5
      vertex -2.1748 -22.1934 2.5
    endloop
  endfacet
  facet normal 0 0 1
    outer loop
      vertex -1.5 -16.404 2.5
      vertex -3.7 -3.28401 2.5
      vertex -3.7 -19.2 2.5
    endloop
  endfacet
  facet normal 0 0 1
    outer loop
      vertex -4.04508 -2.93893 2.5
      vertex -3.23607 -2.35114 2.5
      vertex -3.80423 -1.23607 2.5
    endloop
  endfacet
  facet normal 0 0 1
    outer loop
      vertex -4.75528 -1.54508 2.5
      vertex -3.80423 -1.23607 2.5
      vertex -4 0 2.5
    endloop
  endfacet
  facet normal 0 0 1
    outer loop
      vertex -3.23607 -2.35114 2.5
      vertex -4.04508 -2.93893 2.5
      vertex -3.7 -3.28401 2.5
    endloop
  endfacet
  facet normal 0 0 1
    outer loop
      vertex -3.80423 1.23607 2.5
      vertex -4.75528 1.54508 2.5
      vertex -4 0 2.5
    endloop
  endfacet
  facet normal 0 0 1
    outer loop
      vertex -5 0 2.5
      vertex -4 0 2.5
      vertex -4.75528 1.54508 2.5
    endloop
  endfacet
  facet normal 0 0 1
    outer loop
      vertex -3.80423 -1.23607 2.5
      vertex -4.75528 -1.54508 2.5
      vertex -4.04508 -2.93893 2.5
    endloop
  endfacet
  facet normal 0 0 1
    outer loop
      vertex -4 0 2.5
      vertex -5 0 2.5
      vertex -4.75528 -1.54508 2.5
    endloop
  endfacet
  facet normal 0 0 1
    outer loop
      vertex -1.18882 -19.5863 2.5
      vertex -3.51891 -20.3434 2.5
      vertex -2.99336 -21.3748 2.5
    endloop
  endfacet
  facet normal -0 0 1
    outer loop
      vertex 1.18882 -19.5863 2.5
      vertex 3.51891 -20.3434 2.5
      vertex 1.25 -19.2 2.5
    endloop
  endfacet
  facet normal 0 0 1
    outer loop
      vertex 3.7 -19.2 2.5
      vertex 1.01127 -18.4653 2.5
      vertex 1.18882 -18.8137 2.5
    endloop
  endfacet
  facet normal 0 0 1
    outer loop
      vertex 1.5 -16.404 2.5
      vertex 0.734731 -18.1887 2.5
      vertex 1.01127 -18.4653 2.5
    endloop
  endfacet
  facet normal 0 0 1
    outer loop
      vertex 1.5 -16.404 2.5
      vertex 0.386271 -18.0112 2.5
      vertex 0.734731 -18.1887 2.5
    endloop
  endfacet
  facet normal 0 0 1
    outer loop
      vertex 1.5 -16.404 2.5
      vertex 0 -17.95 2.5
      vertex 0.386271 -18.0112 2.5
    endloop
  endfacet
  facet normal -0 0 1
    outer loop
      vertex -1.5 -16.404 2.5
      vertex 0 -17.95 2.5
      vertex 1.5 -16.404 2.5
    endloop
  endfacet
  facet normal 0 0 1
    outer loop
      vertex 0 -17.95 2.5
      vertex -1.5 -16.404 2.5
      vertex -0.386271 -18.0112 2.5
    endloop
  endfacet
  facet normal 0 0 1
    outer loop
      vertex -1.01127 -18.4653 2.5
      vertex -3.7 -19.2 2.5
      vertex -1.18882 -18.8137 2.5
    endloop
  endfacet
  facet normal 0 0 1
    outer loop
      vertex -3.7 -19.2 2.5
      vertex -1.01127 -18.4653 2.5
      vertex -1.5 -16.404 2.5
    endloop
  endfacet
  facet normal 0 0 1
    outer loop
      vertex -0.734731 -18.1887 2.5
      vertex -1.5 -16.404 2.5
      vertex -1.01127 -18.4653 2.5
    endloop
  endfacet
  facet normal 0 0 1
    outer loop
      vertex -0.386271 -18.0112 2.5
      vertex -1.5 -16.404 2.5
      vertex -0.734731 -18.1887 2.5
    endloop
  endfacet
  facet normal 0 0 1
    outer loop
      vertex 3.7 19.2 2.5
      vertex 1.5 15.9877 2.5
      vertex 1.5 15.5262 2.5
    endloop
  endfacet
  facet normal 0 0 1
    outer loop
      vertex 3.7 19.2 2.5
      vertex 1.5 16.404 2.5
      vertex 1.5 15.9877 2.5
    endloop
  endfacet
  facet normal 0 0 1
    outer loop
      vertex 3.7 19.2 2.5
      vertex 1.25 19.2 2.5
      vertex 1.18882 18.8137 2.5
    endloop
  endfacet
  facet normal 0 0 1
    outer loop
      vertex 3.51891 20.3434 2.5
      vertex 1.18882 19.5863 2.5
      vertex 1.25 19.2 2.5
    endloop
  endfacet
  facet normal 0 0 1
    outer loop
      vertex 0.734731 20.2113 2.5
      vertex 2.1748 22.1934 2.5
      vertex 1.14336 22.7189 2.5
    endloop
  endfacet
  facet normal 0 0 1
    outer loop
      vertex 2.99336 21.3748 2.5
      vertex 1.01127 19.9347 2.5
      vertex 1.18882 19.5863 2.5
    endloop
  endfacet
  facet normal 0 0 1
    outer loop
      vertex 2.1748 22.1934 2.5
      vertex 0.734731 20.2113 2.5
      vertex 1.01127 19.9347 2.5
    endloop
  endfacet
  facet normal 0 0 1
    outer loop
      vertex 1.14336 22.7189 2.5
      vertex 0.386271 20.3888 2.5
      vertex 0.734731 20.2113 2.5
    endloop
  endfacet
  facet normal 0 0 1
    outer loop
      vertex 0 22.9 2.5
      vertex 0.386271 20.3888 2.5
      vertex 1.14336 22.7189 2.5
    endloop
  endfacet
  facet normal 0 0 1
    outer loop
      vertex 0 22.9 2.5
      vertex 0 20.45 2.5
      vertex 0.386271 20.3888 2.5
    endloop
  endfacet
  facet normal 0 0 1
    outer loop
      vertex 0 22.9 2.5
      vertex -0.386271 20.3888 2.5
      vertex 0 20.45 2.5
    endloop
  endfacet
  facet normal -0 0 1
    outer loop
      vertex -1.14336 22.7189 2.5
      vertex -0.386271 20.3888 2.5
      vertex 0 22.9 2.5
    endloop
  endfacet
  facet normal 0 0 1
    outer loop
      vertex -0.386271 20.3888 2.5
      vertex -1.14336 22.7189 2.5
      vertex -0.734731 20.2113 2.5
    endloop
  endfacet
  facet normal -0 0 1
    outer loop
      vertex -2.1748 22.1934 2.5
      vertex -0.734731 20.2113 2.5
      vertex -1.14336 22.7189 2.5
    endloop
  endfacet
  facet normal 0 0 1
    outer loop
      vertex -0.734731 20.2113 2.5
      vertex -2.1748 22.1934 2.5
      vertex -1.01127 19.9347 2.5
    endloop
  endfacet
  facet normal -0 0 1
    outer loop
      vertex -2.99336 21.3748 2.5
      vertex -1.01127 19.9347 2.5
      vertex -2.1748 22.1934 2.5
    endloop
  endfacet
  facet normal 0 0 1
    outer loop
      vertex -1.01127 19.9347 2.5
      vertex -2.99336 21.3748 2.5
      vertex -1.18882 19.5863 2.5
    endloop
  endfacet
  facet normal -0 0 1
    outer loop
      vertex -3.51891 20.3434 2.5
      vertex -1.18882 19.5863 2.5
      vertex -2.99336 21.3748 2.5
    endloop
  endfacet
  facet normal 0 0 1
    outer loop
      vertex -1.18882 19.5863 2.5
      vertex -3.51891 20.3434 2.5
      vertex -1.25 19.2 2.5
    endloop
  endfacet
  facet normal 0 0 1
    outer loop
      vertex -3.7 3.28401 2.5
      vertex -1.5 16.404 2.5
      vertex -3.7 19.2 2.5
    endloop
  endfacet
  facet normal 0 0 1
    outer loop
      vertex -3.7 19.2 2.5
      vertex -1.25 19.2 2.5
      vertex -3.51891 20.3434 2.5
    endloop
  endfacet
  facet normal 0 0 1
    outer loop
      vertex -1.5 16.404 2.5
      vertex -3.7 3.28401 2.5
      vertex -1.5 3.66975 2.5
    endloop
  endfacet
  facet normal 0 0 1
    outer loop
      vertex -1.25 19.2 2.5
      vertex -3.7 19.2 2.5
      vertex -1.5 16.404 2.5
    endloop
  endfacet
  facet normal 0 0 1
    outer loop
      vertex -1.5 3.66975 2.5
      vertex -3.7 3.28401 2.5
      vertex -2.35114 3.23607 2.5
    endloop
  endfacet
  facet normal 0 0 1
    outer loop
      vertex -2.35114 3.23607 2.5
      vertex -3.7 3.28401 2.5
      vertex -3.23607 2.35114 2.5
    endloop
  endfacet
  facet normal -0 0 1
    outer loop
      vertex -4.04508 2.93893 2.5
      vertex -3.23607 2.35114 2.5
      vertex -3.7 3.28401 2.5
    endloop
  endfacet
  facet normal 0 0 1
    outer loop
      vertex -3.23607 2.35114 2.5
      vertex -4.04508 2.93893 2.5
      vertex -3.80423 1.23607 2.5
    endloop
  endfacet
  facet normal -0 0 1
    outer loop
      vertex -4.75528 1.54508 2.5
      vertex -3.80423 1.23607 2.5
      vertex -4.04508 2.93893 2.5
    endloop
  endfacet
  facet normal 0 0 1
    outer loop
      vertex 1.01127 18.4653 2.5
      vertex 3.7 19.2 2.5
      vertex 1.18882 18.8137 2.5
    endloop
  endfacet
  facet normal 0 0 1
    outer loop
      vertex 3.7 19.2 2.5
      vertex 1.01127 18.4653 2.5
      vertex 1.5 16.404 2.5
    endloop
  endfacet
  facet normal -0 0 1
    outer loop
      vertex 0.734731 18.1887 2.5
      vertex 1.5 16.404 2.5
      vertex 1.01127 18.4653 2.5
    endloop
  endfacet
  facet normal -0 0 1
    outer loop
      vertex 0.386271 18.0112 2.5
      vertex 1.5 16.404 2.5
      vertex 0.734731 18.1887 2.5
    endloop
  endfacet
  facet normal -0 0 1
    outer loop
      vertex 0 17.95 2.5
      vertex 1.5 16.404 2.5
      vertex 0.386271 18.0112 2.5
    endloop
  endfacet
  facet normal 0 0 1
    outer loop
      vertex -1.5 16.404 2.5
      vertex 0 17.95 2.5
      vertex -0.386271 18.0112 2.5
    endloop
  endfacet
  facet normal 0 0 1
    outer loop
      vertex -1.5 16.404 2.5
      vertex -0.386271 18.0112 2.5
      vertex -0.734731 18.1887 2.5
    endloop
  endfacet
  facet normal 0 0 1
    outer loop
      vertex 0 17.95 2.5
      vertex -1.5 16.404 2.5
      vertex 1.5 16.404 2.5
    endloop
  endfacet
  facet normal 0 0 1
    outer loop
      vertex -1.01127 18.4653 2.5
      vertex -1.5 16.404 2.5
      vertex -0.734731 18.1887 2.5
    endloop
  endfacet
  facet normal 0 0 1
    outer loop
      vertex -1.18882 18.8137 2.5
      vertex -1.5 16.404 2.5
      vertex -1.01127 18.4653 2.5
    endloop
  endfacet
  facet normal 0 0 1
    outer loop
      vertex -1.5 16.404 2.5
      vertex -1.18882 18.8137 2.5
      vertex -1.25 19.2 2.5
    endloop
  endfacet
  facet normal 0 0 1
    outer loop
      vertex 1.99722 0.648935 2.5
      vertex 1.99722 -0.648935 2.5
      vertex 2.1 0 2.5
    endloop
  endfacet
  facet normal 0 0 1
    outer loop
      vertex 1.69894 1.23435 2.5
      vertex 1.99722 -0.648935 2.5
      vertex 1.99722 0.648935 2.5
    endloop
  endfacet
  facet normal 0 0 1
    outer loop
      vertex 1.69894 1.23435 2.5
      vertex 1.69894 -1.23435 2.5
      vertex 1.99722 -0.648935 2.5
    endloop
  endfacet
  facet normal 0 0 1
    outer loop
      vertex 1.23435 1.69894 2.5
      vertex 1.69894 -1.23435 2.5
      vertex 1.69894 1.23435 2.5
    endloop
  endfacet
  facet normal 0 0 1
    outer loop
      vertex 1.23435 1.69894 2.5
      vertex 1.23435 -1.69894 2.5
      vertex 1.69894 -1.23435 2.5
    endloop
  endfacet
  facet normal 0 0 1
    outer loop
      vertex 0.648935 1.99722 2.5
      vertex 1.23435 -1.69894 2.5
      vertex 1.23435 1.69894 2.5
    endloop
  endfacet
  facet normal 0 0 1
    outer loop
      vertex 0.648935 1.99722 2.5
      vertex 0.648935 -1.99722 2.5
      vertex 1.23435 -1.69894 2.5
    endloop
  endfacet
  facet normal 0 0 1
    outer loop
      vertex 0 2.1 2.5
      vertex 0.648935 -1.99722 2.5
      vertex 0.648935 1.99722 2.5
    endloop
  endfacet
  facet normal 0 0 1
    outer loop
      vertex 0 2.1 2.5
      vertex 0 -2.1 2.5
      vertex 0.648935 -1.99722 2.5
    endloop
  endfacet
  facet normal -0 0 1
    outer loop
      vertex -0.648935 1.99722 2.5
      vertex 0 -2.1 2.5
      vertex 0 2.1 2.5
    endloop
  endfacet
  facet normal 0 0 1
    outer loop
      vertex -0.648935 1.99722 2.5
      vertex -0.648935 -1.99722 2.5
      vertex 0 -2.1 2.5
    endloop
  endfacet
  facet normal -0 0 1
    outer loop
      vertex -1.23435 1.69894 2.5
      vertex -0.648935 -1.99722 2.5
      vertex -0.648935 1.99722 2.5
    endloop
  endfacet
  facet normal 0 0 1
    outer loop
      vertex -1.23435 1.69894 2.5
      vertex -1.23435 -1.69894 2.5
      vertex -0.648935 -1.99722 2.5
    endloop
  endfacet
  facet normal -0 0 1
    outer loop
      vertex -1.69894 1.23435 2.5
      vertex -1.23435 -1.69894 2.5
      vertex -1.23435 1.69894 2.5
    endloop
  endfacet
  facet normal 0 0 1
    outer loop
      vertex -1.69894 1.23435 2.5
      vertex -1.69894 -1.23435 2.5
      vertex -1.23435 -1.69894 2.5
    endloop
  endfacet
  facet normal -0 0 1
    outer loop
      vertex -1.99722 0.648935 2.5
      vertex -1.69894 -1.23435 2.5
      vertex -1.69894 1.23435 2.5
    endloop
  endfacet
  facet normal 0 0 1
    outer loop
      vertex -1.99722 0.648935 2.5
      vertex -1.99722 -0.648935 2.5
      vertex -1.69894 -1.23435 2.5
    endloop
  endfacet
  facet normal 0 -0 1
    outer loop
      vertex -1.99722 -0.648935 2.5
      vertex -1.99722 0.648935 2.5
      vertex -2.1 0 2.5
    endloop
  endfacet
  facet normal 1 -0 0
    outer loop
      vertex 3.7 -19.2 2.5
      vertex 3.7 -3.28401 0
      vertex 3.7 -3.28401 2.5
    endloop
  endfacet
  facet normal 1 0 0
    outer loop
      vertex 3.7 -3.28401 0
      vertex 3.7 -19.2 2.5
      vertex 3.7 -19.2 0
    endloop
  endfacet
  facet normal 1 -0 0
    outer loop
      vertex 3.7 3.28401 2.5
      vertex 3.7 19.2 0
      vertex 3.7 19.2 2.5
    endloop
  endfacet
  facet normal 1 0 0
    outer loop
      vertex 3.7 19.2 0
      vertex 3.7 3.28401 2.5
      vertex 3.7 3.28401 0
    endloop
  endfacet
  facet normal 0.987688 0.156435 0
    outer loop
      vertex 3.7 19.2 2.5
      vertex 3.51891 20.3434 0
      vertex 3.51891 20.3434 2.5
    endloop
  endfacet
  facet normal 0.987688 0.156435 0
    outer loop
      vertex 3.51891 20.3434 0
      vertex 3.7 19.2 2.5
      vertex 3.7 19.2 0
    endloop
  endfacet
  facet normal -0.987688 0.156435 0
    outer loop
      vertex -3.7 19.2 0
      vertex -3.51891 20.3434 2.5
      vertex -3.51891 20.3434 0
    endloop
  endfacet
  facet normal -0.987688 0.156435 0
    outer loop
      vertex -3.51891 20.3434 2.5
      vertex -3.7 19.2 0
      vertex -3.7 19.2 2.5
    endloop
  endfacet
  facet normal 0.156435 0.987688 -0
    outer loop
      vertex 1.14336 22.7189 0
      vertex 0 22.9 2.5
      vertex 1.14336 22.7189 2.5
    endloop
  endfacet
  facet normal 0.156435 0.987688 0
    outer loop
      vertex 0 22.9 2.5
      vertex 1.14336 22.7189 0
      vertex 0 22.9 0
    endloop
  endfacet
  facet normal 0.707107 0.707107 0
    outer loop
      vertex 2.99336 21.3748 2.5
      vertex 2.1748 22.1934 0
      vertex 2.1748 22.1934 2.5
    endloop
  endfacet
  facet normal 0.707107 0.707107 0
    outer loop
      vertex 2.1748 22.1934 0
      vertex 2.99336 21.3748 2.5
      vertex 2.99336 21.3748 0
    endloop
  endfacet
  facet normal 0.891007 0.45399 0
    outer loop
      vertex 3.51891 20.3434 2.5
      vertex 2.99336 21.3748 0
      vertex 2.99336 21.3748 2.5
    endloop
  endfacet
  facet normal 0.891007 0.45399 0
    outer loop
      vertex 2.99336 21.3748 0
      vertex 3.51891 20.3434 2.5
      vertex 3.51891 20.3434 0
    endloop
  endfacet
  facet normal -0.156435 0.987688 0
    outer loop
      vertex 0 22.9 0
      vertex -1.14336 22.7189 2.5
      vertex 0 22.9 2.5
    endloop
  endfacet
  facet normal -0.156435 0.987688 0
    outer loop
      vertex -1.14336 22.7189 2.5
      vertex 0 22.9 0
      vertex -1.14336 22.7189 0
    endloop
  endfacet
  facet normal -0.891007 0.45399 0
    outer loop
      vertex -3.51891 20.3434 0
      vertex -2.99336 21.3748 2.5
      vertex -2.99336 21.3748 0
    endloop
  endfacet
  facet normal -0.891007 0.45399 0
    outer loop
      vertex -2.99336 21.3748 2.5
      vertex -3.51891 20.3434 0
      vertex -3.51891 20.3434 2.5
    endloop
  endfacet
  facet normal -0.45399 0.891007 0
    outer loop
      vertex -1.14336 22.7189 0
      vertex -2.1748 22.1934 2.5
      vertex -1.14336 22.7189 2.5
    endloop
  endfacet
  facet normal -0.45399 0.891007 0
    outer loop
      vertex -2.1748 22.1934 2.5
      vertex -1.14336 22.7189 0
      vertex -2.1748 22.1934 0
    endloop
  endfacet
  facet normal 0.45399 0.891007 -0
    outer loop
      vertex 2.1748 22.1934 0
      vertex 1.14336 22.7189 2.5
      vertex 2.1748 22.1934 2.5
    endloop
  endfacet
  facet normal 0.45399 0.891007 0
    outer loop
      vertex 1.14336 22.7189 2.5
      vertex 2.1748 22.1934 0
      vertex 1.14336 22.7189 0
    endloop
  endfacet
  facet normal -0.707107 0.707107 0
    outer loop
      vertex -2.99336 21.3748 0
      vertex -2.1748 22.1934 2.5
      vertex -2.1748 22.1934 0
    endloop
  endfacet
  facet normal -0.707107 0.707107 0
    outer loop
      vertex -2.1748 22.1934 2.5
      vertex -2.99336 21.3748 0
      vertex -2.99336 21.3748 2.5
    endloop
  endfacet
  facet normal 0.891007 -0.45399 0
    outer loop
      vertex 2.99336 -21.3748 2.5
      vertex 3.51891 -20.3434 0
      vertex 3.51891 -20.3434 2.5
    endloop
  endfacet
  facet normal 0.891007 -0.45399 0
    outer loop
      vertex 3.51891 -20.3434 0
      vertex 2.99336 -21.3748 2.5
      vertex 2.99336 -21.3748 0
    endloop
  endfacet
  facet normal -0.707107 -0.707107 0
    outer loop
      vertex -2.1748 -22.1934 0
      vertex -2.99336 -21.3748 2.5
      vertex -2.99336 -21.3748 0
    endloop
  endfacet
  facet normal -0.707107 -0.707107 0
    outer loop
      vertex -2.99336 -21.3748 2.5
      vertex -2.1748 -22.1934 0
      vertex -2.1748 -22.1934 2.5
    endloop
  endfacet
  facet normal -0.987688 -0.156435 0
    outer loop
      vertex -3.51891 -20.3434 0
      vertex -3.7 -19.2 2.5
      vertex -3.7 -19.2 0
    endloop
  endfacet
  facet normal -0.987688 -0.156435 0
    outer loop
      vertex -3.7 -19.2 2.5
      vertex -3.51891 -20.3434 0
      vertex -3.51891 -20.3434 2.5
    endloop
  endfacet
  facet normal 0.987688 -0.156435 0
    outer loop
      vertex 3.51891 -20.3434 2.5
      vertex 3.7 -19.2 0
      vertex 3.7 -19.2 2.5
    endloop
  endfacet
  facet normal 0.987688 -0.156435 0
    outer loop
      vertex 3.7 -19.2 0
      vertex 3.51891 -20.3434 2.5
      vertex 3.51891 -20.3434 0
    endloop
  endfacet
  facet normal 0.156435 -0.987688 0
    outer loop
      vertex 0 -22.9 0
      vertex 1.14336 -22.7189 2.5
      vertex 0 -22.9 2.5
    endloop
  endfacet
  facet normal 0.156435 -0.987688 0
    outer loop
      vertex 1.14336 -22.7189 2.5
      vertex 0 -22.9 0
      vertex 1.14336 -22.7189 0
    endloop
  endfacet
  facet normal 0.707107 -0.707107 0
    outer loop
      vertex 2.1748 -22.1934 2.5
      vertex 2.99336 -21.3748 0
      vertex 2.99336 -21.3748 2.5
    endloop
  endfacet
  facet normal 0.707107 -0.707107 0
    outer loop
      vertex 2.99336 -21.3748 0
      vertex 2.1748 -22.1934 2.5
      vertex 2.1748 -22.1934 0
    endloop
  endfacet
  facet normal -0.45399 -0.891007 0
    outer loop
      vertex -2.1748 -22.1934 0
      vertex -1.14336 -22.7189 2.5
      vertex -2.1748 -22.1934 2.5
    endloop
  endfacet
  facet normal -0.45399 -0.891007 -0
    outer loop
      vertex -1.14336 -22.7189 2.5
      vertex -2.1748 -22.1934 0
      vertex -1.14336 -22.7189 0
    endloop
  endfacet
  facet normal -0.891007 -0.45399 0
    outer loop
      vertex -2.99336 -21.3748 0
      vertex -3.51891 -20.3434 2.5
      vertex -3.51891 -20.3434 0
    endloop
  endfacet
  facet normal -0.891007 -0.45399 0
    outer loop
      vertex -3.51891 -20.3434 2.5
      vertex -2.99336 -21.3748 0
      vertex -2.99336 -21.3748 2.5
    endloop
  endfacet
  facet normal 0.45399 -0.891007 0
    outer loop
      vertex 1.14336 -22.7189 0
      vertex 2.1748 -22.1934 2.5
      vertex 1.14336 -22.7189 2.5
    endloop
  endfacet
  facet normal 0.45399 -0.891007 0
    outer loop
      vertex 2.1748 -22.1934 2.5
      vertex 1.14336 -22.7189 0
      vertex 2.1748 -22.1934 0
    endloop
  endfacet
  facet normal -0.156435 -0.987688 0
    outer loop
      vertex -1.14336 -22.7189 0
      vertex 0 -22.9 2.5
      vertex -1.14336 -22.7189 2.5
    endloop
  endfacet
  facet normal -0.156435 -0.987688 -0
    outer loop
      vertex 0 -22.9 2.5
      vertex -1.14336 -22.7189 0
      vertex 0 -22.9 0
    endloop
  endfacet
  facet normal -0.987688 -0.156437 0
    outer loop
      vertex 1.25 19.2 0
      vertex 1.18882 19.5863 2.5
      vertex 1.18882 19.5863 0
    endloop
  endfacet
  facet normal -0.987688 -0.156437 0
    outer loop
      vertex 1.18882 19.5863 2.5
      vertex 1.25 19.2 0
      vertex 1.25 19.2 2.5
    endloop
  endfacet
  facet normal 0.156437 -0.987688 0
    outer loop
      vertex -0.386271 20.3888 0
      vertex 0 20.45 2.5
      vertex -0.386271 20.3888 2.5
    endloop
  endfacet
  facet normal 0.156437 -0.987688 0
    outer loop
      vertex 0 20.45 2.5
      vertex -0.386271 20.3888 0
      vertex 0 20.45 0
    endloop
  endfacet
  facet normal -0.156432 0.987689 0
    outer loop
      vertex 0.386271 18.0112 0
      vertex 0 17.95 2.5
      vertex 0.386271 18.0112 2.5
    endloop
  endfacet
  facet normal -0.156432 0.987689 0
    outer loop
      vertex 0 17.95 2.5
      vertex 0.386271 18.0112 0
      vertex 0 17.95 0
    endloop
  endfacet
  facet normal -0.453991 0.891006 0
    outer loop
      vertex 0.734731 18.1887 0
      vertex 0.386271 18.0112 2.5
      vertex 0.734731 18.1887 2.5
    endloop
  endfacet
  facet normal -0.453991 0.891006 0
    outer loop
      vertex 0.386271 18.0112 2.5
      vertex 0.734731 18.1887 0
      vertex 0.386271 18.0112 0
    endloop
  endfacet
  facet normal -0.707106 -0.707108 0
    outer loop
      vertex 0.734731 20.2113 0
      vertex 1.01127 19.9347 2.5
      vertex 0.734731 20.2113 2.5
    endloop
  endfacet
  facet normal -0.707106 -0.707108 -0
    outer loop
      vertex 1.01127 19.9347 2.5
      vertex 0.734731 20.2113 0
      vertex 1.01127 19.9347 0
    endloop
  endfacet
  facet normal -0.891007 -0.45399 0
    outer loop
      vertex 1.18882 19.5863 0
      vertex 1.01127 19.9347 2.5
      vertex 1.01127 19.9347 0
    endloop
  endfacet
  facet normal -0.891007 -0.45399 0
    outer loop
      vertex 1.01127 19.9347 2.5
      vertex 1.18882 19.5863 0
      vertex 1.18882 19.5863 2.5
    endloop
  endfacet
  facet normal 0.707106 -0.707108 0
    outer loop
      vertex -1.01127 19.9347 0
      vertex -0.734731 20.2113 2.5
      vertex -1.01127 19.9347 2.5
    endloop
  endfacet
  facet normal 0.707106 -0.707108 0
    outer loop
      vertex -0.734731 20.2113 2.5
      vertex -1.01127 19.9347 0
      vertex -0.734731 20.2113 0
    endloop
  endfacet
  facet normal 0.453994 -0.891005 0
    outer loop
      vertex -0.734731 20.2113 0
      vertex -0.386271 20.3888 2.5
      vertex -0.734731 20.2113 2.5
    endloop
  endfacet
  facet normal 0.453994 -0.891005 0
    outer loop
      vertex -0.386271 20.3888 2.5
      vertex -0.734731 20.2113 0
      vertex -0.386271 20.3888 0
    endloop
  endfacet
  facet normal 0.453991 0.891006 -0
    outer loop
      vertex -0.386271 18.0112 0
      vertex -0.734731 18.1887 2.5
      vertex -0.386271 18.0112 2.5
    endloop
  endfacet
  facet normal 0.453991 0.891006 0
    outer loop
      vertex -0.734731 18.1887 2.5
      vertex -0.386271 18.0112 0
      vertex -0.734731 18.1887 0
    endloop
  endfacet
  facet normal 0.891007 0.45399 0
    outer loop
      vertex -1.01127 18.4653 2.5
      vertex -1.18882 18.8137 0
      vertex -1.18882 18.8137 2.5
    endloop
  endfacet
  facet normal 0.891007 0.45399 0
    outer loop
      vertex -1.18882 18.8137 0
      vertex -1.01127 18.4653 2.5
      vertex -1.01127 18.4653 0
    endloop
  endfacet
  facet normal -0.156437 -0.987688 0
    outer loop
      vertex 0 20.45 0
      vertex 0.386271 20.3888 2.5
      vertex 0 20.45 2.5
    endloop
  endfacet
  facet normal -0.156437 -0.987688 -0
    outer loop
      vertex 0.386271 20.3888 2.5
      vertex 0 20.45 0
      vertex 0.386271 20.3888 0
    endloop
  endfacet
  facet normal -0.453994 -0.891005 0
    outer loop
      vertex 0.386271 20.3888 0
      vertex 0.734731 20.2113 2.5
      vertex 0.386271 20.3888 2.5
    endloop
  endfacet
  facet normal -0.453994 -0.891005 -0
    outer loop
      vertex 0.734731 20.2113 2.5
      vertex 0.386271 20.3888 0
      vertex 0.734731 20.2113 0
    endloop
  endfacet
  facet normal 0.891007 -0.45399 0
    outer loop
      vertex -1.18882 19.5863 2.5
      vertex -1.01127 19.9347 0
      vertex -1.01127 19.9347 2.5
    endloop
  endfacet
  facet normal 0.891007 -0.45399 0
    outer loop
      vertex -1.01127 19.9347 0
      vertex -1.18882 19.5863 2.5
      vertex -1.18882 19.5863 0
    endloop
  endfacet
  facet normal 0.987688 -0.156437 0
    outer loop
      vertex -1.25 19.2 2.5
      vertex -1.18882 19.5863 0
      vertex -1.18882 19.5863 2.5
    endloop
  endfacet
  facet normal 0.987688 -0.156437 0
    outer loop
      vertex -1.18882 19.5863 0
      vertex -1.25 19.2 2.5
      vertex -1.25 19.2 0
    endloop
  endfacet
  facet normal 0.987688 0.156436 0
    outer loop
      vertex -1.18882 18.8137 2.5
      vertex -1.25 19.2 0
      vertex -1.25 19.2 2.5
    endloop
  endfacet
  facet normal 0.987688 0.156436 0
    outer loop
      vertex -1.25 19.2 0
      vertex -1.18882 18.8137 2.5
      vertex -1.18882 18.8137 0
    endloop
  endfacet
  facet normal -0.987688 0.156436 0
    outer loop
      vertex 1.18882 18.8137 0
      vertex 1.25 19.2 2.5
      vertex 1.25 19.2 0
    endloop
  endfacet
  facet normal -0.987688 0.156436 0
    outer loop
      vertex 1.25 19.2 2.5
      vertex 1.18882 18.8137 0
      vertex 1.18882 18.8137 2.5
    endloop
  endfacet
  facet normal -0.707106 0.707108 0
    outer loop
      vertex 1.01127 18.4653 0
      vertex 0.734731 18.1887 2.5
      vertex 1.01127 18.4653 2.5
    endloop
  endfacet
  facet normal -0.707106 0.707108 0
    outer loop
      vertex 0.734731 18.1887 2.5
      vertex 1.01127 18.4653 0
      vertex 0.734731 18.1887 0
    endloop
  endfacet
  facet normal -0.891007 0.45399 0
    outer loop
      vertex 1.01127 18.4653 0
      vertex 1.18882 18.8137 2.5
      vertex 1.18882 18.8137 0
    endloop
  endfacet
  facet normal -0.891007 0.45399 0
    outer loop
      vertex 1.18882 18.8137 2.5
      vertex 1.01127 18.4653 0
      vertex 1.01127 18.4653 2.5
    endloop
  endfacet
  facet normal 0.156432 0.987689 -0
    outer loop
      vertex 0 17.95 0
      vertex -0.386271 18.0112 2.5
      vertex 0 17.95 2.5
    endloop
  endfacet
  facet normal 0.156432 0.987689 0
    outer loop
      vertex -0.386271 18.0112 2.5
      vertex 0 17.95 0
      vertex -0.386271 18.0112 0
    endloop
  endfacet
  facet normal 0.707106 0.707108 -0
    outer loop
      vertex -0.734731 18.1887 0
      vertex -1.01127 18.4653 2.5
      vertex -0.734731 18.1887 2.5
    endloop
  endfacet
  facet normal 0.707106 0.707108 0
    outer loop
      vertex -1.01127 18.4653 2.5
      vertex -0.734731 18.1887 0
      vertex -1.01127 18.4653 0
    endloop
  endfacet
  facet normal -0.987688 -0.156436 0
    outer loop
      vertex 1.25 -19.2 0
      vertex 1.18882 -18.8137 2.5
      vertex 1.18882 -18.8137 0
    endloop
  endfacet
  facet normal -0.987688 -0.156436 0
    outer loop
      vertex 1.18882 -18.8137 2.5
      vertex 1.25 -19.2 0
      vertex 1.25 -19.2 2.5
    endloop
  endfacet
  facet normal 0.987688 -0.156436 0
    outer loop
      vertex -1.25 -19.2 2.5
      vertex -1.18882 -18.8137 0
      vertex -1.18882 -18.8137 2.5
    endloop
  endfacet
  facet normal 0.987688 -0.156436 0
    outer loop
      vertex -1.18882 -18.8137 0
      vertex -1.25 -19.2 2.5
      vertex -1.25 -19.2 0
    endloop
  endfacet
  facet normal 0.156432 -0.987689 0
    outer loop
      vertex -0.386271 -18.0112 0
      vertex 0 -17.95 2.5
      vertex -0.386271 -18.0112 2.5
    endloop
  endfacet
  facet normal 0.156432 -0.987689 0
    outer loop
      vertex 0 -17.95 2.5
      vertex -0.386271 -18.0112 0
      vertex 0 -17.95 0
    endloop
  endfacet
  facet normal -0.707106 -0.707108 0
    outer loop
      vertex 0.734731 -18.1887 0
      vertex 1.01127 -18.4653 2.5
      vertex 0.734731 -18.1887 2.5
    endloop
  endfacet
  facet normal -0.707106 -0.707108 -0
    outer loop
      vertex 1.01127 -18.4653 2.5
      vertex 0.734731 -18.1887 0
      vertex 1.01127 -18.4653 0
    endloop
  endfacet
  facet normal -0.891007 -0.45399 0
    outer loop
      vertex 1.18882 -18.8137 0
      vertex 1.01127 -18.4653 2.5
      vertex 1.01127 -18.4653 0
    endloop
  endfacet
  facet normal -0.891007 -0.45399 0
    outer loop
      vertex 1.01127 -18.4653 2.5
      vertex 1.18882 -18.8137 0
      vertex 1.18882 -18.8137 2.5
    endloop
  endfacet
  facet normal -0.453991 -0.891006 0
    outer loop
      vertex 0.386271 -18.0112 0
      vertex 0.734731 -18.1887 2.5
      vertex 0.386271 -18.0112 2.5
    endloop
  endfacet
  facet normal -0.453991 -0.891006 -0
    outer loop
      vertex 0.734731 -18.1887 2.5
      vertex 0.386271 -18.0112 0
      vertex 0.734731 -18.1887 0
    endloop
  endfacet
  facet normal 0.707106 -0.707108 0
    outer loop
      vertex -1.01127 -18.4653 0
      vertex -0.734731 -18.1887 2.5
      vertex -1.01127 -18.4653 2.5
    endloop
  endfacet
  facet normal 0.707106 -0.707108 0
    outer loop
      vertex -0.734731 -18.1887 2.5
      vertex -1.01127 -18.4653 0
      vertex -0.734731 -18.1887 0
    endloop
  endfacet
  facet normal 0.891007 -0.45399 0
    outer loop
      vertex -1.18882 -18.8137 2.5
      vertex -1.01127 -18.4653 0
      vertex -1.01127 -18.4653 2.5
    endloop
  endfacet
  facet normal 0.891007 -0.45399 0
    outer loop
      vertex -1.01127 -18.4653 0
      vertex -1.18882 -18.8137 2.5
      vertex -1.18882 -18.8137 0
    endloop
  endfacet
  facet normal 0.453991 -0.891006 0
    outer loop
      vertex -0.734731 -18.1887 0
      vertex -0.386271 -18.0112 2.5
      vertex -0.734731 -18.1887 2.5
    endloop
  endfacet
  facet normal 0.453991 -0.891006 0
    outer loop
      vertex -0.386271 -18.0112 2.5
      vertex -0.734731 -18.1887 0
      vertex -0.386271 -18.0112 0
    endloop
  endfacet
  facet normal -0.891007 0.45399 0
    outer loop
      vertex 1.01127 -19.9347 0
      vertex 1.18882 -19.5863 2.5
      vertex 1.18882 -19.5863 0
    endloop
  endfacet
  facet normal -0.891007 0.45399 0
    outer loop
      vertex 1.18882 -19.5863 2.5
      vertex 1.01127 -19.9347 0
      vertex 1.01127 -19.9347 2.5
    endloop
  endfacet
  facet normal 0.707106 0.707108 -0
    outer loop
      vertex -0.734731 -20.2113 0
      vertex -1.01127 -19.9347 2.5
      vertex -0.734731 -20.2113 2.5
    endloop
  endfacet
  facet normal 0.707106 0.707108 0
    outer loop
      vertex -1.01127 -19.9347 2.5
      vertex -0.734731 -20.2113 0
      vertex -1.01127 -19.9347 0
    endloop
  endfacet
  facet normal 0.987688 0.156437 0
    outer loop
      vertex -1.18882 -19.5863 2.5
      vertex -1.25 -19.2 0
      vertex -1.25 -19.2 2.5
    endloop
  endfacet
  facet normal 0.987688 0.156437 0
    outer loop
      vertex -1.25 -19.2 0
      vertex -1.18882 -19.5863 2.5
      vertex -1.18882 -19.5863 0
    endloop
  endfacet
  facet normal -0.156432 -0.987689 0
    outer loop
      vertex 0 -17.95 0
      vertex 0.386271 -18.0112 2.5
      vertex 0 -17.95 2.5
    endloop
  endfacet
  facet normal -0.156432 -0.987689 -0
    outer loop
      vertex 0.386271 -18.0112 2.5
      vertex 0 -17.95 0
      vertex 0.386271 -18.0112 0
    endloop
  endfacet
  facet normal -0.987688 0.156437 0
    outer loop
      vertex 1.18882 -19.5863 0
      vertex 1.25 -19.2 2.5
      vertex 1.25 -19.2 0
    endloop
  endfacet
  facet normal -0.987688 0.156437 0
    outer loop
      vertex 1.25 -19.2 2.5
      vertex 1.18882 -19.5863 0
      vertex 1.18882 -19.5863 2.5
    endloop
  endfacet
  facet normal -0.156437 0.987688 0
    outer loop
      vertex 0.386271 -20.3888 0
      vertex 0 -20.45 2.5
      vertex 0.386271 -20.3888 2.5
    endloop
  endfacet
  facet normal -0.156437 0.987688 0
    outer loop
      vertex 0 -20.45 2.5
      vertex 0.386271 -20.3888 0
      vertex 0 -20.45 0
    endloop
  endfacet
  facet normal -0.707106 0.707108 0
    outer loop
      vertex 1.01127 -19.9347 0
      vertex 0.734731 -20.2113 2.5
      vertex 1.01127 -19.9347 2.5
    endloop
  endfacet
  facet normal -0.707106 0.707108 0
    outer loop
      vertex 0.734731 -20.2113 2.5
      vertex 1.01127 -19.9347 0
      vertex 0.734731 -20.2113 0
    endloop
  endfacet
  facet normal 0.453994 0.891005 -0
    outer loop
      vertex -0.386271 -20.3888 0
      vertex -0.734731 -20.2113 2.5
      vertex -0.386271 -20.3888 2.5
    endloop
  endfacet
  facet normal 0.453994 0.891005 0
    outer loop
      vertex -0.734731 -20.2113 2.5
      vertex -0.386271 -20.3888 0
      vertex -0.734731 -20.2113 0
    endloop
  endfacet
  facet normal 0.891007 0.45399 0
    outer loop
      vertex -1.01127 -19.9347 2.5
      vertex -1.18882 -19.5863 0
      vertex -1.18882 -19.5863 2.5
    endloop
  endfacet
  facet normal 0.891007 0.45399 0
    outer loop
      vertex -1.18882 -19.5863 0
      vertex -1.01127 -19.9347 2.5
      vertex -1.01127 -19.9347 0
    endloop
  endfacet
  facet normal -0.453994 0.891005 0
    outer loop
      vertex 0.734731 -20.2113 0
      vertex 0.386271 -20.3888 2.5
      vertex 0.734731 -20.2113 2.5
    endloop
  endfacet
  facet normal -0.453994 0.891005 0
    outer loop
      vertex 0.386271 -20.3888 2.5
      vertex 0.734731 -20.2113 0
      vertex 0.386271 -20.3888 0
    endloop
  endfacet
  facet normal 0.156437 0.987688 -0
    outer loop
      vertex 0 -20.45 0
      vertex -0.386271 -20.3888 2.5
      vertex 0 -20.45 2.5
    endloop
  endfacet
  facet normal 0.156437 0.987688 0
    outer loop
      vertex -0.386271 -20.3888 2.5
      vertex 0 -20.45 0
      vertex -0.386271 -20.3888 0
    endloop
  endfacet
  facet normal 6.49126e-07 0.156435 0.987688
    outer loop
      vertex 1.5 5.19149 15.9777
      vertex 1.23607 3.80423 16.1975
      vertex 1.5 3.66975 16.2188
    endloop
  endfacet
  facet normal -9.69596e-08 0.156435 0.987688
    outer loop
      vertex 1.5 5.19149 15.9777
      vertex 0 4 16.1665
      vertex 1.23607 3.80423 16.1975
    endloop
  endfacet
  facet normal -0 0.156435 0.987688
    outer loop
      vertex -1.5 5.19149 15.9777
      vertex 0 4 16.1665
      vertex 1.5 5.19149 15.9777
    endloop
  endfacet
  facet normal 9.69596e-08 0.156435 0.987688
    outer loop
      vertex 0 4 16.1665
      vertex -1.5 5.19149 15.9777
      vertex -1.23607 3.80423 16.1975
    endloop
  endfacet
  facet normal -9.06773e-07 0.156435 0.987688
    outer loop
      vertex -1.23607 3.80423 16.1975
      vertex -1.5 5.19149 15.9777
      vertex -1.5 3.66975 16.2188
    endloop
  endfacet
  facet normal -1 0 0
    outer loop
      vertex -1.5 3.66975 2.5
      vertex -1.5 15.9777 5.19149
      vertex -1.5 16.404 2.5
    endloop
  endfacet
  facet normal -1 -0 0
    outer loop
      vertex -1.5 15.9777 5.19149
      vertex -1.5 3.66975 2.5
      vertex -1.5 13.5915 9.87479
    endloop
  endfacet
  facet normal -1 -0 0
    outer loop
      vertex -1.5 13.5915 9.87479
      vertex -1.5 3.66975 2.5
      vertex -1.5 9.87479 13.5915
    endloop
  endfacet
  facet normal -1 -0 0
    outer loop
      vertex -1.5 9.87479 13.5915
      vertex -1.5 3.66975 2.5
      vertex -1.5 5.19149 15.9777
    endloop
  endfacet
  facet normal -1 -0 0
    outer loop
      vertex -1.5 5.19149 15.9777
      vertex -1.5 3.66975 2.5
      vertex -1.5 3.66975 16.2188
    endloop
  endfacet
  facet normal -1 0 0
    outer loop
      vertex -1.5 -3.66975 2.5
      vertex -1.5 -5.19149 15.9777
      vertex -1.5 -3.66975 16.2188
    endloop
  endfacet
  facet normal -1 0 0
    outer loop
      vertex -1.5 -3.66975 2.5
      vertex -1.5 -9.87479 13.5915
      vertex -1.5 -5.19149 15.9777
    endloop
  endfacet
  facet normal -1 0 0
    outer loop
      vertex -1.5 -3.66975 2.5
      vertex -1.5 -13.5915 9.87479
      vertex -1.5 -9.87479 13.5915
    endloop
  endfacet
  facet normal -1 0 0
    outer loop
      vertex -1.5 -3.66975 2.5
      vertex -1.5 -15.9777 5.19149
      vertex -1.5 -13.5915 9.87479
    endloop
  endfacet
  facet normal -1 0 -0
    outer loop
      vertex -1.5 -15.9777 5.19149
      vertex -1.5 -3.66975 2.5
      vertex -1.5 -16.404 2.5
    endloop
  endfacet
  facet normal 0 0.987688 0.156434
    outer loop
      vertex 1.5 16.404 2.5
      vertex -1.5 15.9777 5.19149
      vertex 1.5 15.9777 5.19149
    endloop
  endfacet
  facet normal 0 0.987688 0.156434
    outer loop
      vertex -1.5 15.9777 5.19149
      vertex 1.5 16.404 2.5
      vertex -1.5 16.404 2.5
    endloop
  endfacet
  facet normal 0 -0.987688 0.156434
    outer loop
      vertex -1.5 -16.404 2.5
      vertex 1.5 -15.9777 5.19149
      vertex -1.5 -15.9777 5.19149
    endloop
  endfacet
  facet normal 0 -0.987688 0.156434
    outer loop
      vertex 1.5 -15.9777 5.19149
      vertex -1.5 -16.404 2.5
      vertex 1.5 -16.404 2.5
    endloop
  endfacet
  facet normal 1 0 6.19143e-08
    outer loop
      vertex 1.5 5.19149 15.9777
      vertex 1.5 14.3 2.5
      vertex 1.5 14.9836 2.5
    endloop
  endfacet
  facet normal 1 1.22265e-08 7.71952e-08
    outer loop
      vertex 1.5 3.66975 13.1303
      vertex 1.5 5.19149 15.9777
      vertex 1.5 3.66975 16.2188
    endloop
  endfacet
  facet normal 1 1.80254e-08 7.40962e-08
    outer loop
      vertex 1.5 5.19149 15.9777
      vertex 1.5 3.66975 13.1303
      vertex 1.5 14.3 2.5
    endloop
  endfacet
  facet normal 1 0 5.60708e-08
    outer loop
      vertex 1.5 14.3 2.5
      vertex 1.5 3.66975 13.1303
      vertex 1.5 3.66975 2.5
    endloop
  endfacet
  facet normal 1 0 5.60708e-08
    outer loop
      vertex 1.5 -3.66975 2.5
      vertex 1.5 -3.66975 13.1303
      vertex 1.5 -14.3 2.5
    endloop
  endfacet
  facet normal 1 -1.22265e-08 7.71952e-08
    outer loop
      vertex 1.5 -5.19149 15.9777
      vertex 1.5 -3.66975 13.1303
      vertex 1.5 -3.66975 16.2188
    endloop
  endfacet
  facet normal 1 -1.80254e-08 7.40962e-08
    outer loop
      vertex 1.5 -5.19149 15.9777
      vertex 1.5 -14.3 2.5
      vertex 1.5 -3.66975 13.1303
    endloop
  endfacet
  facet normal 1 0 6.19143e-08
    outer loop
      vertex 1.5 -14.3 2.5
      vertex 1.5 -5.19149 15.9777
      vertex 1.5 -14.9836 2.5
    endloop
  endfacet
  facet normal 1 2.583e-07 1.80913e-07
    outer loop
      vertex 1.5 13.5915 9.87479
      vertex 1.5 15.5262 2.5
      vertex 1.5 15.9877 2.5
    endloop
  endfacet
  facet normal 1 1.53392e-07 1.53392e-07
    outer loop
      vertex 1.5 15.5262 2.5
      vertex 1.5 13.5915 9.87479
      vertex 1.5 9.87479 13.5915
    endloop
  endfacet
  facet normal 1 5.72658e-07 2.67865e-07
    outer loop
      vertex 1.5 15.9777 5.19149
      vertex 1.5 15.9877 2.5
      vertex 1.5 16.404 2.5
    endloop
  endfacet
  facet normal 1 5.25371e-07 2.6769e-07
    outer loop
      vertex 1.5 15.9877 2.5
      vertex 1.5 15.9777 5.19149
      vertex 1.5 13.5915 9.87479
    endloop
  endfacet
  facet normal -0 0.45399 0.891007
    outer loop
      vertex -1.5 9.87479 13.5915
      vertex 1.5 5.19149 15.9777
      vertex 1.5 9.87479 13.5915
    endloop
  endfacet
  facet normal 0 0.45399 0.891007
    outer loop
      vertex 1.5 5.19149 15.9777
      vertex -1.5 9.87479 13.5915
      vertex -1.5 5.19149 15.9777
    endloop
  endfacet
  facet normal 1 -5.00897e-08 9.83066e-08
    outer loop
      vertex 1.5 -9.87479 13.5915
      vertex 1.5 -14.9836 2.5
      vertex 1.5 -5.19149 15.9777
    endloop
  endfacet
  facet normal 1 0 7.52347e-08
    outer loop
      vertex 1.5 -14.9836 2.5
      vertex 1.5 -9.87479 13.5915
      vertex 1.5 -15.5262 2.5
    endloop
  endfacet
  facet normal 6.49126e-07 -0.156435 0.987688
    outer loop
      vertex 1.23607 -3.80423 16.1975
      vertex 1.5 -5.19149 15.9777
      vertex 1.5 -3.66975 16.2188
    endloop
  endfacet
  facet normal -9.69596e-08 -0.156435 0.987688
    outer loop
      vertex 0 -4 16.1665
      vertex 1.5 -5.19149 15.9777
      vertex 1.23607 -3.80423 16.1975
    endloop
  endfacet
  facet normal 9.69596e-08 -0.156435 0.987688
    outer loop
      vertex -1.5 -5.19149 15.9777
      vertex 0 -4 16.1665
      vertex -1.23607 -3.80423 16.1975
    endloop
  endfacet
  facet normal 0 -0.156435 0.987688
    outer loop
      vertex 0 -4 16.1665
      vertex -1.5 -5.19149 15.9777
      vertex 1.5 -5.19149 15.9777
    endloop
  endfacet
  facet normal -9.06773e-07 -0.156435 0.987688
    outer loop
      vertex -1.5 -5.19149 15.9777
      vertex -1.23607 -3.80423 16.1975
      vertex -1.5 -3.66975 16.2188
    endloop
  endfacet
  facet normal 1 -1.53392e-07 1.53392e-07
    outer loop
      vertex 1.5 -13.5915 9.87479
      vertex 1.5 -15.5262 2.5
      vertex 1.5 -9.87479 13.5915
    endloop
  endfacet
  facet normal 1 -2.583e-07 1.80913e-07
    outer loop
      vertex 1.5 -15.5262 2.5
      vertex 1.5 -13.5915 9.87479
      vertex 1.5 -15.9877 2.5
    endloop
  endfacet
  facet normal 0 -0.45399 0.891007
    outer loop
      vertex -1.5 -5.19149 15.9777
      vertex 1.5 -9.87479 13.5915
      vertex 1.5 -5.19149 15.9777
    endloop
  endfacet
  facet normal 0 -0.45399 0.891007
    outer loop
      vertex 1.5 -9.87479 13.5915
      vertex -1.5 -5.19149 15.9777
      vertex -1.5 -9.87479 13.5915
    endloop
  endfacet
  facet normal 1 0 7.52347e-08
    outer loop
      vertex 1.5 9.87479 13.5915
      vertex 1.5 14.9836 2.5
      vertex 1.5 15.5262 2.5
    endloop
  endfacet
  facet normal 1 5.00897e-08 9.83066e-08
    outer loop
      vertex 1.5 14.9836 2.5
      vertex 1.5 9.87479 13.5915
      vertex 1.5 5.19149 15.9777
    endloop
  endfacet
  facet normal 0 0.891007 0.45399
    outer loop
      vertex 1.5 15.9777 5.19149
      vertex -1.5 13.5915 9.87479
      vertex 1.5 13.5915 9.87479
    endloop
  endfacet
  facet normal 0 0.891007 0.45399
    outer loop
      vertex -1.5 13.5915 9.87479
      vertex 1.5 15.9777 5.19149
      vertex -1.5 15.9777 5.19149
    endloop
  endfacet
  facet normal 0 -0.891007 0.45399
    outer loop
      vertex -1.5 -15.9777 5.19149
      vertex 1.5 -13.5915 9.87479
      vertex -1.5 -13.5915 9.87479
    endloop
  endfacet
  facet normal 0 -0.891007 0.45399
    outer loop
      vertex 1.5 -13.5915 9.87479
      vertex -1.5 -15.9777 5.19149
      vertex 1.5 -15.9777 5.19149
    endloop
  endfacet
  facet normal 0 0.707107 0.707107
    outer loop
      vertex 1.5 13.5915 9.87479
      vertex -1.5 9.87479 13.5915
      vertex 1.5 9.87479 13.5915
    endloop
  endfacet
  facet normal 0 0.707107 0.707107
    outer loop
      vertex -1.5 9.87479 13.5915
      vertex 1.5 13.5915 9.87479
      vertex -1.5 13.5915 9.87479
    endloop
  endfacet
  facet normal 1 -5.25371e-07 2.6769e-07
    outer loop
      vertex 1.5 -15.9777 5.19149
      vertex 1.5 -15.9877 2.5
      vertex 1.5 -13.5915 9.87479
    endloop
  endfacet
  facet normal 1 -5.72658e-07 2.67865e-07
    outer loop
      vertex 1.5 -15.9877 2.5
      vertex 1.5 -15.9777 5.19149
      vertex 1.5 -16.404 2.5
    endloop
  endfacet
  facet normal 0 -0.707107 0.707107
    outer loop
      vertex -1.5 -13.5915 9.87479
      vertex 1.5 -9.87479 13.5915
      vertex -1.5 -9.87479 13.5915
    endloop
  endfacet
  facet normal 0 -0.707107 0.707107
    outer loop
      vertex 1.5 -9.87479 13.5915
      vertex -1.5 -13.5915 9.87479
      vertex 1.5 -13.5915 9.87479
    endloop
  endfacet
  facet normal 0.987688 0.156435 0
    outer loop
      vertex 5 0 2.5
      vertex 4.75528 1.54508 0
      vertex 4.75528 1.54508 2.5
    endloop
  endfacet
  facet normal 0.987688 0.156435 0
    outer loop
      vertex 4.75528 1.54508 0
      vertex 5 0 2.5
      vertex 5 0 0
    endloop
  endfacet
  facet normal -0.987688 0.156435 0
    outer loop
      vertex -5 0 0
      vertex -4.75528 1.54508 2.5
      vertex -4.75528 1.54508 0
    endloop
  endfacet
  facet normal -0.987688 0.156435 0
    outer loop
      vertex -4.75528 1.54508 2.5
      vertex -5 0 0
      vertex -5 0 2.5
    endloop
  endfacet
  facet normal 0.707107 0.707107 0
    outer loop
      vertex 4.04508 2.93893 2.5
      vertex 3.7 3.28401 0
      vertex 3.7 3.28401 2.5
    endloop
  endfacet
  facet normal 0.707107 0.707107 0
    outer loop
      vertex 3.7 3.28401 0
      vertex 4.04508 2.93893 2.5
      vertex 4.04508 2.93893 0
    endloop
  endfacet
  facet normal 0.891006 0.453991 0
    outer loop
      vertex 4.75528 1.54508 2.5
      vertex 4.04508 2.93893 0
      vertex 4.04508 2.93893 2.5
    endloop
  endfacet
  facet normal 0.891006 0.453991 0
    outer loop
      vertex 4.04508 2.93893 0
      vertex 4.75528 1.54508 2.5
      vertex 4.75528 1.54508 0
    endloop
  endfacet
  facet normal -0.707107 0.707107 0
    outer loop
      vertex -4.04508 2.93893 0
      vertex -3.7 3.28401 2.5
      vertex -3.7 3.28401 0
    endloop
  endfacet
  facet normal -0.707107 0.707107 0
    outer loop
      vertex -3.7 3.28401 2.5
      vertex -4.04508 2.93893 0
      vertex -4.04508 2.93893 2.5
    endloop
  endfacet
  facet normal 0.891006 -0.453991 0
    outer loop
      vertex 4.04508 -2.93893 2.5
      vertex 4.75528 -1.54508 0
      vertex 4.75528 -1.54508 2.5
    endloop
  endfacet
  facet normal 0.891006 -0.453991 0
    outer loop
      vertex 4.75528 -1.54508 0
      vertex 4.04508 -2.93893 2.5
      vertex 4.04508 -2.93893 0
    endloop
  endfacet
  facet normal -0.707107 -0.707107 0
    outer loop
      vertex -3.7 -3.28401 0
      vertex -4.04508 -2.93893 2.5
      vertex -4.04508 -2.93893 0
    endloop
  endfacet
  facet normal -0.707107 -0.707107 0
    outer loop
      vertex -4.04508 -2.93893 2.5
      vertex -3.7 -3.28401 0
      vertex -3.7 -3.28401 2.5
    endloop
  endfacet
  facet normal -0.987688 -0.156435 0
    outer loop
      vertex -4.75528 -1.54508 0
      vertex -5 0 2.5
      vertex -5 0 0
    endloop
  endfacet
  facet normal -0.987688 -0.156435 0
    outer loop
      vertex -5 0 2.5
      vertex -4.75528 -1.54508 0
      vertex -4.75528 -1.54508 2.5
    endloop
  endfacet
  facet normal -0.891006 0.453991 0
    outer loop
      vertex -4.75528 1.54508 0
      vertex -4.04508 2.93893 2.5
      vertex -4.04508 2.93893 0
    endloop
  endfacet
  facet normal -0.891006 0.453991 0
    outer loop
      vertex -4.04508 2.93893 2.5
      vertex -4.75528 1.54508 0
      vertex -4.75528 1.54508 2.5
    endloop
  endfacet
  facet normal 0.987688 -0.156435 0
    outer loop
      vertex 4.75528 -1.54508 2.5
      vertex 5 0 0
      vertex 5 0 2.5
    endloop
  endfacet
  facet normal 0.987688 -0.156435 0
    outer loop
      vertex 5 0 0
      vertex 4.75528 -1.54508 2.5
      vertex 4.75528 -1.54508 0
    endloop
  endfacet
  facet normal 0.707107 -0.707107 0
    outer loop
      vertex 3.7 -3.28401 2.5
      vertex 4.04508 -2.93893 0
      vertex 4.04508 -2.93893 2.5
    endloop
  endfacet
  facet normal 0.707107 -0.707107 0
    outer loop
      vertex 4.04508 -2.93893 0
      vertex 3.7 -3.28401 2.5
      vertex 3.7 -3.28401 0
    endloop
  endfacet
  facet normal -0.891006 -0.453991 0
    outer loop
      vertex -4.04508 -2.93893 0
      vertex -4.75528 -1.54508 2.5
      vertex -4.75528 -1.54508 0
    endloop
  endfacet
  facet normal -0.891006 -0.453991 0
    outer loop
      vertex -4.75528 -1.54508 2.5
      vertex -4.04508 -2.93893 0
      vertex -4.04508 -2.93893 2.5
    endloop
  endfacet
endsolid OpenSCAD_Model
