G04 Layer: TopSilkscreenLayer*
G04 EasyEDA v6.4.31, 2022-01-25 22:29:22*
G04 e61b6c59d15345b4ac09c8306d02ccd6,8f8899c8ce1b4866aa33813601b7f331,10*
G04 Gerber Generator version 0.2*
G04 Scale: 100 percent, Rotated: No, Reflected: No *
G04 Dimensions in millimeters *
G04 leading zeros omitted , absolute positions ,4 integer and 5 decimal *
%FSLAX45Y45*%
%MOMM*%

%ADD10C,0.2540*%
%ADD27C,0.1778*%
%ADD28C,0.2030*%
%ADD29C,0.2032*%
%ADD30C,0.1270*%
%ADD31C,0.4000*%
%ADD32C,0.1524*%
%ADD33C,0.1422*%

%LPD*%
G36*
X7953400Y2953004D02*
G01*
X7927644Y2952546D01*
X7903972Y2951429D01*
X7893100Y2950616D01*
X7882890Y2949600D01*
X7873492Y2948381D01*
X7864957Y2947009D01*
X7846517Y2943453D01*
X7822184Y2938068D01*
X7792262Y2930448D01*
X7774584Y2925368D01*
X7745475Y2916072D01*
X7722616Y2907944D01*
X7700111Y2899206D01*
X7672527Y2887421D01*
X7645501Y2874721D01*
X7624368Y2863900D01*
X7613954Y2858262D01*
X7588300Y2843580D01*
X7568285Y2831185D01*
X7548727Y2818282D01*
X7529575Y2804820D01*
X7506258Y2787294D01*
X7501184Y2783281D01*
X7945170Y2783281D01*
X7945323Y2801264D01*
X7946085Y2816148D01*
X7947355Y2828188D01*
X7948218Y2833217D01*
X7949285Y2837586D01*
X7950453Y2841294D01*
X7951774Y2844444D01*
X7953248Y2846984D01*
X7954924Y2848965D01*
X7956753Y2850438D01*
X7962290Y2853639D01*
X7967675Y2856128D01*
X7972755Y2857855D01*
X7977631Y2858770D01*
X7982254Y2858973D01*
X7986674Y2858363D01*
X7990840Y2856992D01*
X7994802Y2854858D01*
X7998510Y2851962D01*
X8002016Y2848305D01*
X8005368Y2843885D01*
X8008467Y2838653D01*
X8010093Y2835097D01*
X8011617Y2830982D01*
X8012988Y2826308D01*
X8015325Y2815437D01*
X8017154Y2802991D01*
X8018424Y2789224D01*
X8019186Y2774645D01*
X8019389Y2759557D01*
X8019135Y2744419D01*
X8018373Y2729534D01*
X8017052Y2715361D01*
X8015325Y2702255D01*
X8013090Y2690571D01*
X8010347Y2680766D01*
X8008823Y2676702D01*
X8007146Y2673197D01*
X8005368Y2670352D01*
X8002066Y2666492D01*
X7998206Y2663088D01*
X7993786Y2660142D01*
X7989112Y2657703D01*
X7984236Y2655925D01*
X7979359Y2654808D01*
X7974584Y2654401D01*
X7970062Y2654808D01*
X7966760Y2655570D01*
X7963814Y2656636D01*
X7961223Y2658059D01*
X7958886Y2659888D01*
X7956854Y2662326D01*
X7955025Y2665374D01*
X7953451Y2669133D01*
X7952079Y2673705D01*
X7950911Y2679192D01*
X7948980Y2693162D01*
X7947558Y2711856D01*
X7946390Y2735884D01*
X7945475Y2762046D01*
X7945170Y2783281D01*
X7501184Y2783281D01*
X7479233Y2765196D01*
X7457541Y2745943D01*
X7440777Y2729992D01*
X7424420Y2713583D01*
X7412532Y2700985D01*
X7400899Y2688132D01*
X7389571Y2675077D01*
X7378547Y2661716D01*
X7364323Y2643581D01*
X7355306Y2631440D01*
X7478064Y2631440D01*
X7478268Y2634335D01*
X7478979Y2637078D01*
X7480198Y2639771D01*
X7481824Y2642463D01*
X7483906Y2645206D01*
X7489291Y2650998D01*
X7492288Y2653792D01*
X7495336Y2656281D01*
X7498435Y2658364D01*
X7501534Y2660091D01*
X7504734Y2661412D01*
X7507986Y2662326D01*
X7511288Y2662834D01*
X7514742Y2662936D01*
X7518298Y2662682D01*
X7522006Y2661920D01*
X7525816Y2660802D01*
X7529779Y2659227D01*
X7533944Y2657195D01*
X7538262Y2654757D01*
X7547559Y2648458D01*
X7557719Y2640330D01*
X7568895Y2630322D01*
X7581188Y2618333D01*
X7594650Y2604414D01*
X7610957Y2586939D01*
X7623556Y2572664D01*
X7628585Y2566568D01*
X7632801Y2561031D01*
X7636256Y2556002D01*
X7638999Y2551480D01*
X7641031Y2547264D01*
X7642453Y2543403D01*
X7643215Y2539796D01*
X7643469Y2536342D01*
X7643114Y2532989D01*
X7642301Y2529687D01*
X7641031Y2526334D01*
X7639354Y2522880D01*
X7636916Y2518664D01*
X7634376Y2514955D01*
X7631734Y2511704D01*
X7628940Y2508910D01*
X7625994Y2506624D01*
X7622946Y2504846D01*
X7619695Y2503576D01*
X7616291Y2502763D01*
X7612735Y2502458D01*
X7608976Y2502662D01*
X7605014Y2503373D01*
X7600899Y2504592D01*
X7596530Y2506319D01*
X7591958Y2508605D01*
X7587132Y2511348D01*
X7582103Y2514650D01*
X7571282Y2522778D01*
X7559395Y2533091D01*
X7546390Y2545486D01*
X7532166Y2560116D01*
X7515910Y2577439D01*
X7502804Y2591866D01*
X7492746Y2603703D01*
X7488732Y2608834D01*
X7482738Y2617724D01*
X7480706Y2621584D01*
X7479284Y2625140D01*
X7478369Y2628392D01*
X7478064Y2631440D01*
X7355306Y2631440D01*
X7340701Y2610815D01*
X7331100Y2596438D01*
X7315809Y2571953D01*
X7304227Y2551938D01*
X7295946Y2536698D01*
X7285380Y2516073D01*
X7275423Y2495092D01*
X7266127Y2473807D01*
X7257389Y2452217D01*
X7251242Y2435809D01*
X7243622Y2413660D01*
X7238339Y2396896D01*
X7230364Y2368550D01*
X7224725Y2345588D01*
X7219746Y2322372D01*
X7217511Y2310638D01*
X7212685Y2281174D01*
X7209637Y2257298D01*
X7207250Y2233218D01*
X7205624Y2208936D01*
X7205065Y2196693D01*
X7204499Y2171293D01*
X7292441Y2171293D01*
X7292492Y2175103D01*
X7292848Y2178659D01*
X7293559Y2181961D01*
X7294625Y2185009D01*
X7295997Y2187803D01*
X7297826Y2190394D01*
X7300061Y2192782D01*
X7302703Y2194915D01*
X7305852Y2196846D01*
X7309408Y2198573D01*
X7313523Y2200148D01*
X7318095Y2201519D01*
X7323277Y2202738D01*
X7335215Y2204669D01*
X7349591Y2205990D01*
X7366508Y2206853D01*
X7386167Y2207260D01*
X7408722Y2207310D01*
X7428788Y2207006D01*
X7444943Y2206142D01*
X7457592Y2204669D01*
X7462824Y2203704D01*
X7467396Y2202484D01*
X7471359Y2201062D01*
X7474762Y2199436D01*
X7477709Y2197557D01*
X7480300Y2195423D01*
X7482535Y2192985D01*
X7484516Y2190292D01*
X7486294Y2187244D01*
X7488732Y2182063D01*
X7490409Y2177084D01*
X7491272Y2172208D01*
X7491374Y2167483D01*
X7491204Y2166366D01*
X7596682Y2166366D01*
X7596784Y2178608D01*
X7597241Y2190750D01*
X7598003Y2202789D01*
X7599680Y2220518D01*
X7601254Y2232101D01*
X7603083Y2243582D01*
X7605268Y2254910D01*
X7607706Y2266086D01*
X7610500Y2277110D01*
X7613599Y2287930D01*
X7616952Y2298598D01*
X7620660Y2309114D01*
X7624622Y2319426D01*
X7628940Y2329586D01*
X7633512Y2339594D01*
X7638338Y2349347D01*
X7643520Y2358999D01*
X7648956Y2368448D01*
X7654696Y2377694D01*
X7660690Y2386736D01*
X7666990Y2395575D01*
X7673594Y2404262D01*
X7680401Y2412695D01*
X7687564Y2420975D01*
X7694980Y2429052D01*
X7702651Y2436926D01*
X7710576Y2444546D01*
X7722971Y2455621D01*
X7731607Y2462733D01*
X7740497Y2469642D01*
X7749590Y2476296D01*
X7758988Y2482748D01*
X7768640Y2488946D01*
X7778546Y2494940D01*
X7788706Y2500731D01*
X7799120Y2506218D01*
X7809738Y2511501D01*
X7820659Y2516581D01*
X7831785Y2521356D01*
X7843164Y2525928D01*
X7854797Y2530246D01*
X7866634Y2534259D01*
X7878775Y2538069D01*
X7891068Y2541625D01*
X7903667Y2544927D01*
X7916418Y2547924D01*
X7926882Y2550007D01*
X7937550Y2551582D01*
X7948472Y2552700D01*
X7959699Y2553360D01*
X7971281Y2553462D01*
X7983220Y2553106D01*
X7995564Y2552242D01*
X8008366Y2550922D01*
X8031266Y2547467D01*
X8337042Y2547467D01*
X8337397Y2551328D01*
X8338312Y2555494D01*
X8339734Y2559964D01*
X8341715Y2564688D01*
X8344204Y2569667D01*
X8347252Y2575001D01*
X8354872Y2586380D01*
X8359495Y2592527D01*
X8370316Y2605633D01*
X8383270Y2619806D01*
X8398205Y2634945D01*
X8412073Y2648508D01*
X8424214Y2659786D01*
X8434882Y2668828D01*
X8444128Y2675636D01*
X8448294Y2678277D01*
X8452205Y2680360D01*
X8455812Y2681935D01*
X8459216Y2683002D01*
X8462416Y2683611D01*
X8465413Y2683713D01*
X8468207Y2683306D01*
X8470900Y2682443D01*
X8473440Y2681122D01*
X8475878Y2679344D01*
X8478215Y2677109D01*
X8480501Y2674416D01*
X8484971Y2667812D01*
X8488883Y2660396D01*
X8490153Y2657043D01*
X8490966Y2653741D01*
X8491270Y2650388D01*
X8491016Y2646934D01*
X8490254Y2643276D01*
X8488832Y2639415D01*
X8486749Y2635199D01*
X8483955Y2630627D01*
X8480501Y2625547D01*
X8471154Y2613863D01*
X8458454Y2599436D01*
X8442045Y2581859D01*
X8428075Y2567482D01*
X8415375Y2555240D01*
X8403894Y2545130D01*
X8393582Y2537104D01*
X8388858Y2533853D01*
X8384387Y2531110D01*
X8380171Y2528874D01*
X8376208Y2527096D01*
X8372551Y2525826D01*
X8369096Y2525064D01*
X8365845Y2524760D01*
X8362899Y2524963D01*
X8357870Y2525877D01*
X8353399Y2527046D01*
X8349488Y2528570D01*
X8346135Y2530398D01*
X8343290Y2532481D01*
X8340953Y2534920D01*
X8339175Y2537612D01*
X8337956Y2540609D01*
X8337245Y2543911D01*
X8337042Y2547467D01*
X8031266Y2547467D01*
X8042554Y2545384D01*
X8057235Y2542286D01*
X8076895Y2537510D01*
X8088833Y2534107D01*
X8100568Y2530449D01*
X8112099Y2526436D01*
X8128965Y2519883D01*
X8139938Y2515108D01*
X8150707Y2510028D01*
X8161223Y2504694D01*
X8171535Y2499055D01*
X8181594Y2493111D01*
X8191449Y2486914D01*
X8201050Y2480411D01*
X8210397Y2473655D01*
X8219490Y2466644D01*
X8228330Y2459380D01*
X8236915Y2451862D01*
X8245246Y2444038D01*
X8253323Y2436012D01*
X8261146Y2427732D01*
X8268665Y2419248D01*
X8275929Y2410510D01*
X8282940Y2401519D01*
X8289645Y2392324D01*
X8296097Y2382926D01*
X8305190Y2368397D01*
X8310880Y2358440D01*
X8316264Y2348280D01*
X8321395Y2337968D01*
X8326170Y2327402D01*
X8330692Y2316683D01*
X8334857Y2305812D01*
X8338769Y2294686D01*
X8342325Y2283460D01*
X8345525Y2271979D01*
X8349792Y2254554D01*
X8352180Y2242718D01*
X8354263Y2230729D01*
X8355990Y2218588D01*
X8357412Y2206294D01*
X8358428Y2193848D01*
X8359140Y2181301D01*
X8359521Y2165299D01*
X8466175Y2165299D01*
X8466175Y2169363D01*
X8466531Y2173224D01*
X8467242Y2176881D01*
X8468360Y2180234D01*
X8469833Y2183434D01*
X8471712Y2186381D01*
X8474049Y2189073D01*
X8476742Y2191613D01*
X8479891Y2193950D01*
X8483498Y2196033D01*
X8487511Y2197963D01*
X8492032Y2199690D01*
X8496960Y2201265D01*
X8508288Y2203805D01*
X8514689Y2204821D01*
X8528964Y2206345D01*
X8545271Y2207209D01*
X8563711Y2207514D01*
X8582304Y2207260D01*
X8598509Y2206548D01*
X8612530Y2205329D01*
X8624468Y2203551D01*
X8629751Y2202434D01*
X8638895Y2199792D01*
X8642858Y2198217D01*
X8646363Y2196541D01*
X8649563Y2194661D01*
X8652357Y2192629D01*
X8654796Y2190445D01*
X8661603Y2182977D01*
X8666683Y2176018D01*
X8668562Y2172766D01*
X8669985Y2169617D01*
X8670950Y2166569D01*
X8671560Y2163673D01*
X8671661Y2160930D01*
X8671356Y2158288D01*
X8670594Y2155748D01*
X8669426Y2153361D01*
X8667851Y2151126D01*
X8665819Y2148992D01*
X8663330Y2147011D01*
X8660434Y2145182D01*
X8657132Y2143455D01*
X8653373Y2141829D01*
X8644585Y2139035D01*
X8634069Y2136800D01*
X8621877Y2135073D01*
X8607958Y2133904D01*
X8592362Y2133295D01*
X8575141Y2133193D01*
X8556193Y2133650D01*
X8531860Y2134717D01*
X8512403Y2136038D01*
X8497316Y2137664D01*
X8491220Y2138680D01*
X8485987Y2139848D01*
X8481568Y2141169D01*
X8477859Y2142642D01*
X8474811Y2144369D01*
X8472424Y2146249D01*
X8470493Y2148382D01*
X8469071Y2150770D01*
X8468004Y2153462D01*
X8467293Y2156409D01*
X8466582Y2160981D01*
X8466175Y2165299D01*
X8359521Y2165299D01*
X8359292Y2137867D01*
X8358733Y2123643D01*
X8357819Y2110587D01*
X8356447Y2098497D01*
X8354618Y2087067D01*
X8352231Y2076043D01*
X8349284Y2065121D01*
X8345627Y2054047D01*
X8341309Y2042515D01*
X8336127Y2030323D01*
X8330184Y2017064D01*
X8324088Y2004314D01*
X8318296Y1993036D01*
X8312251Y1982012D01*
X8305850Y1971192D01*
X8299145Y1960575D01*
X8292185Y1950212D01*
X8284921Y1940102D01*
X8277352Y1930247D01*
X8269528Y1920646D01*
X8261451Y1911299D01*
X8253069Y1902206D01*
X8244484Y1893417D01*
X8235645Y1884883D01*
X8226501Y1876653D01*
X8217204Y1868678D01*
X8207603Y1861057D01*
X8197850Y1853742D01*
X8187842Y1846732D01*
X8177631Y1840026D01*
X8167166Y1833625D01*
X8156549Y1827631D01*
X8145729Y1821891D01*
X8124240Y1811629D01*
X8114385Y1807413D01*
X8104936Y1803704D01*
X8092109Y1799437D01*
X8314232Y1799437D01*
X8314334Y1802892D01*
X8314893Y1806193D01*
X8315807Y1809445D01*
X8317128Y1812645D01*
X8318855Y1815744D01*
X8320938Y1818843D01*
X8323376Y1821891D01*
X8329168Y1827733D01*
X8334705Y1832305D01*
X8337397Y1833981D01*
X8340140Y1835150D01*
X8342884Y1835861D01*
X8345779Y1836064D01*
X8348827Y1835759D01*
X8352078Y1834896D01*
X8355584Y1833473D01*
X8359444Y1831390D01*
X8363712Y1828749D01*
X8368334Y1825447D01*
X8379104Y1816760D01*
X8392210Y1805178D01*
X8424265Y1775155D01*
X8437118Y1762353D01*
X8448040Y1750720D01*
X8457031Y1740103D01*
X8460841Y1735175D01*
X8467039Y1725980D01*
X8469477Y1721662D01*
X8471458Y1717497D01*
X8473033Y1713534D01*
X8474151Y1709724D01*
X8474862Y1706067D01*
X8475167Y1702511D01*
X8475065Y1699056D01*
X8474506Y1695754D01*
X8473592Y1692503D01*
X8472271Y1689303D01*
X8470544Y1686204D01*
X8468461Y1683105D01*
X8466023Y1680108D01*
X8460232Y1674215D01*
X8454694Y1669643D01*
X8452002Y1668018D01*
X8449259Y1666798D01*
X8446516Y1666087D01*
X8443620Y1665884D01*
X8440572Y1666189D01*
X8437321Y1667052D01*
X8433765Y1668525D01*
X8429955Y1670557D01*
X8425688Y1673199D01*
X8415934Y1680514D01*
X8404047Y1690624D01*
X8389620Y1703679D01*
X8372297Y1719935D01*
X8358479Y1733346D01*
X8346592Y1745538D01*
X8336635Y1756664D01*
X8328558Y1766773D01*
X8322360Y1776018D01*
X8319922Y1780286D01*
X8317941Y1784451D01*
X8316366Y1788414D01*
X8315248Y1792224D01*
X8314537Y1795881D01*
X8314232Y1799437D01*
X8092109Y1799437D01*
X8086496Y1797862D01*
X8076996Y1795678D01*
X8067090Y1793849D01*
X8056473Y1792427D01*
X8044992Y1791309D01*
X8032343Y1790547D01*
X8002879Y1789633D01*
X7966151Y1789379D01*
X7931708Y1789684D01*
X7917484Y1790192D01*
X7904784Y1790954D01*
X7893405Y1792122D01*
X7882991Y1793697D01*
X7873238Y1795780D01*
X7863789Y1798472D01*
X7854391Y1801774D01*
X7844739Y1805787D01*
X7834477Y1810562D01*
X7810957Y1822704D01*
X7798663Y1829460D01*
X7787640Y1835810D01*
X7776870Y1842414D01*
X7766405Y1849323D01*
X7756194Y1856435D01*
X7746288Y1863801D01*
X7736687Y1871421D01*
X7727340Y1879244D01*
X7718247Y1887321D01*
X7709509Y1895602D01*
X7701025Y1904085D01*
X7692898Y1912772D01*
X7685024Y1921713D01*
X7677505Y1930806D01*
X7670292Y1940102D01*
X7663332Y1949602D01*
X7656779Y1959305D01*
X7650480Y1969160D01*
X7644536Y1979168D01*
X7638948Y1989378D01*
X7633665Y1999742D01*
X7628737Y2010257D01*
X7624165Y2020925D01*
X7619898Y2031695D01*
X7616037Y2042668D01*
X7612481Y2053742D01*
X7609281Y2064969D01*
X7605166Y2081987D01*
X7602931Y2093518D01*
X7601000Y2105152D01*
X7599476Y2116836D01*
X7598308Y2128672D01*
X7597444Y2141372D01*
X7596682Y2166366D01*
X7491204Y2166366D01*
X7490663Y2162810D01*
X7489139Y2158136D01*
X7486853Y2153462D01*
X7483754Y2148738D01*
X7481570Y2146046D01*
X7479182Y2143658D01*
X7476490Y2141524D01*
X7473442Y2139645D01*
X7469987Y2138019D01*
X7466025Y2136648D01*
X7461453Y2135479D01*
X7456271Y2134565D01*
X7450378Y2133803D01*
X7436205Y2132939D01*
X7418374Y2132736D01*
X7396378Y2133193D01*
X7345070Y2135327D01*
X7326985Y2136800D01*
X7319873Y2137714D01*
X7313879Y2138832D01*
X7308951Y2140153D01*
X7304887Y2141728D01*
X7301687Y2143556D01*
X7299198Y2145741D01*
X7297267Y2148332D01*
X7295794Y2151227D01*
X7294727Y2154631D01*
X7293203Y2162810D01*
X7292441Y2171293D01*
X7204499Y2171293D01*
X7204557Y2153716D01*
X7205319Y2129282D01*
X7205929Y2117140D01*
X7208316Y2087016D01*
X7211771Y2057196D01*
X7216343Y2027682D01*
X7220762Y2004314D01*
X7224522Y1986940D01*
X7228687Y1969719D01*
X7233158Y1952650D01*
X7236358Y1941372D01*
X7245096Y1913432D01*
X7248855Y1902358D01*
X7254798Y1885899D01*
X7265517Y1858873D01*
X7270089Y1848154D01*
X7277201Y1832305D01*
X7284618Y1816607D01*
X7295083Y1795983D01*
X7306157Y1775714D01*
X7317740Y1755800D01*
X7326833Y1741119D01*
X7337407Y1724914D01*
X7510525Y1724914D01*
X7511034Y1727962D01*
X7512151Y1731467D01*
X7513777Y1735378D01*
X7515961Y1739646D01*
X7521752Y1749196D01*
X7529169Y1759762D01*
X7537958Y1771091D01*
X7547762Y1782876D01*
X7558379Y1794764D01*
X7569453Y1806448D01*
X7580680Y1817674D01*
X7591806Y1828088D01*
X7602524Y1837385D01*
X7612583Y1845259D01*
X7617206Y1848612D01*
X7621625Y1851456D01*
X7629398Y1855571D01*
X7632700Y1856739D01*
X7635595Y1857349D01*
X7638034Y1857248D01*
X7644841Y1854606D01*
X7652258Y1849577D01*
X7659268Y1842973D01*
X7665110Y1835404D01*
X7666736Y1832508D01*
X7667904Y1829562D01*
X7668615Y1826615D01*
X7668768Y1823516D01*
X7668412Y1820214D01*
X7667396Y1816709D01*
X7665821Y1812950D01*
X7663535Y1808784D01*
X7660589Y1804263D01*
X7656880Y1799234D01*
X7652410Y1793697D01*
X7641031Y1780844D01*
X7626197Y1765198D01*
X7610856Y1749755D01*
X7598409Y1737918D01*
X7586725Y1727657D01*
X7575803Y1718970D01*
X7565644Y1711807D01*
X7556296Y1706270D01*
X7551928Y1704035D01*
X7547762Y1702206D01*
X7543800Y1700784D01*
X7540040Y1699768D01*
X7536484Y1699158D01*
X7533131Y1698904D01*
X7529982Y1699056D01*
X7527086Y1699615D01*
X7524394Y1700530D01*
X7521905Y1701901D01*
X7519619Y1703628D01*
X7517536Y1705762D01*
X7515707Y1708302D01*
X7514081Y1711198D01*
X7512710Y1714550D01*
X7511542Y1718259D01*
X7510627Y1722424D01*
X7510525Y1724914D01*
X7337407Y1724914D01*
X7349286Y1707692D01*
X7359396Y1693722D01*
X7376972Y1670964D01*
X7395362Y1648866D01*
X7402931Y1640230D01*
X7418476Y1623263D01*
X7438593Y1602689D01*
X7452875Y1589024D01*
X7945374Y1589024D01*
X7945475Y1606296D01*
X7946085Y1621840D01*
X7947304Y1635760D01*
X7948980Y1647952D01*
X7951266Y1658467D01*
X7954060Y1667256D01*
X7955635Y1671015D01*
X7957362Y1674317D01*
X7959191Y1677212D01*
X7961223Y1679702D01*
X7963306Y1681734D01*
X7965592Y1683308D01*
X7967980Y1684528D01*
X7970469Y1685239D01*
X7973110Y1685543D01*
X7975853Y1685442D01*
X7978749Y1684883D01*
X7981797Y1683867D01*
X7984947Y1682445D01*
X7988249Y1680565D01*
X7991652Y1678228D01*
X7995158Y1675485D01*
X8002625Y1668678D01*
X8004759Y1666290D01*
X8008620Y1660499D01*
X8010296Y1657045D01*
X8013242Y1649018D01*
X8015630Y1639468D01*
X8017408Y1628241D01*
X8018678Y1615287D01*
X8019440Y1600504D01*
X8019694Y1583791D01*
X8019338Y1566011D01*
X8018322Y1549857D01*
X8016595Y1535379D01*
X8014157Y1522628D01*
X8012684Y1516837D01*
X8009229Y1506575D01*
X8007248Y1502054D01*
X8005064Y1497939D01*
X8002727Y1494282D01*
X8000238Y1491030D01*
X7997545Y1488236D01*
X7994700Y1485798D01*
X7991703Y1483817D01*
X7988503Y1482293D01*
X7985150Y1481175D01*
X7981645Y1480464D01*
X7977936Y1480159D01*
X7974075Y1480312D01*
X7970062Y1480870D01*
X7966811Y1481632D01*
X7963865Y1482699D01*
X7961274Y1484071D01*
X7958937Y1485849D01*
X7956905Y1488186D01*
X7955076Y1491081D01*
X7953502Y1494637D01*
X7952130Y1498955D01*
X7950962Y1504137D01*
X7949895Y1510182D01*
X7948218Y1525320D01*
X7946948Y1545082D01*
X7945831Y1570075D01*
X7945374Y1589024D01*
X7452875Y1589024D01*
X7468108Y1575155D01*
X7481163Y1563827D01*
X7494524Y1552752D01*
X7512710Y1538427D01*
X7526680Y1528013D01*
X7545679Y1514602D01*
X7565085Y1501749D01*
X7579918Y1492453D01*
X7595006Y1483512D01*
X7615478Y1472031D01*
X7636357Y1461160D01*
X7663027Y1448358D01*
X7684820Y1438808D01*
X7701381Y1432052D01*
X7729423Y1421587D01*
X7752283Y1413916D01*
X7781391Y1405280D01*
X7810957Y1397660D01*
X7821574Y1395272D01*
X7832598Y1393088D01*
X7855661Y1389278D01*
X7879943Y1386230D01*
X7905343Y1383944D01*
X7924901Y1382674D01*
X7951622Y1381658D01*
X7978851Y1381353D01*
X8013242Y1381963D01*
X8040827Y1383233D01*
X8075066Y1385773D01*
X8088630Y1387094D01*
X8121903Y1391158D01*
X8147659Y1395120D01*
X8172450Y1399743D01*
X8196122Y1404975D01*
X8218424Y1410868D01*
X8239201Y1417370D01*
X8262721Y1425854D01*
X8285683Y1434795D01*
X8308086Y1444345D01*
X8329930Y1454454D01*
X8351316Y1465173D01*
X8372246Y1476502D01*
X8387689Y1485442D01*
X8397849Y1491640D01*
X8417864Y1504442D01*
X8437626Y1518005D01*
X8457031Y1532280D01*
X8466632Y1539697D01*
X8480907Y1551178D01*
X8499805Y1567180D01*
X8523122Y1588312D01*
X8541613Y1606143D01*
X8564626Y1629664D01*
X8584539Y1651406D01*
X8599728Y1669135D01*
X8617864Y1691741D01*
X8634984Y1714754D01*
X8651138Y1738172D01*
X8663330Y1757222D01*
X8672118Y1771599D01*
X8683244Y1791004D01*
X8696299Y1815592D01*
X8703665Y1830476D01*
X8710676Y1845462D01*
X8719515Y1865579D01*
X8725712Y1880819D01*
X8731605Y1896110D01*
X8740648Y1921764D01*
X8745626Y1937308D01*
X8753144Y1963267D01*
X8757208Y1978964D01*
X8760968Y1994662D01*
X8765387Y2015693D01*
X8768384Y2031542D01*
X8772550Y2057958D01*
X8775852Y2084476D01*
X8778189Y2111044D01*
X8779154Y2127046D01*
X8780068Y2153615D01*
X8780170Y2169566D01*
X8779967Y2185517D01*
X8778900Y2212035D01*
X8776919Y2238502D01*
X8774023Y2264918D01*
X8770315Y2291130D01*
X8765692Y2317242D01*
X8762492Y2332837D01*
X8757716Y2353513D01*
X8751011Y2379218D01*
X8743391Y2404668D01*
X8736736Y2424836D01*
X8727592Y2449779D01*
X8719667Y2469540D01*
X8708999Y2493975D01*
X8699855Y2513279D01*
X8690203Y2532380D01*
X8685174Y2541828D01*
X8671966Y2565146D01*
X8657945Y2588056D01*
X8646160Y2606090D01*
X8627465Y2632608D01*
X8610955Y2654147D01*
X8597188Y2671013D01*
X8579256Y2691587D01*
X8560511Y2711653D01*
X8544915Y2727299D01*
X8528812Y2742539D01*
X8512251Y2757373D01*
X8490762Y2775356D01*
X8481974Y2782366D01*
X8463991Y2796082D01*
X8450173Y2806039D01*
X8440775Y2812542D01*
X8421674Y2825242D01*
X8402116Y2837434D01*
X8382000Y2849168D01*
X8361425Y2860395D01*
X8340344Y2871114D01*
X8327999Y2877058D01*
X8301431Y2888996D01*
X8273643Y2900680D01*
X8246160Y2911449D01*
X8220354Y2920695D01*
X8208568Y2924606D01*
X8197799Y2927908D01*
X8188198Y2930601D01*
X8168284Y2935122D01*
X8145576Y2939186D01*
X8120583Y2942742D01*
X8093862Y2945892D01*
X8058912Y2948990D01*
X8030311Y2950921D01*
X8001711Y2952191D01*
X7973669Y2952902D01*
G37*
G36*
X7974888Y2477871D02*
G01*
X7963357Y2477516D01*
X7951724Y2476703D01*
X7940090Y2475433D01*
X7928356Y2473756D01*
X7916621Y2471623D01*
X7904835Y2469032D01*
X7892999Y2465984D01*
X7881162Y2462479D01*
X7869732Y2458618D01*
X7858759Y2454452D01*
X7848041Y2449880D01*
X7837525Y2444800D01*
X7827264Y2439365D01*
X7817256Y2433523D01*
X7807502Y2427274D01*
X7798003Y2420670D01*
X7788757Y2413711D01*
X7779816Y2406396D01*
X7771130Y2398725D01*
X7762798Y2390749D01*
X7754721Y2382418D01*
X7747000Y2373833D01*
X7739583Y2364943D01*
X7732522Y2355799D01*
X7725765Y2346350D01*
X7719364Y2336698D01*
X7713370Y2326792D01*
X7707731Y2316632D01*
X7702448Y2306320D01*
X7697571Y2295753D01*
X7693050Y2285034D01*
X7688986Y2274112D01*
X7685328Y2263038D01*
X7682077Y2251811D01*
X7679283Y2240483D01*
X7676896Y2229002D01*
X7675016Y2217420D01*
X7673543Y2205736D01*
X7672578Y2193950D01*
X7672070Y2182114D01*
X7672019Y2168093D01*
X7672324Y2152650D01*
X7673035Y2138019D01*
X7674152Y2124049D01*
X7675676Y2110790D01*
X7677658Y2098090D01*
X7680147Y2085898D01*
X7683093Y2074214D01*
X7686548Y2062886D01*
X7690561Y2051913D01*
X7695133Y2041194D01*
X7700314Y2030679D01*
X7706106Y2020316D01*
X7712506Y2010054D01*
X7719568Y1999742D01*
X7727340Y1989378D01*
X7735824Y1978914D01*
X7745018Y1968296D01*
X7754772Y1957628D01*
X7764525Y1947519D01*
X7774228Y1938070D01*
X7783982Y1929180D01*
X7793736Y1920900D01*
X7803540Y1913229D01*
X7813395Y1906066D01*
X7823352Y1899513D01*
X7833461Y1893519D01*
X7843672Y1888032D01*
X7854086Y1883105D01*
X7864652Y1878685D01*
X7875371Y1874774D01*
X7886344Y1871370D01*
X7897571Y1868474D01*
X7909102Y1866087D01*
X7920837Y1864156D01*
X7932928Y1862683D01*
X7945323Y1861718D01*
X7958074Y1861159D01*
X7971231Y1861057D01*
X7984744Y1861413D01*
X7999120Y1862226D01*
X8013598Y1863394D01*
X8027466Y1864969D01*
X8040776Y1866950D01*
X8053578Y1869287D01*
X8065922Y1872081D01*
X8077809Y1875332D01*
X8089341Y1879041D01*
X8100517Y1883206D01*
X8111388Y1887880D01*
X8122005Y1893062D01*
X8132368Y1898802D01*
X8142579Y1905050D01*
X8152587Y1911908D01*
X8162544Y1919274D01*
X8172399Y1927301D01*
X8182254Y1935937D01*
X8192109Y1945233D01*
X8201558Y1954682D01*
X8210245Y1963928D01*
X8218373Y1973275D01*
X8225993Y1982724D01*
X8233156Y1992325D01*
X8239810Y2002078D01*
X8245957Y2011984D01*
X8251647Y2022043D01*
X8256879Y2032355D01*
X8261603Y2042820D01*
X8265922Y2053539D01*
X8269782Y2064512D01*
X8273135Y2075688D01*
X8276132Y2087168D01*
X8278622Y2098954D01*
X8280704Y2110994D01*
X8282381Y2123389D01*
X8283651Y2136089D01*
X8284514Y2149195D01*
X8284972Y2162606D01*
X8284972Y2175967D01*
X8284667Y2188718D01*
X8283956Y2201113D01*
X8282889Y2213152D01*
X8281365Y2224836D01*
X8279485Y2236216D01*
X8277199Y2247290D01*
X8274456Y2258110D01*
X8271256Y2268677D01*
X8267649Y2279040D01*
X8263534Y2289149D01*
X8259013Y2299106D01*
X8253984Y2308860D01*
X8248497Y2318512D01*
X8242503Y2328011D01*
X8236000Y2337409D01*
X8228990Y2346706D01*
X8221472Y2355951D01*
X8213394Y2365146D01*
X8204758Y2374341D01*
X8195614Y2383536D01*
X8185912Y2392730D01*
X8176209Y2401468D01*
X8166760Y2409393D01*
X8157209Y2416860D01*
X8147456Y2423871D01*
X8137550Y2430526D01*
X8127542Y2436672D01*
X8117382Y2442464D01*
X8107070Y2447798D01*
X8096605Y2452674D01*
X8086090Y2457145D01*
X8075371Y2461209D01*
X8064601Y2464816D01*
X8053679Y2467965D01*
X8042706Y2470708D01*
X8031632Y2472994D01*
X8020405Y2474823D01*
X8009178Y2476246D01*
X7997799Y2477262D01*
X7986369Y2477770D01*
G37*
G36*
X7023963Y1022705D02*
G01*
X7004202Y1022451D01*
X6989419Y1021689D01*
X6983730Y1021029D01*
X6978954Y1020114D01*
X6975144Y1018946D01*
X6972096Y1017473D01*
X6969759Y1015644D01*
X6968032Y1013460D01*
X6966813Y1010818D01*
X6966051Y1007770D01*
X6965594Y1004214D01*
X6965340Y995527D01*
X6965645Y987552D01*
X6966610Y981252D01*
X6968591Y976477D01*
X6971893Y973023D01*
X6976719Y970686D01*
X6983374Y969264D01*
X6992213Y968552D01*
X7011060Y968298D01*
X7024624Y967790D01*
X7034936Y966825D01*
X7038441Y966216D01*
X7040676Y965555D01*
X7041438Y964844D01*
X7040676Y962355D01*
X7034936Y947826D01*
X7011060Y891235D01*
X6997242Y859028D01*
X6985965Y830732D01*
X6976516Y804824D01*
X6972706Y793394D01*
X6969607Y783234D01*
X6967321Y774598D01*
X6965848Y767791D01*
X6965340Y762914D01*
X6965746Y755954D01*
X6966356Y753059D01*
X6967321Y750570D01*
X6968744Y748385D01*
X6970725Y746556D01*
X6973316Y744982D01*
X6976567Y743712D01*
X6980580Y742645D01*
X6985457Y741832D01*
X6998055Y740765D01*
X7014921Y740257D01*
X7036765Y740105D01*
X7059269Y740206D01*
X7076440Y740664D01*
X7088936Y741730D01*
X7093610Y742543D01*
X7097420Y743610D01*
X7100366Y744982D01*
X7102551Y746607D01*
X7104075Y748588D01*
X7104989Y750925D01*
X7105446Y753668D01*
X7105497Y756869D01*
X7104684Y764590D01*
X7103364Y771042D01*
X7101331Y776478D01*
X7098385Y780948D01*
X7094474Y784555D01*
X7089343Y787400D01*
X7082993Y789635D01*
X7075220Y791260D01*
X7058812Y793191D01*
X7046163Y795070D01*
X7036612Y797102D01*
X7033361Y798169D01*
X7031278Y799134D01*
X7030567Y800049D01*
X7031329Y802690D01*
X7037070Y817219D01*
X7047382Y841806D01*
X7074763Y905103D01*
X7080605Y919226D01*
X7091019Y946200D01*
X7095490Y958596D01*
X7099300Y969873D01*
X7102398Y979932D01*
X7104684Y988415D01*
X7106158Y995222D01*
X7106666Y1000048D01*
X7106259Y1006957D01*
X7105650Y1009802D01*
X7104684Y1012291D01*
X7103262Y1014476D01*
X7101281Y1016304D01*
X7098741Y1017828D01*
X7095490Y1019149D01*
X7091476Y1020165D01*
X7086650Y1020978D01*
X7080910Y1021638D01*
X7066432Y1022400D01*
X7047433Y1022705D01*
G37*
G36*
X7206945Y1022705D02*
G01*
X7177074Y862177D01*
X7231938Y862177D01*
X7232243Y868222D01*
X7234021Y883259D01*
X7242251Y930300D01*
X7246467Y886510D01*
X7246823Y872591D01*
X7246620Y866444D01*
X7246112Y861060D01*
X7245400Y856640D01*
X7244486Y853389D01*
X7243267Y851357D01*
X7240574Y849020D01*
X7238187Y847699D01*
X7236206Y847496D01*
X7234580Y848360D01*
X7233361Y850239D01*
X7232497Y853186D01*
X7232040Y857199D01*
X7231938Y862177D01*
X7177074Y862177D01*
X7170623Y826363D01*
X7167575Y808228D01*
X7165238Y792835D01*
X7163612Y779932D01*
X7162749Y769366D01*
X7162546Y760831D01*
X7163104Y754126D01*
X7164425Y749096D01*
X7165390Y747064D01*
X7166508Y745388D01*
X7167778Y744016D01*
X7169302Y742899D01*
X7172858Y741324D01*
X7177176Y740511D01*
X7182307Y740156D01*
X7188200Y740105D01*
X7195972Y740359D01*
X7202170Y741324D01*
X7206894Y743204D01*
X7210399Y746150D01*
X7212838Y750468D01*
X7214362Y756310D01*
X7215124Y763879D01*
X7215530Y783031D01*
X7216241Y790549D01*
X7217613Y796188D01*
X7219797Y800150D01*
X7222947Y802690D01*
X7227214Y803910D01*
X7232802Y804113D01*
X7239812Y803351D01*
X7245908Y802081D01*
X7251192Y800100D01*
X7255662Y797356D01*
X7259421Y793800D01*
X7262418Y789330D01*
X7264755Y783894D01*
X7266533Y777494D01*
X7268921Y762000D01*
X7270597Y755446D01*
X7272883Y750214D01*
X7275880Y746252D01*
X7279741Y743356D01*
X7284516Y741476D01*
X7290460Y740410D01*
X7300569Y740105D01*
X7305954Y740308D01*
X7310577Y740968D01*
X7312609Y741476D01*
X7314438Y742188D01*
X7316063Y743102D01*
X7317536Y744270D01*
X7318806Y745744D01*
X7319924Y747471D01*
X7320788Y749503D01*
X7321499Y751890D01*
X7322362Y757834D01*
X7322464Y765505D01*
X7321854Y775106D01*
X7320534Y786841D01*
X7315606Y817676D01*
X7307783Y859739D01*
X7276084Y1022705D01*
G37*
G36*
X7378395Y1022705D02*
G01*
X7378395Y740105D01*
X7411516Y740206D01*
X7416495Y740613D01*
X7420660Y741527D01*
X7424013Y743051D01*
X7426706Y745439D01*
X7428788Y748792D01*
X7430312Y753364D01*
X7431430Y759256D01*
X7432090Y766724D01*
X7432497Y775817D01*
X7432802Y819454D01*
X7433309Y834186D01*
X7433818Y839978D01*
X7434529Y844803D01*
X7435596Y848766D01*
X7436967Y851966D01*
X7438694Y854456D01*
X7440828Y856386D01*
X7443470Y857707D01*
X7446619Y858672D01*
X7450378Y859231D01*
X7459675Y859637D01*
X7474051Y859891D01*
X7481163Y860704D01*
X7486802Y862076D01*
X7491171Y864209D01*
X7494320Y867105D01*
X7496454Y870864D01*
X7497622Y875639D01*
X7497978Y881430D01*
X7497622Y887221D01*
X7496454Y891946D01*
X7494320Y895705D01*
X7491171Y898601D01*
X7486802Y900734D01*
X7481163Y902157D01*
X7474051Y902919D01*
X7455662Y903376D01*
X7448092Y904189D01*
X7442352Y905814D01*
X7438237Y908558D01*
X7435443Y912571D01*
X7433767Y918210D01*
X7432954Y925626D01*
X7432751Y935126D01*
X7432852Y941832D01*
X7433208Y947623D01*
X7433919Y952449D01*
X7435088Y956513D01*
X7436815Y959815D01*
X7439202Y962507D01*
X7442403Y964692D01*
X7446467Y966368D01*
X7451496Y967689D01*
X7457592Y968756D01*
X7464907Y969670D01*
X7484668Y971600D01*
X7493812Y973175D01*
X7501128Y975258D01*
X7506868Y978001D01*
X7511135Y981557D01*
X7514234Y986028D01*
X7516368Y991514D01*
X7517739Y998270D01*
X7518552Y1005992D01*
X7518501Y1009142D01*
X7518044Y1011885D01*
X7517130Y1014221D01*
X7515606Y1016203D01*
X7513370Y1017879D01*
X7510424Y1019200D01*
X7506665Y1020267D01*
X7501991Y1021130D01*
X7496302Y1021740D01*
X7481570Y1022451D01*
X7461758Y1022705D01*
G37*
G36*
X7563154Y1022705D02*
G01*
X7563154Y740105D01*
X7657134Y740206D01*
X7674305Y740664D01*
X7686751Y741730D01*
X7691475Y742543D01*
X7695234Y743610D01*
X7698181Y744982D01*
X7700365Y746607D01*
X7701889Y748588D01*
X7702854Y750925D01*
X7703312Y753668D01*
X7703058Y760476D01*
X7702499Y764590D01*
X7701178Y771296D01*
X7699044Y776833D01*
X7695946Y781304D01*
X7691628Y784809D01*
X7685938Y787603D01*
X7678623Y789686D01*
X7669479Y791210D01*
X7642402Y794054D01*
X7636256Y795121D01*
X7631226Y796442D01*
X7627162Y798169D01*
X7624013Y800303D01*
X7621574Y802995D01*
X7619847Y806297D01*
X7618679Y810361D01*
X7617968Y815238D01*
X7617612Y820978D01*
X7617510Y827735D01*
X7617764Y837184D01*
X7618577Y844651D01*
X7620253Y850239D01*
X7622997Y854303D01*
X7627162Y856996D01*
X7632852Y858672D01*
X7640472Y859434D01*
X7658811Y859891D01*
X7665923Y860704D01*
X7671612Y862076D01*
X7675930Y864209D01*
X7679131Y867105D01*
X7681214Y870864D01*
X7682382Y875639D01*
X7682738Y881430D01*
X7682382Y887221D01*
X7681214Y891946D01*
X7679131Y895705D01*
X7675930Y898601D01*
X7671612Y900734D01*
X7665923Y902157D01*
X7658811Y902919D01*
X7640472Y903376D01*
X7632852Y904189D01*
X7627162Y905814D01*
X7622997Y908558D01*
X7620253Y912571D01*
X7618577Y918210D01*
X7617764Y925626D01*
X7617510Y935126D01*
X7617612Y941832D01*
X7617968Y947623D01*
X7618679Y952449D01*
X7619847Y956513D01*
X7621574Y959815D01*
X7624013Y962507D01*
X7627162Y964692D01*
X7631226Y966368D01*
X7636256Y967689D01*
X7642402Y968756D01*
X7649718Y969670D01*
X7669479Y971600D01*
X7678623Y973175D01*
X7685938Y975258D01*
X7691628Y978001D01*
X7695946Y981557D01*
X7699044Y986028D01*
X7701178Y991514D01*
X7702499Y998270D01*
X7703312Y1005992D01*
X7703312Y1009142D01*
X7702854Y1011885D01*
X7701889Y1014221D01*
X7700365Y1016203D01*
X7698181Y1017879D01*
X7695234Y1019200D01*
X7691475Y1020267D01*
X7686751Y1021130D01*
X7681061Y1021740D01*
X7666329Y1022451D01*
X7646568Y1022705D01*
G37*
G36*
X7747965Y1022705D02*
G01*
X7747965Y930300D01*
X7802321Y930300D01*
X7802524Y940816D01*
X7803235Y949248D01*
X7804556Y955903D01*
X7806588Y960882D01*
X7809433Y964437D01*
X7813243Y966774D01*
X7818069Y967994D01*
X7824063Y968349D01*
X7830058Y967994D01*
X7834884Y966774D01*
X7838643Y964437D01*
X7841538Y960882D01*
X7843570Y955903D01*
X7844840Y949248D01*
X7845552Y940816D01*
X7845806Y930300D01*
X7845552Y919835D01*
X7844840Y911402D01*
X7843570Y904748D01*
X7841538Y899769D01*
X7838643Y896213D01*
X7834884Y893876D01*
X7830058Y892657D01*
X7824063Y892302D01*
X7818069Y892657D01*
X7813243Y893876D01*
X7809433Y896213D01*
X7806588Y899769D01*
X7804556Y904748D01*
X7803235Y911402D01*
X7802524Y919835D01*
X7802321Y930300D01*
X7747965Y930300D01*
X7747965Y740105D01*
X7780934Y740206D01*
X7785811Y740613D01*
X7789925Y741426D01*
X7793278Y742797D01*
X7795971Y744880D01*
X7798104Y747725D01*
X7799679Y751535D01*
X7800797Y756361D01*
X7801559Y762406D01*
X7802016Y769823D01*
X7802524Y801014D01*
X7803184Y811174D01*
X7804302Y819607D01*
X7805877Y826363D01*
X7807959Y831545D01*
X7810550Y835101D01*
X7813649Y837234D01*
X7817307Y837946D01*
X7820710Y836980D01*
X7824266Y834288D01*
X7827924Y829970D01*
X7831581Y824128D01*
X7835138Y816965D01*
X7838592Y808634D01*
X7841792Y799287D01*
X7847177Y779322D01*
X7849616Y770991D01*
X7852003Y763828D01*
X7854391Y757885D01*
X7856931Y752957D01*
X7859623Y748995D01*
X7862620Y745896D01*
X7865922Y743559D01*
X7869631Y741934D01*
X7873847Y740867D01*
X7878572Y740257D01*
X7889544Y740105D01*
X7898536Y740613D01*
X7901940Y741222D01*
X7904683Y742289D01*
X7906766Y743864D01*
X7908239Y746048D01*
X7909052Y748944D01*
X7909204Y752652D01*
X7908798Y757275D01*
X7907781Y762965D01*
X7904073Y777748D01*
X7891932Y818845D01*
X7889748Y826922D01*
X7887970Y834440D01*
X7885582Y847547D01*
X7884922Y853236D01*
X7884668Y858316D01*
X7884820Y862787D01*
X7885328Y866648D01*
X7886242Y869950D01*
X7887512Y872642D01*
X7890662Y876757D01*
X7892084Y879500D01*
X7894675Y887221D01*
X7896910Y897382D01*
X7898638Y909319D01*
X7899755Y922477D01*
X7900111Y936244D01*
X7899806Y949858D01*
X7898688Y962101D01*
X7896859Y973023D01*
X7895590Y978001D01*
X7894116Y982624D01*
X7892389Y986993D01*
X7890408Y991057D01*
X7888224Y994867D01*
X7885734Y998372D01*
X7882991Y1001572D01*
X7879994Y1004569D01*
X7876692Y1007262D01*
X7873085Y1009751D01*
X7869224Y1011986D01*
X7865008Y1013968D01*
X7860487Y1015746D01*
X7855661Y1017269D01*
X7844942Y1019759D01*
X7832852Y1021435D01*
X7819288Y1022400D01*
X7804150Y1022705D01*
G37*
G36*
X8045703Y1022705D02*
G01*
X8035594Y1021943D01*
X8027365Y1019810D01*
X8021777Y1016609D01*
X8019694Y1012748D01*
X8019897Y1010919D01*
X8021523Y1004722D01*
X8024571Y995680D01*
X8028787Y984402D01*
X8039862Y957427D01*
X8044942Y945692D01*
X8048752Y935431D01*
X8052562Y923848D01*
X8056219Y911199D01*
X8059724Y897737D01*
X8062975Y883767D01*
X8065922Y869543D01*
X8068462Y855319D01*
X8070646Y841400D01*
X8072272Y828040D01*
X8073948Y809498D01*
X8076082Y789228D01*
X8078266Y773531D01*
X8079536Y767283D01*
X8080908Y761949D01*
X8082381Y757428D01*
X8084108Y753668D01*
X8086039Y750620D01*
X8088223Y748131D01*
X8090662Y746201D01*
X8093456Y744728D01*
X8096554Y743559D01*
X8103920Y742086D01*
X8109153Y741426D01*
X8113572Y741222D01*
X8117281Y741629D01*
X8120329Y742696D01*
X8122767Y744626D01*
X8124647Y747572D01*
X8126069Y751586D01*
X8127085Y756920D01*
X8127746Y763574D01*
X8128152Y771855D01*
X8128558Y801370D01*
X8128965Y809396D01*
X8129676Y817676D01*
X8130743Y826160D01*
X8132114Y834948D01*
X8135975Y853744D01*
X8141411Y874471D01*
X8148472Y897585D01*
X8157311Y923493D01*
X8168131Y952703D01*
X8180984Y985672D01*
X8188248Y1003706D01*
X8190026Y1008887D01*
X8190788Y1013104D01*
X8190382Y1016406D01*
X8188756Y1018895D01*
X8185759Y1020724D01*
X8181340Y1021892D01*
X8175345Y1022502D01*
X8167725Y1022705D01*
X8162442Y1022553D01*
X8157616Y1021943D01*
X8153196Y1020876D01*
X8149081Y1019302D01*
X8145322Y1017168D01*
X8141766Y1014425D01*
X8138414Y1010970D01*
X8135162Y1006805D01*
X8131962Y1001877D01*
X8128812Y996137D01*
X8125561Y989533D01*
X8104886Y941171D01*
X8085175Y989279D01*
X8082127Y995781D01*
X8079079Y1001471D01*
X8076031Y1006348D01*
X8072932Y1010513D01*
X8069681Y1014018D01*
X8066328Y1016863D01*
X8062772Y1019048D01*
X8058962Y1020724D01*
X8054898Y1021842D01*
X8050479Y1022502D01*
G37*
G36*
X8236458Y1022705D02*
G01*
X8240522Y839571D01*
X8241284Y815898D01*
X8242147Y796544D01*
X8243214Y780999D01*
X8244636Y768908D01*
X8246364Y759714D01*
X8247430Y756107D01*
X8248650Y753059D01*
X8249970Y750519D01*
X8251444Y748436D01*
X8253120Y746810D01*
X8254898Y745490D01*
X8256930Y744423D01*
X8259114Y743610D01*
X8264144Y742492D01*
X8271814Y741426D01*
X8275980Y741273D01*
X8279536Y741781D01*
X8281060Y742442D01*
X8282431Y743356D01*
X8283702Y744626D01*
X8284870Y746252D01*
X8285886Y748284D01*
X8287613Y753668D01*
X8288934Y761187D01*
X8289899Y771042D01*
X8290610Y783539D01*
X8291271Y817727D01*
X8291423Y839978D01*
X8291423Y1022705D01*
G37*
G36*
X8345779Y1022705D02*
G01*
X8345779Y740105D01*
X8431682Y740206D01*
X8447481Y740714D01*
X8453729Y741172D01*
X8459012Y741883D01*
X8463432Y742797D01*
X8466988Y743966D01*
X8469833Y745439D01*
X8472017Y747268D01*
X8473643Y749452D01*
X8474811Y752094D01*
X8475522Y755142D01*
X8475980Y758647D01*
X8476234Y767283D01*
X8475929Y775309D01*
X8474964Y781558D01*
X8472982Y786333D01*
X8469680Y789787D01*
X8464854Y792124D01*
X8458200Y793546D01*
X8449360Y794258D01*
X8438184Y794461D01*
X8400135Y794461D01*
X8400135Y1022705D01*
G37*
G36*
X8726220Y1022705D02*
G01*
X8726220Y740105D01*
X8780576Y740105D01*
X8780576Y1022705D01*
G37*
G36*
X8881973Y1022705D02*
G01*
X8862212Y1022451D01*
X8847480Y1021740D01*
X8841790Y1021130D01*
X8837066Y1020267D01*
X8833307Y1019200D01*
X8830360Y1017879D01*
X8828176Y1016203D01*
X8826652Y1014221D01*
X8825687Y1011885D01*
X8825230Y1009142D01*
X8825179Y1005992D01*
X8825992Y998270D01*
X8827312Y991768D01*
X8829395Y986383D01*
X8832291Y981913D01*
X8836253Y978255D01*
X8841333Y975410D01*
X8847683Y973226D01*
X8855456Y971600D01*
X8871915Y969518D01*
X8878519Y968400D01*
X8884513Y966978D01*
X8889746Y965403D01*
X8894064Y963676D01*
X8897366Y961847D01*
X8899398Y960018D01*
X8900160Y958189D01*
X8899347Y954684D01*
X8897112Y948131D01*
X8888984Y927404D01*
X8876842Y898956D01*
X8845905Y829818D01*
X8839454Y814679D01*
X8834120Y801370D01*
X8829954Y789736D01*
X8826957Y779678D01*
X8825230Y771042D01*
X8824772Y767283D01*
X8824671Y763828D01*
X8824925Y760628D01*
X8825484Y757783D01*
X8826347Y755192D01*
X8827516Y752856D01*
X8829090Y750773D01*
X8830919Y748944D01*
X8833154Y747318D01*
X8835694Y745896D01*
X8841892Y743661D01*
X8849461Y742086D01*
X8858554Y741070D01*
X8869070Y740460D01*
X8881110Y740156D01*
X8906662Y740105D01*
X8926322Y740359D01*
X8941054Y741121D01*
X8946794Y741781D01*
X8951518Y742696D01*
X8955379Y743864D01*
X8958478Y745286D01*
X8960815Y747064D01*
X8962593Y749249D01*
X8963812Y751789D01*
X8964625Y754735D01*
X8965082Y758190D01*
X8965336Y766622D01*
X8965031Y774192D01*
X8963914Y780338D01*
X8961831Y785164D01*
X8958478Y788873D01*
X8953601Y791718D01*
X8947048Y793800D01*
X8938564Y795324D01*
X8927947Y796493D01*
X8890508Y799896D01*
X8930995Y891590D01*
X8942476Y919581D01*
X8947607Y933094D01*
X8956294Y958138D01*
X8959748Y969213D01*
X8962390Y978916D01*
X8964269Y987094D01*
X8965234Y993495D01*
X8965285Y1000506D01*
X8965082Y1004519D01*
X8964625Y1007973D01*
X8963863Y1011021D01*
X8962593Y1013561D01*
X8960866Y1015746D01*
X8958478Y1017524D01*
X8955379Y1018997D01*
X8951468Y1020165D01*
X8946692Y1021029D01*
X8940901Y1021689D01*
X8926017Y1022451D01*
X8906052Y1022705D01*
G37*
G36*
X8571331Y1022502D02*
G01*
X8558936Y1021943D01*
X8553196Y1021334D01*
X8542731Y1019454D01*
X8538210Y1018184D01*
X8534146Y1016660D01*
X8530691Y1014984D01*
X8527897Y1013002D01*
X8525764Y1010869D01*
X8524443Y1008481D01*
X8523579Y1004519D01*
X8522868Y997610D01*
X8522258Y988009D01*
X8521446Y961898D01*
X8521242Y928471D01*
X8521774Y881430D01*
X8574024Y881430D01*
X8574125Y909777D01*
X8574532Y931265D01*
X8574938Y939698D01*
X8575548Y946759D01*
X8576360Y952601D01*
X8577427Y957224D01*
X8578748Y960882D01*
X8580374Y963523D01*
X8582355Y965403D01*
X8584692Y966571D01*
X8587486Y967130D01*
X8590686Y967232D01*
X8598509Y966419D01*
X8606129Y964946D01*
X8609279Y963879D01*
X8611971Y962507D01*
X8614308Y960628D01*
X8616289Y958189D01*
X8617966Y955141D01*
X8619337Y951280D01*
X8620404Y946607D01*
X8621268Y940968D01*
X8622334Y926388D01*
X8622842Y906830D01*
X8622944Y867918D01*
X8622639Y845515D01*
X8621877Y828548D01*
X8621268Y821842D01*
X8620404Y816203D01*
X8619337Y811530D01*
X8617966Y807720D01*
X8616289Y804621D01*
X8614308Y802233D01*
X8611971Y800354D01*
X8609279Y798931D01*
X8606129Y797864D01*
X8602573Y797052D01*
X8594344Y795883D01*
X8590686Y795578D01*
X8587486Y795680D01*
X8584692Y796239D01*
X8582355Y797407D01*
X8580374Y799287D01*
X8578748Y801979D01*
X8577427Y805586D01*
X8576360Y810260D01*
X8575548Y816051D01*
X8574938Y823112D01*
X8574278Y841502D01*
X8574024Y881430D01*
X8521774Y881430D01*
X8525154Y745540D01*
X8572195Y742137D01*
X8586825Y741680D01*
X8593886Y741883D01*
X8600744Y742391D01*
X8607399Y743153D01*
X8613800Y744220D01*
X8619947Y745540D01*
X8625789Y747115D01*
X8631326Y748944D01*
X8636457Y751027D01*
X8641232Y753414D01*
X8645601Y756005D01*
X8652357Y760679D01*
X8657894Y765454D01*
X8660180Y768045D01*
X8662212Y770890D01*
X8664041Y774090D01*
X8665565Y777646D01*
X8666937Y781710D01*
X8668054Y786384D01*
X8669020Y791616D01*
X8670391Y804418D01*
X8671255Y820724D01*
X8671712Y841197D01*
X8671814Y908202D01*
X8671509Y930605D01*
X8670848Y948740D01*
X8669782Y963269D01*
X8668105Y974750D01*
X8667038Y979525D01*
X8665819Y983691D01*
X8664397Y987399D01*
X8662720Y990701D01*
X8660841Y993698D01*
X8658758Y996340D01*
X8656421Y998829D01*
X8650884Y1003503D01*
X8647734Y1005789D01*
X8643721Y1008329D01*
X8639200Y1010615D01*
X8634171Y1012698D01*
X8628786Y1014628D01*
X8616950Y1017828D01*
X8604250Y1020216D01*
X8590991Y1021740D01*
X8577783Y1022451D01*
G37*
G36*
X7596428Y566216D02*
G01*
X7589875Y565962D01*
X7583474Y565353D01*
X7577429Y564337D01*
X7571892Y563016D01*
X7566964Y561390D01*
X7562850Y559562D01*
X7559751Y557530D01*
X7557770Y555345D01*
X7556449Y551129D01*
X7557973Y547674D01*
X7561935Y545338D01*
X7572197Y543915D01*
X7575753Y542340D01*
X7578648Y539597D01*
X7580985Y535635D01*
X7582763Y530402D01*
X7583982Y523849D01*
X7584694Y515874D01*
X7585151Y498754D01*
X7585760Y491642D01*
X7586776Y485190D01*
X7588097Y479551D01*
X7589723Y474878D01*
X7591552Y471373D01*
X7593584Y469138D01*
X7595768Y468376D01*
X7597952Y469138D01*
X7599984Y471373D01*
X7601864Y474878D01*
X7603439Y479551D01*
X7604810Y485190D01*
X7605775Y491642D01*
X7606436Y498754D01*
X7606893Y514045D01*
X7607503Y521208D01*
X7608519Y527659D01*
X7609840Y533298D01*
X7611465Y537921D01*
X7613294Y541477D01*
X7615326Y543661D01*
X7617510Y544474D01*
X7621727Y545338D01*
X7625181Y547674D01*
X7627518Y551129D01*
X7628381Y555345D01*
X7627721Y557530D01*
X7625892Y559562D01*
X7622895Y561390D01*
X7618984Y563016D01*
X7614259Y564337D01*
X7608824Y565353D01*
X7602829Y565962D01*
G37*
G36*
X7715351Y566216D02*
G01*
X7711135Y564489D01*
X7707680Y559765D01*
X7705344Y552856D01*
X7704480Y544372D01*
X7704328Y538124D01*
X7703769Y533501D01*
X7702600Y530352D01*
X7700772Y528726D01*
X7698130Y528472D01*
X7694472Y529539D01*
X7689697Y531926D01*
X7677810Y538886D01*
X7672679Y541274D01*
X7667955Y542645D01*
X7663535Y543001D01*
X7659217Y542340D01*
X7654950Y540715D01*
X7650429Y538022D01*
X7645603Y534314D01*
X7641031Y530148D01*
X7637221Y525780D01*
X7634122Y521360D01*
X7631734Y516890D01*
X7629956Y512318D01*
X7628962Y508152D01*
X7741412Y508152D01*
X7742986Y512622D01*
X7746339Y517398D01*
X7749387Y520598D01*
X7752080Y522122D01*
X7754416Y522020D01*
X7756296Y520293D01*
X7757668Y516991D01*
X7758531Y512165D01*
X7758836Y505764D01*
X7757972Y499719D01*
X7755585Y495808D01*
X7752080Y494334D01*
X7747762Y495655D01*
X7744002Y499109D01*
X7741818Y503428D01*
X7741412Y508152D01*
X7628962Y508152D01*
X7628331Y503377D01*
X7628432Y499059D01*
X7629042Y494842D01*
X7630159Y490829D01*
X7631734Y487070D01*
X7633817Y483514D01*
X7636306Y480314D01*
X7639253Y477469D01*
X7642504Y475030D01*
X7646162Y472998D01*
X7650073Y471474D01*
X7654290Y470458D01*
X7658811Y470001D01*
X7663535Y470154D01*
X7668463Y470916D01*
X7673543Y472440D01*
X7678826Y474624D01*
X7692085Y481838D01*
X7698536Y483870D01*
X7702905Y483666D01*
X7704480Y481076D01*
X7705242Y479196D01*
X7707477Y477418D01*
X7710982Y475691D01*
X7715656Y474167D01*
X7721295Y472846D01*
X7727746Y471728D01*
X7734909Y470916D01*
X7742529Y470458D01*
X7753096Y470255D01*
X7761579Y470611D01*
X7768234Y471678D01*
X7773212Y473456D01*
X7776718Y476148D01*
X7779003Y479755D01*
X7780223Y484530D01*
X7780578Y490423D01*
X7781442Y498754D01*
X7783779Y505561D01*
X7787233Y510133D01*
X7791450Y511860D01*
X7795666Y510285D01*
X7799120Y506018D01*
X7800971Y500989D01*
X7856677Y500989D01*
X7857490Y505206D01*
X7859826Y508660D01*
X7863281Y510997D01*
X7867548Y511860D01*
X7871764Y510997D01*
X7875219Y508660D01*
X7877556Y505206D01*
X7878419Y500989D01*
X7943596Y500989D01*
X7944967Y505206D01*
X7948574Y508660D01*
X7953959Y510997D01*
X7960563Y511860D01*
X7966608Y510997D01*
X7970570Y508660D01*
X7972044Y505206D01*
X7970774Y500989D01*
X7967370Y496773D01*
X7963052Y493318D01*
X7958328Y490982D01*
X7953857Y490118D01*
X7949844Y490982D01*
X7946593Y493318D01*
X7944408Y496773D01*
X7943596Y500989D01*
X7878419Y500989D01*
X7877556Y496773D01*
X7875219Y493318D01*
X7871764Y490982D01*
X7867548Y490118D01*
X7863281Y490982D01*
X7859826Y493318D01*
X7857490Y496773D01*
X7856677Y500989D01*
X7800971Y500989D01*
X7801457Y499668D01*
X7802321Y491947D01*
X7802524Y487984D01*
X7803184Y484632D01*
X7804454Y481736D01*
X7806436Y479298D01*
X7809179Y477266D01*
X7812836Y475640D01*
X7817459Y474370D01*
X7823250Y473354D01*
X7830210Y472643D01*
X7838490Y472185D01*
X7859369Y471830D01*
X7874762Y472185D01*
X7889189Y473354D01*
X7902041Y475234D01*
X7907629Y476351D01*
X7912557Y477621D01*
X7916824Y478993D01*
X7920278Y480466D01*
X7922818Y481990D01*
X7924444Y483616D01*
X7928000Y488137D01*
X7930540Y489407D01*
X7932013Y487324D01*
X7932572Y481939D01*
X7934807Y476707D01*
X7940700Y472338D01*
X7949336Y469442D01*
X7959902Y468376D01*
X7970469Y469392D01*
X7979105Y472084D01*
X7984947Y476148D01*
X7987080Y481025D01*
X7987639Y485444D01*
X7989163Y487934D01*
X7991348Y488442D01*
X7994091Y486765D01*
X7995716Y482752D01*
X7994954Y476961D01*
X7992109Y470204D01*
X7987334Y463194D01*
X7981086Y454914D01*
X7979156Y449935D01*
X7981594Y447497D01*
X7988452Y446989D01*
X7993532Y447395D01*
X7998459Y448462D01*
X8003387Y450037D01*
X8008112Y452170D01*
X8012684Y454761D01*
X8017052Y457809D01*
X8021218Y461314D01*
X8025079Y465124D01*
X8028584Y469239D01*
X8031784Y473709D01*
X8034578Y478383D01*
X8036966Y483260D01*
X8038846Y488340D01*
X8040268Y493522D01*
X8041131Y498805D01*
X8041436Y504088D01*
X8041131Y510387D01*
X8040116Y516128D01*
X8038541Y521360D01*
X8036407Y525881D01*
X8033664Y529793D01*
X8030413Y532993D01*
X8026653Y535381D01*
X8022437Y536956D01*
X8012226Y539750D01*
X8008823Y541426D01*
X8012226Y542391D01*
X8022437Y543204D01*
X8028431Y544017D01*
X8033258Y545490D01*
X8036915Y547522D01*
X8039404Y549960D01*
X8040776Y552602D01*
X8040979Y555345D01*
X8040116Y558088D01*
X8038134Y560628D01*
X8035086Y562864D01*
X8031022Y564591D01*
X8025841Y565759D01*
X8019694Y566216D01*
X8014462Y565861D01*
X8009991Y564794D01*
X8006283Y563067D01*
X8003235Y560578D01*
X8000898Y557377D01*
X7999272Y553415D01*
X7998307Y548640D01*
X7997952Y543102D01*
X7997850Y536549D01*
X7997342Y531672D01*
X7996428Y528421D01*
X7994903Y526694D01*
X7992719Y526491D01*
X7989671Y527761D01*
X7985759Y530352D01*
X7975904Y538022D01*
X7971434Y540715D01*
X7967116Y542340D01*
X7962849Y543001D01*
X7958429Y542645D01*
X7953705Y541274D01*
X7948523Y538886D01*
X7936687Y531926D01*
X7931912Y529539D01*
X7928254Y528472D01*
X7925562Y528726D01*
X7923733Y530352D01*
X7922615Y533501D01*
X7922056Y538124D01*
X7921853Y544372D01*
X7921040Y552856D01*
X7918703Y559765D01*
X7915249Y564489D01*
X7910982Y566216D01*
X7906766Y564489D01*
X7903311Y559765D01*
X7900974Y552856D01*
X7900111Y544372D01*
X7899958Y538124D01*
X7899400Y533501D01*
X7898282Y530352D01*
X7896453Y528726D01*
X7893761Y528472D01*
X7890103Y529539D01*
X7885328Y531926D01*
X7873542Y538886D01*
X7868412Y541274D01*
X7863738Y542645D01*
X7859369Y543102D01*
X7855203Y542544D01*
X7851038Y541070D01*
X7846771Y538581D01*
X7842199Y535127D01*
X7834833Y530098D01*
X7828432Y527964D01*
X7823200Y528777D01*
X7817002Y534670D01*
X7813243Y536448D01*
X7808061Y537870D01*
X7801813Y538937D01*
X7794599Y539648D01*
X7786624Y539851D01*
X7778140Y539648D01*
X7758125Y538022D01*
X7748879Y537667D01*
X7741361Y537921D01*
X7735570Y538886D01*
X7731252Y540613D01*
X7728356Y543052D01*
X7726730Y546303D01*
X7725359Y556514D01*
X7723022Y561543D01*
X7719568Y564946D01*
G37*
G36*
X8128406Y566216D02*
G01*
X8124190Y564489D01*
X8120735Y559816D01*
X8118398Y552907D01*
X8116671Y535990D01*
X8114334Y529082D01*
X8110880Y524408D01*
X8106664Y522732D01*
X8102447Y523951D01*
X8098993Y527304D01*
X8096656Y532282D01*
X8095081Y544880D01*
X8093202Y550621D01*
X8090357Y555447D01*
X8086750Y559155D01*
X8082686Y561492D01*
X8078419Y562305D01*
X8074152Y561441D01*
X8070138Y558647D01*
X8068716Y556412D01*
X8067446Y552653D01*
X8066227Y547624D01*
X8065211Y541528D01*
X8064347Y534466D01*
X8063331Y518566D01*
X8063179Y510032D01*
X8063310Y505206D01*
X8165185Y505206D01*
X8166658Y508660D01*
X8170621Y510997D01*
X8176666Y511860D01*
X8183270Y510997D01*
X8188655Y508660D01*
X8192262Y505206D01*
X8193633Y500989D01*
X8192820Y496773D01*
X8190585Y493318D01*
X8187334Y490982D01*
X8183372Y490118D01*
X8178901Y490982D01*
X8174177Y493318D01*
X8169859Y496773D01*
X8166455Y500989D01*
X8165185Y505206D01*
X8063310Y505206D01*
X8063941Y495757D01*
X8064804Y489610D01*
X8065973Y484225D01*
X8067446Y479501D01*
X8069122Y475589D01*
X8071002Y472490D01*
X8073034Y470154D01*
X8075269Y468731D01*
X8077555Y468122D01*
X8079943Y468477D01*
X8082381Y469747D01*
X8084769Y471932D01*
X8087207Y475183D01*
X8089595Y479399D01*
X8091881Y484682D01*
X8095030Y490982D01*
X8099145Y496214D01*
X8103565Y499668D01*
X8107832Y500989D01*
X8111591Y499668D01*
X8114690Y496214D01*
X8116773Y490982D01*
X8118297Y478129D01*
X8120430Y473252D01*
X8123529Y470154D01*
X8127390Y468833D01*
X8131556Y469290D01*
X8135721Y471627D01*
X8139633Y475843D01*
X8142935Y481939D01*
X8145678Y488086D01*
X8147507Y490118D01*
X8148624Y488086D01*
X8149285Y481939D01*
X8150098Y479196D01*
X8152130Y476605D01*
X8155228Y474268D01*
X8159292Y472287D01*
X8164220Y470662D01*
X8169808Y469392D01*
X8176056Y468630D01*
X8182762Y468376D01*
X8191753Y468630D01*
X8199018Y469392D01*
X8204708Y470865D01*
X8209025Y473151D01*
X8212074Y476351D01*
X8214055Y480618D01*
X8215172Y486054D01*
X8216036Y504291D01*
X8217712Y509219D01*
X8220964Y508050D01*
X8226145Y500989D01*
X8229752Y493166D01*
X8231784Y483870D01*
X8232140Y474319D01*
X8230666Y465632D01*
X8229193Y459790D01*
X8228736Y455015D01*
X8229092Y451256D01*
X8230311Y448513D01*
X8232140Y446735D01*
X8234629Y445922D01*
X8237575Y445973D01*
X8240928Y446887D01*
X8244586Y448665D01*
X8248446Y451154D01*
X8252409Y454456D01*
X8256371Y458419D01*
X8260232Y463092D01*
X8263890Y468376D01*
X8267293Y474268D01*
X8270290Y480720D01*
X8274761Y491235D01*
X8278317Y498957D01*
X8281162Y503935D01*
X8283600Y506323D01*
X8285784Y506171D01*
X8287918Y503631D01*
X8288631Y502158D01*
X8313166Y502158D01*
X8314486Y505917D01*
X8317992Y509016D01*
X8323173Y511098D01*
X8329472Y511860D01*
X8335822Y510590D01*
X8341004Y507136D01*
X8344509Y502107D01*
X8345779Y495909D01*
X8344611Y489712D01*
X8341359Y485952D01*
X8336229Y484733D01*
X8329472Y486156D01*
X8323173Y489356D01*
X8317992Y493471D01*
X8314486Y497890D01*
X8313166Y502158D01*
X8288631Y502158D01*
X8290255Y498805D01*
X8294420Y488086D01*
X8295995Y484784D01*
X8297824Y481888D01*
X8299958Y479399D01*
X8302447Y477215D01*
X8305444Y475386D01*
X8309051Y473811D01*
X8313318Y472541D01*
X8318398Y471525D01*
X8331200Y470154D01*
X8348268Y469544D01*
X8370316Y469442D01*
X8465362Y470408D01*
X8465362Y507441D01*
X8465108Y514858D01*
X8464499Y521817D01*
X8463483Y528116D01*
X8462162Y533603D01*
X8460536Y538124D01*
X8458708Y541528D01*
X8456676Y543712D01*
X8454491Y544474D01*
X8450275Y542290D01*
X8446820Y536498D01*
X8444484Y527812D01*
X8442655Y506730D01*
X8440064Y498093D01*
X8436254Y492251D01*
X8431580Y490118D01*
X8427415Y491388D01*
X8424926Y494893D01*
X8424316Y500075D01*
X8425789Y506425D01*
X8427262Y511352D01*
X8428075Y516585D01*
X8428329Y522020D01*
X8427974Y527456D01*
X8427161Y532841D01*
X8425840Y537921D01*
X8424113Y542645D01*
X8421979Y546811D01*
X8419541Y550316D01*
X8416798Y553008D01*
X8413800Y554736D01*
X8410651Y555345D01*
X8406790Y553821D01*
X8402878Y549757D01*
X8399373Y543712D01*
X8396782Y536295D01*
X8393938Y526135D01*
X8392312Y522732D01*
X8391347Y526135D01*
X8390534Y536295D01*
X8389162Y543001D01*
X8386368Y548487D01*
X8382711Y552551D01*
X8378545Y554990D01*
X8374481Y555650D01*
X8370925Y554380D01*
X8368487Y550875D01*
X8367522Y545084D01*
X8365642Y541477D01*
X8360562Y539191D01*
X8353044Y538429D01*
X8338820Y540054D01*
X8333536Y540207D01*
X8328202Y539902D01*
X8322919Y539089D01*
X8317941Y537870D01*
X8313267Y536295D01*
X8309203Y534314D01*
X8299043Y527151D01*
X8294522Y525983D01*
X8291982Y528574D01*
X8291068Y534974D01*
X8289645Y539851D01*
X8285784Y540105D01*
X8279638Y535635D01*
X8271256Y526592D01*
X8264956Y519125D01*
X8259978Y513791D01*
X8255965Y510489D01*
X8252663Y509219D01*
X8249615Y509981D01*
X8246567Y512673D01*
X8243112Y517296D01*
X8238896Y523849D01*
X8235746Y528015D01*
X8231835Y531723D01*
X8227212Y534974D01*
X8222081Y537718D01*
X8216442Y540054D01*
X8210448Y541832D01*
X8204200Y543153D01*
X8197748Y544017D01*
X8191246Y544322D01*
X8184794Y544068D01*
X8178444Y543356D01*
X8172348Y542086D01*
X8166608Y540258D01*
X8161274Y537870D01*
X8156448Y534924D01*
X8145983Y526237D01*
X8141970Y526084D01*
X8139887Y531317D01*
X8139277Y542290D01*
X8138414Y551586D01*
X8136077Y559155D01*
X8132622Y564286D01*
G37*
G36*
X8493302Y540816D02*
G01*
X8489086Y540308D01*
X8485530Y538784D01*
X8482584Y536143D01*
X8480196Y532333D01*
X8478418Y527354D01*
X8477199Y521106D01*
X8476437Y513537D01*
X8476234Y504596D01*
X8476437Y497332D01*
X8477097Y490524D01*
X8478062Y484378D01*
X8479434Y478993D01*
X8481009Y474573D01*
X8482888Y471220D01*
X8484920Y469087D01*
X8487105Y468376D01*
X8491321Y469442D01*
X8494826Y472338D01*
X8497214Y476707D01*
X8498128Y481939D01*
X8498636Y489000D01*
X8500008Y498195D01*
X8501989Y508304D01*
X8504326Y518210D01*
X8506104Y528421D01*
X8504936Y535482D01*
X8500719Y539546D01*
G37*
D32*
X3586355Y2976430D02*
G01*
X3581021Y2986844D01*
X3570607Y2997258D01*
X3560447Y3002338D01*
X3539619Y3002338D01*
X3529205Y2997258D01*
X3518791Y2986844D01*
X3513457Y2976430D01*
X3508377Y2960682D01*
X3508377Y2934774D01*
X3513457Y2919280D01*
X3518791Y2908866D01*
X3529205Y2898452D01*
X3539619Y2893372D01*
X3560447Y2893372D01*
X3570607Y2898452D01*
X3581021Y2908866D01*
X3586355Y2919280D01*
X3620645Y2981510D02*
G01*
X3631059Y2986844D01*
X3646553Y3002338D01*
X3646553Y2893372D01*
X3599055Y3624130D02*
G01*
X3593721Y3634544D01*
X3583307Y3644958D01*
X3573147Y3650038D01*
X3552319Y3650038D01*
X3541905Y3644958D01*
X3531491Y3634544D01*
X3526157Y3624130D01*
X3521077Y3608382D01*
X3521077Y3582474D01*
X3526157Y3566980D01*
X3531491Y3556566D01*
X3541905Y3546152D01*
X3552319Y3541072D01*
X3573147Y3541072D01*
X3583307Y3546152D01*
X3593721Y3556566D01*
X3599055Y3566980D01*
X3638425Y3624130D02*
G01*
X3638425Y3629210D01*
X3643759Y3639624D01*
X3648839Y3644958D01*
X3659253Y3650038D01*
X3680081Y3650038D01*
X3690495Y3644958D01*
X3695575Y3639624D01*
X3700909Y3629210D01*
X3700909Y3618796D01*
X3695575Y3608382D01*
X3685161Y3592888D01*
X3633345Y3541072D01*
X3705989Y3541072D01*
X6215255Y6075230D02*
G01*
X6209921Y6085644D01*
X6199507Y6096058D01*
X6189347Y6101138D01*
X6168519Y6101138D01*
X6158105Y6096058D01*
X6147691Y6085644D01*
X6142357Y6075230D01*
X6137277Y6059482D01*
X6137277Y6033574D01*
X6142357Y6018080D01*
X6147691Y6007666D01*
X6158105Y5997252D01*
X6168519Y5992172D01*
X6189347Y5992172D01*
X6199507Y5997252D01*
X6209921Y6007666D01*
X6215255Y6018080D01*
X6311775Y6085644D02*
G01*
X6306695Y6096058D01*
X6290947Y6101138D01*
X6280787Y6101138D01*
X6265039Y6096058D01*
X6254625Y6080310D01*
X6249545Y6054402D01*
X6249545Y6028494D01*
X6254625Y6007666D01*
X6265039Y5997252D01*
X6280787Y5992172D01*
X6285867Y5992172D01*
X6301361Y5997252D01*
X6311775Y6007666D01*
X6317109Y6023160D01*
X6317109Y6028494D01*
X6311775Y6043988D01*
X6301361Y6054402D01*
X6285867Y6059482D01*
X6280787Y6059482D01*
X6265039Y6054402D01*
X6254625Y6043988D01*
X6249545Y6028494D01*
X2389377Y2197607D02*
G01*
X2384043Y2208021D01*
X2373629Y2218436D01*
X2363470Y2223515D01*
X2342641Y2223515D01*
X2332227Y2218436D01*
X2321813Y2208021D01*
X2316479Y2197607D01*
X2311400Y2181860D01*
X2311400Y2155952D01*
X2316479Y2140457D01*
X2321813Y2130044D01*
X2332227Y2119629D01*
X2342641Y2114550D01*
X2363470Y2114550D01*
X2373629Y2119629D01*
X2384043Y2130044D01*
X2389377Y2140457D01*
X2434081Y2223515D02*
G01*
X2491231Y2223515D01*
X2459990Y2181860D01*
X2475484Y2181860D01*
X2485897Y2176779D01*
X2491231Y2171700D01*
X2496311Y2155952D01*
X2496311Y2145537D01*
X2491231Y2130044D01*
X2480818Y2119629D01*
X2465070Y2114550D01*
X2449575Y2114550D01*
X2434081Y2119629D01*
X2428747Y2124710D01*
X2423668Y2135123D01*
X3430777Y2184907D02*
G01*
X3425443Y2195321D01*
X3415029Y2205736D01*
X3404870Y2210815D01*
X3384041Y2210815D01*
X3373627Y2205736D01*
X3363213Y2195321D01*
X3357879Y2184907D01*
X3352800Y2169160D01*
X3352800Y2143252D01*
X3357879Y2127757D01*
X3363213Y2117344D01*
X3373627Y2106929D01*
X3384041Y2101850D01*
X3404870Y2101850D01*
X3415029Y2106929D01*
X3425443Y2117344D01*
X3430777Y2127757D01*
X3516884Y2210815D02*
G01*
X3465068Y2138171D01*
X3543045Y2138171D01*
X3516884Y2210815D02*
G01*
X3516884Y2101850D01*
X2402077Y1448307D02*
G01*
X2396743Y1458721D01*
X2386329Y1469136D01*
X2376170Y1474215D01*
X2355341Y1474215D01*
X2344927Y1469136D01*
X2334513Y1458721D01*
X2329179Y1448307D01*
X2324100Y1432560D01*
X2324100Y1406652D01*
X2329179Y1391157D01*
X2334513Y1380744D01*
X2344927Y1370329D01*
X2355341Y1365250D01*
X2376170Y1365250D01*
X2386329Y1370329D01*
X2396743Y1380744D01*
X2402077Y1391157D01*
X2498597Y1474215D02*
G01*
X2446781Y1474215D01*
X2441447Y1427479D01*
X2446781Y1432560D01*
X2462275Y1437894D01*
X2477770Y1437894D01*
X2493518Y1432560D01*
X2503931Y1422400D01*
X2509011Y1406652D01*
X2509011Y1396237D01*
X2503931Y1380744D01*
X2493518Y1370329D01*
X2477770Y1365250D01*
X2462275Y1365250D01*
X2446781Y1370329D01*
X2441447Y1375410D01*
X2436368Y1385823D01*
X5906770Y3899915D02*
G01*
X5906770Y3816857D01*
X5901436Y3801110D01*
X5896356Y3796029D01*
X5885941Y3790950D01*
X5875527Y3790950D01*
X5865113Y3796029D01*
X5859779Y3801110D01*
X5854700Y3816857D01*
X5854700Y3827271D01*
X5941059Y3879087D02*
G01*
X5951220Y3884421D01*
X5966968Y3899915D01*
X5966968Y3790950D01*
X3352800Y890015D02*
G01*
X3352800Y781050D01*
X3425443Y890015D02*
G01*
X3352800Y817371D01*
X3378708Y843279D02*
G01*
X3425443Y781050D01*
X3459734Y890015D02*
G01*
X3459734Y781050D01*
X3459734Y890015D02*
G01*
X3527297Y890015D01*
X3459734Y838200D02*
G01*
X3501390Y838200D01*
X3459734Y781050D02*
G01*
X3527297Y781050D01*
X3561588Y890015D02*
G01*
X3603243Y838200D01*
X3603243Y781050D01*
X3644900Y890015D02*
G01*
X3603243Y838200D01*
X3679190Y869187D02*
G01*
X3689350Y874521D01*
X3705097Y890015D01*
X3705097Y781050D01*
X8432800Y6008115D02*
G01*
X8432800Y5899150D01*
X8432800Y6008115D02*
G01*
X8474456Y5899150D01*
X8515858Y6008115D02*
G01*
X8474456Y5899150D01*
X8515858Y6008115D02*
G01*
X8515858Y5899150D01*
X8550147Y5987287D02*
G01*
X8560561Y5992621D01*
X8576309Y6008115D01*
X8576309Y5899150D01*
D33*
X9383775Y4610100D02*
G01*
X9553447Y4545329D01*
X9383775Y4610100D02*
G01*
X9553447Y4674615D01*
X9496806Y4569460D02*
G01*
X9496806Y4650486D01*
X9383775Y4727955D02*
G01*
X9553447Y4727955D01*
X9383775Y4727955D02*
G01*
X9553447Y4841239D01*
X9383775Y4841239D02*
G01*
X9553447Y4841239D01*
X9383775Y4950968D02*
G01*
X9553447Y4950968D01*
X9383775Y4894579D02*
G01*
X9383775Y5007610D01*
X9383775Y5060950D02*
G01*
X9553447Y5060950D01*
X9383775Y5060950D02*
G01*
X9383775Y5166105D01*
X9464547Y5060950D02*
G01*
X9464547Y5125720D01*
X9553447Y5060950D02*
G01*
X9553447Y5166105D01*
X9383775Y5219445D02*
G01*
X9553447Y5219445D01*
X9383775Y5219445D02*
G01*
X9553447Y5332476D01*
X9383775Y5332476D02*
G01*
X9553447Y5332476D01*
X9383775Y5385815D02*
G01*
X9553447Y5385815D01*
X9383775Y5385815D02*
G01*
X9553447Y5499100D01*
X9383775Y5499100D02*
G01*
X9553447Y5499100D01*
X9383775Y5616955D02*
G01*
X9553447Y5552439D01*
X9383775Y5616955D02*
G01*
X9553447Y5681726D01*
X9496806Y5576570D02*
G01*
X9496806Y5657342D01*
D32*
X1766315Y2984500D02*
G01*
X1657350Y2984500D01*
X1766315Y2984500D02*
G01*
X1766315Y2937763D01*
X1761236Y2922270D01*
X1755902Y2916936D01*
X1745487Y2911855D01*
X1729994Y2911855D01*
X1719579Y2916936D01*
X1714500Y2922270D01*
X1709165Y2937763D01*
X1709165Y2984500D01*
X1745487Y2877565D02*
G01*
X1750821Y2867152D01*
X1766315Y2851404D01*
X1657350Y2851404D01*
X4615941Y3544315D02*
G01*
X4605527Y3539236D01*
X4595113Y3528821D01*
X4589779Y3518407D01*
X4584700Y3502660D01*
X4584700Y3476752D01*
X4589779Y3461257D01*
X4595113Y3450844D01*
X4605527Y3440429D01*
X4615941Y3435350D01*
X4636770Y3435350D01*
X4646929Y3440429D01*
X4657343Y3450844D01*
X4662677Y3461257D01*
X4667758Y3476752D01*
X4667758Y3502660D01*
X4662677Y3518407D01*
X4657343Y3528821D01*
X4646929Y3539236D01*
X4636770Y3544315D01*
X4615941Y3544315D01*
X4631436Y3455923D02*
G01*
X4662677Y3424936D01*
X4702047Y3523487D02*
G01*
X4712461Y3528821D01*
X4728209Y3544315D01*
X4728209Y3435350D01*
X4876800Y915415D02*
G01*
X4876800Y806450D01*
X4876800Y915415D02*
G01*
X4923536Y915415D01*
X4939029Y910336D01*
X4944363Y905002D01*
X4949443Y894587D01*
X4949443Y884173D01*
X4944363Y873760D01*
X4939029Y868679D01*
X4923536Y863600D01*
X4876800Y863600D01*
X4913122Y863600D02*
G01*
X4949443Y806450D01*
X4983734Y894587D02*
G01*
X4994147Y899921D01*
X5009895Y915415D01*
X5009895Y806450D01*
X4838700Y1436115D02*
G01*
X4838700Y1327150D01*
X4838700Y1436115D02*
G01*
X4885436Y1436115D01*
X4900929Y1431036D01*
X4906263Y1425702D01*
X4911343Y1415287D01*
X4911343Y1404873D01*
X4906263Y1394460D01*
X4900929Y1389379D01*
X4885436Y1384300D01*
X4838700Y1384300D01*
X4875022Y1384300D02*
G01*
X4911343Y1327150D01*
X4950968Y1410207D02*
G01*
X4950968Y1415287D01*
X4956047Y1425702D01*
X4961381Y1431036D01*
X4971795Y1436115D01*
X4992370Y1436115D01*
X5002784Y1431036D01*
X5008118Y1425702D01*
X5013197Y1415287D01*
X5013197Y1404873D01*
X5008118Y1394460D01*
X4997704Y1378965D01*
X4945634Y1327150D01*
X5018531Y1327150D01*
X4851400Y1982215D02*
G01*
X4851400Y1873250D01*
X4851400Y1982215D02*
G01*
X4898136Y1982215D01*
X4913629Y1977136D01*
X4918963Y1971802D01*
X4924043Y1961387D01*
X4924043Y1950973D01*
X4918963Y1940560D01*
X4913629Y1935479D01*
X4898136Y1930400D01*
X4851400Y1930400D01*
X4887722Y1930400D02*
G01*
X4924043Y1873250D01*
X4968747Y1982215D02*
G01*
X5025897Y1982215D01*
X4994909Y1940560D01*
X5010404Y1940560D01*
X5020818Y1935479D01*
X5025897Y1930400D01*
X5031231Y1914652D01*
X5031231Y1904237D01*
X5025897Y1888744D01*
X5015484Y1878329D01*
X4999990Y1873250D01*
X4984495Y1873250D01*
X4968747Y1878329D01*
X4963668Y1883410D01*
X4958334Y1893823D01*
X4851400Y2579115D02*
G01*
X4851400Y2470150D01*
X4851400Y2579115D02*
G01*
X4898136Y2579115D01*
X4913629Y2574036D01*
X4918963Y2568702D01*
X4924043Y2558287D01*
X4924043Y2547873D01*
X4918963Y2537460D01*
X4913629Y2532379D01*
X4898136Y2527300D01*
X4851400Y2527300D01*
X4887722Y2527300D02*
G01*
X4924043Y2470150D01*
X5010404Y2579115D02*
G01*
X4958334Y2506471D01*
X5036311Y2506471D01*
X5010404Y2579115D02*
G01*
X5010404Y2470150D01*
X2373388Y2997192D02*
G01*
X2451366Y2997192D01*
X2466860Y3002272D01*
X2477274Y3012686D01*
X2482354Y3028434D01*
X2482354Y3038848D01*
X2477274Y3054342D01*
X2466860Y3064756D01*
X2451366Y3069836D01*
X2373388Y3069836D01*
X2394216Y3104126D02*
G01*
X2388882Y3114540D01*
X2373388Y3130288D01*
X2482354Y3130288D01*
X990600Y877315D02*
G01*
X990600Y799337D01*
X995679Y783844D01*
X1006094Y773429D01*
X1021842Y768350D01*
X1032255Y768350D01*
X1047750Y773429D01*
X1058163Y783844D01*
X1063244Y799337D01*
X1063244Y877315D01*
X1102868Y851407D02*
G01*
X1102868Y856487D01*
X1107947Y866902D01*
X1113281Y872236D01*
X1123695Y877315D01*
X1144270Y877315D01*
X1154684Y872236D01*
X1160018Y866902D01*
X1165097Y856487D01*
X1165097Y846073D01*
X1160018Y835660D01*
X1149604Y820165D01*
X1097534Y768350D01*
X1170431Y768350D01*
D29*
X990607Y1190231D02*
G01*
X990607Y996429D01*
X990607Y1190231D02*
G01*
X1064521Y996429D01*
X1138435Y1190231D02*
G01*
X1064521Y996429D01*
X1138435Y1190231D02*
G01*
X1138435Y996429D01*
X1199395Y1190231D02*
G01*
X1199395Y996429D01*
X1398785Y1144257D02*
G01*
X1389641Y1162545D01*
X1371099Y1181087D01*
X1352557Y1190231D01*
X1315727Y1190231D01*
X1297185Y1181087D01*
X1278897Y1162545D01*
X1269499Y1144257D01*
X1260355Y1116317D01*
X1260355Y1070343D01*
X1269499Y1042657D01*
X1278897Y1024115D01*
X1297185Y1005573D01*
X1315727Y996429D01*
X1352557Y996429D01*
X1371099Y1005573D01*
X1389641Y1024115D01*
X1398785Y1042657D01*
D32*
X5487415Y4991100D02*
G01*
X5378450Y4918455D01*
X5487415Y4918455D02*
G01*
X5378450Y4991100D01*
X5466588Y4884165D02*
G01*
X5471922Y4873752D01*
X5487415Y4858004D01*
X5378450Y4858004D01*
X1453642Y4521200D02*
G01*
X1375918Y4521200D01*
X1453642Y4521200D02*
G01*
X1453642Y4495292D01*
X1449831Y4484370D01*
X1442465Y4476750D01*
X1435100Y4473194D01*
X1424178Y4469384D01*
X1405636Y4469384D01*
X1394460Y4473194D01*
X1387094Y4476750D01*
X1379728Y4484370D01*
X1375918Y4495292D01*
X1375918Y4521200D01*
X1438910Y4445000D02*
G01*
X1442465Y4437634D01*
X1453642Y4426712D01*
X1375918Y4426712D01*
X1453642Y4394962D02*
G01*
X1453642Y4354321D01*
X1424178Y4376420D01*
X1424178Y4365244D01*
X1420368Y4357878D01*
X1416557Y4354321D01*
X1405636Y4350512D01*
X1398270Y4350512D01*
X1387094Y4354321D01*
X1379728Y4361687D01*
X1375918Y4372610D01*
X1375918Y4383786D01*
X1379728Y4394962D01*
X1383537Y4398518D01*
X1390904Y4402328D01*
X1694942Y4551934D02*
G01*
X1694942Y4511294D01*
X1665478Y4533392D01*
X1665478Y4522470D01*
X1661668Y4514850D01*
X1657857Y4511294D01*
X1646936Y4507484D01*
X1639570Y4507484D01*
X1628394Y4511294D01*
X1621028Y4518660D01*
X1617218Y4529836D01*
X1617218Y4540757D01*
X1621028Y4551934D01*
X1624837Y4555489D01*
X1632204Y4559300D01*
X1694942Y4483100D02*
G01*
X1617218Y4453636D01*
X1694942Y4424171D02*
G01*
X1617218Y4453636D01*
X1694942Y4392421D02*
G01*
X1694942Y4351781D01*
X1665478Y4373879D01*
X1665478Y4362704D01*
X1661668Y4355337D01*
X1657857Y4351781D01*
X1646936Y4347971D01*
X1639570Y4347971D01*
X1628394Y4351781D01*
X1621028Y4359147D01*
X1617218Y4370070D01*
X1617218Y4381245D01*
X1621028Y4392421D01*
X1624837Y4395978D01*
X1632204Y4399787D01*
X1961641Y4593336D02*
G01*
X1883918Y4622800D01*
X1961641Y4593336D02*
G01*
X1883918Y4563618D01*
X1909826Y4611623D02*
G01*
X1909826Y4574794D01*
X1961641Y4539234D02*
G01*
X1883918Y4539234D01*
X1961641Y4539234D02*
G01*
X1961641Y4505960D01*
X1957831Y4495037D01*
X1954275Y4491228D01*
X1946909Y4487671D01*
X1939543Y4487671D01*
X1932177Y4491228D01*
X1928368Y4495037D01*
X1924557Y4505960D01*
X1924557Y4539234D01*
X1924557Y4513326D02*
G01*
X1883918Y4487671D01*
X1961641Y4463287D02*
G01*
X1883918Y4463287D01*
X1961641Y4463287D02*
G01*
X1961641Y4415281D01*
X1924557Y4463287D02*
G01*
X1924557Y4433570D01*
X1883918Y4463287D02*
G01*
X1883918Y4415281D01*
X1961641Y4390897D02*
G01*
X1883918Y4390897D01*
X1961641Y4390897D02*
G01*
X1961641Y4342637D01*
X1924557Y4390897D02*
G01*
X1924557Y4361179D01*
X2215641Y4453636D02*
G01*
X2137918Y4483100D01*
X2215641Y4453636D02*
G01*
X2137918Y4423918D01*
X2163825Y4471923D02*
G01*
X2163825Y4435094D01*
X2215641Y4377436D02*
G01*
X2211831Y4388612D01*
X2200909Y4395978D01*
X2182368Y4399534D01*
X2171191Y4399534D01*
X2152904Y4395978D01*
X2141727Y4388612D01*
X2137918Y4377436D01*
X2137918Y4370070D01*
X2141727Y4358894D01*
X2152904Y4351528D01*
X2171191Y4347971D01*
X2182368Y4347971D01*
X2200909Y4351528D01*
X2211831Y4358894D01*
X2215641Y4370070D01*
X2215641Y4377436D01*
X2469641Y4453636D02*
G01*
X2391918Y4483100D01*
X2469641Y4453636D02*
G01*
X2391918Y4423918D01*
X2417825Y4471923D02*
G01*
X2417825Y4435094D01*
X2454909Y4399534D02*
G01*
X2458465Y4392168D01*
X2469641Y4381245D01*
X2391918Y4381245D01*
X2723641Y4453636D02*
G01*
X2645918Y4483100D01*
X2723641Y4453636D02*
G01*
X2645918Y4423918D01*
X2671825Y4471923D02*
G01*
X2671825Y4435094D01*
X2705100Y4395978D02*
G01*
X2708909Y4395978D01*
X2716275Y4392168D01*
X2719831Y4388612D01*
X2723641Y4381245D01*
X2723641Y4366260D01*
X2719831Y4358894D01*
X2716275Y4355337D01*
X2708909Y4351528D01*
X2701543Y4351528D01*
X2694177Y4355337D01*
X2683002Y4362704D01*
X2645918Y4399534D01*
X2645918Y4347971D01*
X2977641Y4453636D02*
G01*
X2899918Y4483100D01*
X2977641Y4453636D02*
G01*
X2899918Y4423918D01*
X2925825Y4471923D02*
G01*
X2925825Y4435094D01*
X2977641Y4392168D02*
G01*
X2977641Y4351528D01*
X2948177Y4373626D01*
X2948177Y4362704D01*
X2944368Y4355337D01*
X2940558Y4351528D01*
X2929636Y4347971D01*
X2922270Y4347971D01*
X2911093Y4351528D01*
X2903727Y4358894D01*
X2899918Y4370070D01*
X2899918Y4381245D01*
X2903727Y4392168D01*
X2907538Y4395978D01*
X2914904Y4399534D01*
X3231641Y4453636D02*
G01*
X3153918Y4483100D01*
X3231641Y4453636D02*
G01*
X3153918Y4423918D01*
X3179825Y4471923D02*
G01*
X3179825Y4435094D01*
X3231641Y4362704D02*
G01*
X3179825Y4399534D01*
X3179825Y4344162D01*
X3231641Y4362704D02*
G01*
X3153918Y4362704D01*
X3485641Y4453636D02*
G01*
X3407918Y4483100D01*
X3485641Y4453636D02*
G01*
X3407918Y4423918D01*
X3433825Y4471923D02*
G01*
X3433825Y4435094D01*
X3485641Y4355337D02*
G01*
X3485641Y4392168D01*
X3452368Y4395978D01*
X3456177Y4392168D01*
X3459734Y4381245D01*
X3459734Y4370070D01*
X3456177Y4358894D01*
X3448558Y4351528D01*
X3437636Y4347971D01*
X3430270Y4347971D01*
X3419093Y4351528D01*
X3411727Y4358894D01*
X3407918Y4370070D01*
X3407918Y4381245D01*
X3411727Y4392168D01*
X3415538Y4395978D01*
X3422904Y4399534D01*
X3739641Y4453636D02*
G01*
X3661918Y4483100D01*
X3739641Y4453636D02*
G01*
X3661918Y4423918D01*
X3687825Y4471923D02*
G01*
X3687825Y4435094D01*
X3728465Y4355337D02*
G01*
X3735831Y4358894D01*
X3739641Y4370070D01*
X3739641Y4377436D01*
X3735831Y4388612D01*
X3724909Y4395978D01*
X3706368Y4399534D01*
X3687825Y4399534D01*
X3673093Y4395978D01*
X3665727Y4388612D01*
X3661918Y4377436D01*
X3661918Y4373626D01*
X3665727Y4362704D01*
X3673093Y4355337D01*
X3684270Y4351528D01*
X3687825Y4351528D01*
X3699002Y4355337D01*
X3706368Y4362704D01*
X3710177Y4373626D01*
X3710177Y4377436D01*
X3706368Y4388612D01*
X3699002Y4395978D01*
X3687825Y4399534D01*
X3993641Y4453636D02*
G01*
X3915918Y4483100D01*
X3993641Y4453636D02*
G01*
X3915918Y4423918D01*
X3941825Y4471923D02*
G01*
X3941825Y4435094D01*
X3993641Y4347971D02*
G01*
X3915918Y4384802D01*
X3993641Y4399534D02*
G01*
X3993641Y4347971D01*
X4247641Y4438650D02*
G01*
X4247641Y4475734D01*
X4214368Y4479289D01*
X4218177Y4475734D01*
X4221734Y4464557D01*
X4221734Y4453636D01*
X4218177Y4442460D01*
X4210558Y4435094D01*
X4199636Y4431284D01*
X4192270Y4431284D01*
X4181093Y4435094D01*
X4173727Y4442460D01*
X4169918Y4453636D01*
X4169918Y4464557D01*
X4173727Y4475734D01*
X4177538Y4479289D01*
X4184904Y4483100D01*
X4247641Y4406900D02*
G01*
X4169918Y4377436D01*
X4247641Y4347971D02*
G01*
X4169918Y4377436D01*
X4501641Y4546600D02*
G01*
X4423918Y4546600D01*
X4501641Y4546600D02*
G01*
X4501641Y4513326D01*
X4497831Y4502150D01*
X4494275Y4498594D01*
X4486909Y4494784D01*
X4479543Y4494784D01*
X4472177Y4498594D01*
X4468368Y4502150D01*
X4464558Y4513326D01*
X4464558Y4546600D01*
X4464558Y4520692D02*
G01*
X4423918Y4494784D01*
X4490465Y4418837D02*
G01*
X4497831Y4426204D01*
X4501641Y4437126D01*
X4501641Y4452112D01*
X4497831Y4463034D01*
X4490465Y4470400D01*
X4483100Y4470400D01*
X4475734Y4466844D01*
X4472177Y4463034D01*
X4468368Y4455668D01*
X4461002Y4433570D01*
X4457191Y4426204D01*
X4453636Y4422394D01*
X4446270Y4418837D01*
X4435093Y4418837D01*
X4427727Y4426204D01*
X4423918Y4437126D01*
X4423918Y4452112D01*
X4427727Y4463034D01*
X4435093Y4470400D01*
X4501641Y4368545D02*
G01*
X4423918Y4368545D01*
X4501641Y4394454D02*
G01*
X4501641Y4342637D01*
X1453642Y5638800D02*
G01*
X1375918Y5638800D01*
X1453642Y5638800D02*
G01*
X1453642Y5612892D01*
X1449831Y5601970D01*
X1442465Y5594350D01*
X1435100Y5590794D01*
X1424178Y5586984D01*
X1405636Y5586984D01*
X1394460Y5590794D01*
X1387094Y5594350D01*
X1379728Y5601970D01*
X1375918Y5612892D01*
X1375918Y5638800D01*
X1438910Y5562600D02*
G01*
X1442465Y5555234D01*
X1453642Y5544312D01*
X1375918Y5544312D01*
X1435100Y5516118D02*
G01*
X1438910Y5516118D01*
X1446276Y5512562D01*
X1449831Y5508752D01*
X1453642Y5501386D01*
X1453642Y5486654D01*
X1449831Y5479287D01*
X1446276Y5475478D01*
X1438910Y5471921D01*
X1431544Y5471921D01*
X1424178Y5475478D01*
X1413002Y5482844D01*
X1375918Y5519928D01*
X1375918Y5468112D01*
X1707642Y5638800D02*
G01*
X1629918Y5638800D01*
X1707642Y5638800D02*
G01*
X1707642Y5612892D01*
X1703831Y5601970D01*
X1696465Y5594350D01*
X1689100Y5590794D01*
X1678178Y5586984D01*
X1659636Y5586984D01*
X1648460Y5590794D01*
X1641094Y5594350D01*
X1633728Y5601970D01*
X1629918Y5612892D01*
X1629918Y5638800D01*
X1692910Y5562600D02*
G01*
X1696465Y5555234D01*
X1707642Y5544312D01*
X1629918Y5544312D01*
X1692910Y5519928D02*
G01*
X1696465Y5512562D01*
X1707642Y5501386D01*
X1629918Y5501386D01*
X1961641Y5638800D02*
G01*
X1883918Y5638800D01*
X1961641Y5638800D02*
G01*
X1961641Y5612892D01*
X1957831Y5601970D01*
X1950465Y5594350D01*
X1943100Y5590794D01*
X1932177Y5586984D01*
X1913636Y5586984D01*
X1902460Y5590794D01*
X1895094Y5594350D01*
X1887728Y5601970D01*
X1883918Y5612892D01*
X1883918Y5638800D01*
X1946909Y5562600D02*
G01*
X1950465Y5555234D01*
X1961641Y5544312D01*
X1883918Y5544312D01*
X1961641Y5497576D02*
G01*
X1957831Y5508752D01*
X1946909Y5516118D01*
X1928368Y5519928D01*
X1917192Y5519928D01*
X1898904Y5516118D01*
X1887728Y5508752D01*
X1883918Y5497576D01*
X1883918Y5490210D01*
X1887728Y5479287D01*
X1898904Y5471921D01*
X1917192Y5468112D01*
X1928368Y5468112D01*
X1946909Y5471921D01*
X1957831Y5479287D01*
X1961641Y5490210D01*
X1961641Y5497576D01*
X2215641Y5638800D02*
G01*
X2137918Y5638800D01*
X2215641Y5638800D02*
G01*
X2215641Y5612892D01*
X2211831Y5601970D01*
X2204465Y5594350D01*
X2197100Y5590794D01*
X2186177Y5586984D01*
X2167636Y5586984D01*
X2156459Y5590794D01*
X2149093Y5594350D01*
X2141727Y5601970D01*
X2137918Y5612892D01*
X2137918Y5638800D01*
X2189734Y5514594D02*
G01*
X2178558Y5518404D01*
X2171191Y5525770D01*
X2167636Y5536945D01*
X2167636Y5540502D01*
X2171191Y5551678D01*
X2178558Y5559044D01*
X2189734Y5562600D01*
X2193543Y5562600D01*
X2204465Y5559044D01*
X2211831Y5551678D01*
X2215641Y5540502D01*
X2215641Y5536945D01*
X2211831Y5525770D01*
X2204465Y5518404D01*
X2189734Y5514594D01*
X2171191Y5514594D01*
X2152904Y5518404D01*
X2141727Y5525770D01*
X2137918Y5536945D01*
X2137918Y5544312D01*
X2141727Y5555234D01*
X2149093Y5559044D01*
X2469641Y5638800D02*
G01*
X2391918Y5638800D01*
X2469641Y5638800D02*
G01*
X2469641Y5612892D01*
X2465831Y5601970D01*
X2458465Y5594350D01*
X2451100Y5590794D01*
X2440177Y5586984D01*
X2421636Y5586984D01*
X2410459Y5590794D01*
X2403093Y5594350D01*
X2395727Y5601970D01*
X2391918Y5612892D01*
X2391918Y5638800D01*
X2469641Y5544312D02*
G01*
X2465831Y5555234D01*
X2458465Y5559044D01*
X2451100Y5559044D01*
X2443734Y5555234D01*
X2440177Y5547868D01*
X2436368Y5533136D01*
X2432558Y5521960D01*
X2425191Y5514594D01*
X2417825Y5511037D01*
X2406904Y5511037D01*
X2399538Y5514594D01*
X2395727Y5518404D01*
X2391918Y5529326D01*
X2391918Y5544312D01*
X2395727Y5555234D01*
X2399538Y5559044D01*
X2406904Y5562600D01*
X2417825Y5562600D01*
X2425191Y5559044D01*
X2432558Y5551678D01*
X2436368Y5540502D01*
X2440177Y5525770D01*
X2443734Y5518404D01*
X2451100Y5514594D01*
X2458465Y5514594D01*
X2465831Y5518404D01*
X2469641Y5529326D01*
X2469641Y5544312D01*
X2723641Y5638800D02*
G01*
X2645918Y5638800D01*
X2723641Y5638800D02*
G01*
X2723641Y5612892D01*
X2719831Y5601970D01*
X2712465Y5594350D01*
X2705100Y5590794D01*
X2694177Y5586984D01*
X2675636Y5586984D01*
X2664459Y5590794D01*
X2657093Y5594350D01*
X2649727Y5601970D01*
X2645918Y5612892D01*
X2645918Y5638800D01*
X2723641Y5511037D02*
G01*
X2645918Y5547868D01*
X2723641Y5562600D02*
G01*
X2723641Y5511037D01*
X2977641Y5638800D02*
G01*
X2899918Y5638800D01*
X2977641Y5638800D02*
G01*
X2977641Y5612892D01*
X2973831Y5601970D01*
X2966465Y5594350D01*
X2959100Y5590794D01*
X2948177Y5586984D01*
X2929636Y5586984D01*
X2918459Y5590794D01*
X2911093Y5594350D01*
X2903727Y5601970D01*
X2899918Y5612892D01*
X2899918Y5638800D01*
X2966465Y5518404D02*
G01*
X2973831Y5521960D01*
X2977641Y5533136D01*
X2977641Y5540502D01*
X2973831Y5551678D01*
X2962909Y5559044D01*
X2944368Y5562600D01*
X2925825Y5562600D01*
X2911093Y5559044D01*
X2903727Y5551678D01*
X2899918Y5540502D01*
X2899918Y5536945D01*
X2903727Y5525770D01*
X2911093Y5518404D01*
X2922270Y5514594D01*
X2925825Y5514594D01*
X2937002Y5518404D01*
X2944368Y5525770D01*
X2948177Y5536945D01*
X2948177Y5540502D01*
X2944368Y5551678D01*
X2937002Y5559044D01*
X2925825Y5562600D01*
X3231641Y5638800D02*
G01*
X3153918Y5638800D01*
X3231641Y5638800D02*
G01*
X3231641Y5612892D01*
X3227831Y5601970D01*
X3220465Y5594350D01*
X3213100Y5590794D01*
X3202177Y5586984D01*
X3183636Y5586984D01*
X3172459Y5590794D01*
X3165093Y5594350D01*
X3157727Y5601970D01*
X3153918Y5612892D01*
X3153918Y5638800D01*
X3231641Y5518404D02*
G01*
X3231641Y5555234D01*
X3198368Y5559044D01*
X3202177Y5555234D01*
X3205734Y5544312D01*
X3205734Y5533136D01*
X3202177Y5521960D01*
X3194558Y5514594D01*
X3183636Y5511037D01*
X3176270Y5511037D01*
X3165093Y5514594D01*
X3157727Y5521960D01*
X3153918Y5533136D01*
X3153918Y5544312D01*
X3157727Y5555234D01*
X3161538Y5559044D01*
X3168904Y5562600D01*
X3485641Y5638800D02*
G01*
X3407918Y5638800D01*
X3485641Y5638800D02*
G01*
X3485641Y5612892D01*
X3481831Y5601970D01*
X3474465Y5594350D01*
X3467100Y5590794D01*
X3456177Y5586984D01*
X3437636Y5586984D01*
X3426459Y5590794D01*
X3419093Y5594350D01*
X3411727Y5601970D01*
X3407918Y5612892D01*
X3407918Y5638800D01*
X3485641Y5525770D02*
G01*
X3433825Y5562600D01*
X3433825Y5507228D01*
X3485641Y5525770D02*
G01*
X3407918Y5525770D01*
X3739641Y5638800D02*
G01*
X3661918Y5638800D01*
X3739641Y5638800D02*
G01*
X3739641Y5612892D01*
X3735831Y5601970D01*
X3728465Y5594350D01*
X3721100Y5590794D01*
X3710177Y5586984D01*
X3691636Y5586984D01*
X3680459Y5590794D01*
X3673093Y5594350D01*
X3665727Y5601970D01*
X3661918Y5612892D01*
X3661918Y5638800D01*
X3739641Y5555234D02*
G01*
X3739641Y5514594D01*
X3710177Y5536945D01*
X3710177Y5525770D01*
X3706368Y5518404D01*
X3702558Y5514594D01*
X3691636Y5511037D01*
X3684270Y5511037D01*
X3673093Y5514594D01*
X3665727Y5521960D01*
X3661918Y5533136D01*
X3661918Y5544312D01*
X3665727Y5555234D01*
X3669538Y5559044D01*
X3676904Y5562600D01*
X3993641Y5638800D02*
G01*
X3915918Y5638800D01*
X3993641Y5638800D02*
G01*
X3993641Y5612892D01*
X3989831Y5601970D01*
X3982465Y5594350D01*
X3975100Y5590794D01*
X3964177Y5586984D01*
X3945636Y5586984D01*
X3934459Y5590794D01*
X3927093Y5594350D01*
X3919727Y5601970D01*
X3915918Y5612892D01*
X3915918Y5638800D01*
X3975100Y5559044D02*
G01*
X3978909Y5559044D01*
X3986275Y5555234D01*
X3989831Y5551678D01*
X3993641Y5544312D01*
X3993641Y5529326D01*
X3989831Y5521960D01*
X3986275Y5518404D01*
X3978909Y5514594D01*
X3971543Y5514594D01*
X3964177Y5518404D01*
X3953002Y5525770D01*
X3915918Y5562600D01*
X3915918Y5511037D01*
X5009641Y4508500D02*
G01*
X4931918Y4479036D01*
X5009641Y4449318D02*
G01*
X4931918Y4479036D01*
X5009641Y4424934D02*
G01*
X4931918Y4424934D01*
X5009641Y4400550D02*
G01*
X4931918Y4400550D01*
X5009641Y4400550D02*
G01*
X4931918Y4348987D01*
X5009641Y4348987D02*
G01*
X4931918Y4348987D01*
X4737100Y4503928D02*
G01*
X4744465Y4507484D01*
X4751831Y4514850D01*
X4755641Y4522470D01*
X4755641Y4537202D01*
X4751831Y4544568D01*
X4744465Y4551934D01*
X4737100Y4555489D01*
X4726177Y4559300D01*
X4707636Y4559300D01*
X4696459Y4555489D01*
X4689093Y4551934D01*
X4681727Y4544568D01*
X4677918Y4537202D01*
X4677918Y4522470D01*
X4681727Y4514850D01*
X4689093Y4507484D01*
X4696459Y4503928D01*
X4707636Y4503928D01*
X4707636Y4522470D02*
G01*
X4707636Y4503928D01*
X4755641Y4479544D02*
G01*
X4677918Y4479544D01*
X4755641Y4479544D02*
G01*
X4677918Y4427728D01*
X4755641Y4427728D02*
G01*
X4677918Y4427728D01*
X4755641Y4403344D02*
G01*
X4677918Y4403344D01*
X4755641Y4403344D02*
G01*
X4755641Y4377436D01*
X4751831Y4366513D01*
X4744465Y4359147D01*
X4737100Y4355337D01*
X4726177Y4351781D01*
X4707636Y4351781D01*
X4696459Y4355337D01*
X4689093Y4359147D01*
X4681727Y4366513D01*
X4677918Y4377436D01*
X4677918Y4403344D01*
X4229100Y5583428D02*
G01*
X4236465Y5586984D01*
X4243831Y5594350D01*
X4247641Y5601970D01*
X4247641Y5616702D01*
X4243831Y5624068D01*
X4236465Y5631434D01*
X4229100Y5634989D01*
X4218177Y5638800D01*
X4199636Y5638800D01*
X4188459Y5634989D01*
X4181093Y5631434D01*
X4173727Y5624068D01*
X4169918Y5616702D01*
X4169918Y5601970D01*
X4173727Y5594350D01*
X4181093Y5586984D01*
X4188459Y5583428D01*
X4199636Y5583428D01*
X4199636Y5601970D02*
G01*
X4199636Y5583428D01*
X4247641Y5559044D02*
G01*
X4169918Y5559044D01*
X4247641Y5559044D02*
G01*
X4169918Y5507228D01*
X4247641Y5507228D02*
G01*
X4169918Y5507228D01*
X4247641Y5482844D02*
G01*
X4169918Y5482844D01*
X4247641Y5482844D02*
G01*
X4247641Y5456936D01*
X4243831Y5446013D01*
X4236465Y5438647D01*
X4229100Y5434837D01*
X4218177Y5431281D01*
X4199636Y5431281D01*
X4188459Y5434837D01*
X4181093Y5438647D01*
X4173727Y5446013D01*
X4169918Y5456936D01*
X4169918Y5482844D01*
X4501641Y5638800D02*
G01*
X4423918Y5638800D01*
X4501641Y5638800D02*
G01*
X4501641Y5605526D01*
X4497831Y5594350D01*
X4494275Y5590794D01*
X4486909Y5586984D01*
X4479543Y5586984D01*
X4472177Y5590794D01*
X4468368Y5594350D01*
X4464558Y5605526D01*
X4464558Y5638800D01*
X4464558Y5612892D02*
G01*
X4423918Y5586984D01*
X4490465Y5511037D02*
G01*
X4497831Y5518404D01*
X4501641Y5529326D01*
X4501641Y5544312D01*
X4497831Y5555234D01*
X4490465Y5562600D01*
X4483100Y5562600D01*
X4475734Y5559044D01*
X4472177Y5555234D01*
X4468368Y5547868D01*
X4461002Y5525770D01*
X4457191Y5518404D01*
X4453636Y5514594D01*
X4446270Y5511037D01*
X4435093Y5511037D01*
X4427727Y5518404D01*
X4423918Y5529326D01*
X4423918Y5544312D01*
X4427727Y5555234D01*
X4435093Y5562600D01*
X4501641Y5460745D02*
G01*
X4423918Y5460745D01*
X4501641Y5486654D02*
G01*
X4501641Y5434837D01*
X4755641Y5638800D02*
G01*
X4677918Y5638800D01*
X4755641Y5638800D02*
G01*
X4755641Y5605526D01*
X4751831Y5594350D01*
X4748275Y5590794D01*
X4740909Y5586984D01*
X4733543Y5586984D01*
X4726177Y5590794D01*
X4722368Y5594350D01*
X4718558Y5605526D01*
X4718558Y5638800D01*
X4718558Y5612892D02*
G01*
X4677918Y5586984D01*
X4755641Y5562600D02*
G01*
X4677918Y5511037D01*
X4755641Y5511037D02*
G01*
X4677918Y5562600D01*
X5009641Y5612892D02*
G01*
X4931918Y5612892D01*
X5009641Y5638800D02*
G01*
X5009641Y5586984D01*
X5009641Y5562600D02*
G01*
X4931918Y5511037D01*
X5009641Y5511037D02*
G01*
X4931918Y5562600D01*
G36*
X3652977Y2807004D02*
G01*
X3652977Y2526995D01*
X3662121Y2534920D01*
X3670757Y2543403D01*
X3678783Y2552496D01*
X3686149Y2562098D01*
X3692906Y2572156D01*
X3698951Y2582621D01*
X3704234Y2593543D01*
X3708857Y2604719D01*
X3712667Y2616200D01*
X3715664Y2627934D01*
X3717899Y2639872D01*
X3719322Y2651861D01*
X3719931Y2663952D01*
X3719728Y2676093D01*
X3718712Y2688132D01*
X3716883Y2700121D01*
X3714242Y2711958D01*
X3712667Y2717800D01*
X3708857Y2729280D01*
X3704234Y2740456D01*
X3698951Y2751378D01*
X3692906Y2761843D01*
X3686149Y2771902D01*
X3678783Y2781503D01*
X3670757Y2790596D01*
X3662121Y2799080D01*
G37*
G36*
X3665677Y3454704D02*
G01*
X3665677Y3174695D01*
X3674821Y3182620D01*
X3683457Y3191103D01*
X3691483Y3200196D01*
X3698849Y3209798D01*
X3705606Y3219856D01*
X3711651Y3230321D01*
X3716934Y3241243D01*
X3721557Y3252419D01*
X3725367Y3263900D01*
X3728364Y3275634D01*
X3730599Y3287572D01*
X3732022Y3299561D01*
X3732631Y3311651D01*
X3732428Y3323793D01*
X3731412Y3335832D01*
X3729583Y3347821D01*
X3726942Y3359658D01*
X3725367Y3365500D01*
X3721557Y3376980D01*
X3716934Y3388156D01*
X3711651Y3399078D01*
X3705606Y3409543D01*
X3698849Y3419601D01*
X3691483Y3429203D01*
X3683457Y3438296D01*
X3674821Y3446779D01*
G37*
G36*
X6281877Y5905804D02*
G01*
X6281877Y5625795D01*
X6291021Y5633720D01*
X6299657Y5642203D01*
X6307683Y5651296D01*
X6315049Y5660898D01*
X6321806Y5670956D01*
X6327851Y5681421D01*
X6333134Y5692343D01*
X6337757Y5703519D01*
X6341567Y5715000D01*
X6344564Y5726734D01*
X6346799Y5738672D01*
X6348222Y5750661D01*
X6348831Y5762752D01*
X6348628Y5774893D01*
X6347612Y5786932D01*
X6345783Y5798921D01*
X6343142Y5810758D01*
X6341567Y5816600D01*
X6337757Y5828080D01*
X6333134Y5839256D01*
X6327851Y5850178D01*
X6321806Y5860643D01*
X6315049Y5870702D01*
X6307683Y5880303D01*
X6299657Y5889396D01*
X6291021Y5897880D01*
G37*
D10*
X3497602Y2786550D02*
G01*
X3417603Y2786550D01*
X3456962Y2748450D02*
G01*
X3456962Y2828450D01*
X3510302Y3434250D02*
G01*
X3430303Y3434250D01*
X3469662Y3396150D02*
G01*
X3469662Y3476150D01*
X6126502Y5885350D02*
G01*
X6046503Y5885350D01*
X6085862Y5847250D02*
G01*
X6085862Y5927250D01*
D27*
X2730500Y1841500D02*
G01*
X2730500Y1587500D01*
X1917700Y1587500D01*
X1917700Y2095500D01*
X2730500Y2095500D01*
X2730500Y1841500D01*
X3771900Y1828800D02*
G01*
X3771900Y1574800D01*
X2959100Y1574800D01*
X2959100Y2082800D01*
X3771900Y2082800D01*
X3771900Y1828800D01*
X2743200Y1092200D02*
G01*
X2743200Y838200D01*
X1930400Y838200D01*
X1930400Y1346200D01*
X2743200Y1346200D01*
X2743200Y1092200D01*
D28*
X6248400Y3708400D02*
G01*
X5930900Y3708400D01*
D29*
X6248400Y3708400D02*
G01*
X6248400Y3454400D01*
X5740400Y3454400D01*
X5740400Y3708400D01*
X5930900Y3708400D01*
D10*
X3708400Y531144D02*
G01*
X3708400Y307055D01*
X3133186Y723900D02*
G01*
X3623213Y723900D01*
X3048000Y531144D02*
G01*
X3048000Y307055D01*
X3133186Y114300D02*
G01*
X3623213Y114300D01*
D30*
X6995159Y5854700D02*
G01*
X9245600Y5854700D01*
X9895840Y5854700D01*
X9895840Y4356100D01*
X9245600Y4356100D01*
X6995159Y4356100D01*
X6995159Y5854700D01*
X7035800Y5753100D02*
G01*
X7099300Y5816600D01*
X7480300Y5816600D01*
X7543800Y5753100D01*
X7543800Y5626100D01*
X7480300Y5562600D01*
X7543800Y5499100D01*
X7543800Y5372100D01*
X7480300Y5308600D01*
X7543800Y5245100D01*
X7543800Y5118100D01*
X7480300Y5054600D01*
X7543800Y4991100D01*
X7543800Y4864100D01*
X7480300Y4800600D01*
X7353300Y4800600D01*
X7289800Y4864100D01*
X7226300Y4800600D01*
X7099300Y4800600D01*
X7035800Y4864100D01*
X7035800Y4991100D01*
X7099300Y5054600D01*
X7035800Y5118100D01*
X7035800Y5245100D01*
X7099300Y5308600D01*
X7035800Y5372100D01*
X7035800Y5499100D01*
X7099300Y5562600D01*
X7035800Y5626100D01*
X7035800Y5753100D01*
X9245600Y5854700D02*
G01*
X9245600Y4356100D01*
D10*
X927100Y3441700D02*
G01*
X927100Y3505200D01*
X841418Y3505200D01*
X841418Y3441700D01*
X1482681Y3441700D02*
G01*
X1482681Y3505200D01*
X1397000Y3505200D01*
X1397000Y3441700D01*
X842119Y3441700D02*
G01*
X842119Y2425700D01*
X994519Y3441700D02*
G01*
X994519Y2425700D01*
X1390756Y3441700D02*
G01*
X1390756Y2425700D01*
X783803Y3441700D02*
G01*
X783803Y2425700D01*
X1603796Y2425700D02*
G01*
X783803Y2425700D01*
X1603796Y3441700D02*
G01*
X783803Y3441700D01*
X1603796Y3441700D02*
G01*
X1603796Y2425700D01*
X4396945Y2989579D02*
G01*
X4797844Y2989618D01*
X4561840Y528320D02*
G01*
X4561840Y767079D01*
X4561840Y767079D02*
G01*
X5191759Y767079D01*
X5191759Y767079D02*
G01*
X5191759Y528320D01*
X5191759Y528320D02*
G01*
X4561840Y528320D01*
X4523740Y1049020D02*
G01*
X4523740Y1287779D01*
X4523740Y1287779D02*
G01*
X5153659Y1287779D01*
X5153659Y1287779D02*
G01*
X5153659Y1049020D01*
X5153659Y1049020D02*
G01*
X4523740Y1049020D01*
X4536440Y1595120D02*
G01*
X4536440Y1833879D01*
X4536440Y1833879D02*
G01*
X5166359Y1833879D01*
X5166359Y1833879D02*
G01*
X5166359Y1595120D01*
X5166359Y1595120D02*
G01*
X4536440Y1595120D01*
X4536440Y2192020D02*
G01*
X4536440Y2430779D01*
X4536440Y2430779D02*
G01*
X5166359Y2430779D01*
X5166359Y2430779D02*
G01*
X5166359Y2192020D01*
X5166359Y2192020D02*
G01*
X4536440Y2192020D01*
X2560797Y2479791D02*
G01*
X2560797Y3539992D01*
X3040606Y3539992D01*
X3040606Y2479791D01*
X2561305Y2479791D01*
X2560797Y2479791D01*
X2620713Y3539888D02*
G01*
X2620713Y2479895D01*
X5346700Y5918200D02*
G01*
X5346700Y4064000D01*
X1028700Y4064000D01*
X1028700Y5918200D01*
X5346700Y5918200D01*
G75*
G01*
X3517778Y2866898D02*
G03*
X3521080Y2866898I1651J-199993D01*
G75*
G01*
X3530478Y3514598D02*
G03*
X3533780Y3514598I1651J-199993D01*
G75*
G01*
X6146678Y5965698D02*
G03*
X6149980Y5965698I1651J-199993D01*
G75*
G01*
X4797844Y2989598D02*
G03*
X4396946Y2989618I-200442J134345D01*
D31*
G75*
G01*
X3103204Y2732895D02*
G03*
X3103204Y2733149I20000J127D01*
D10*
G75*
G01
X3238500Y596900D02*
G03X3238500Y596900I-50800J0D01*
G75*
G01
X3225800Y241300D02*
G03X3225800Y241300I-50800J0D01*
G75*
G01
X3619500Y596900D02*
G03X3619500Y596900I-50800J0D01*
G75*
G01
X3606800Y241300D02*
G03X3606800Y241300I-50800J0D01*
G75*
G01
X3492500Y419100D02*
G03X3492500Y419100I-114300J0D01*
G75*
G01
X3528314Y419100D02*
G03X3528314Y419100I-150114J0D01*
G75*
G01
X1468399Y431800D02*
G03X1468399Y431800I-299999J0D01*
M02*
